<svg xmlns="http://www.w3.org/2000/svg" viewBox="0 0 2770.3 1490.2"><defs><style>.a{fill:#fff;}.b{fill:#afcdfb;}.c{fill:#d5e5fb;}.d{fill:#2e3552;}.e{fill:#ffb93e;}.f{fill:#ffa412;}.g{fill:#e2810e;}.h{fill:#ffeddc;}.i{fill:#db6a1d;}.j{fill:#e5c1a1;}.k{fill:#f9ddbf;}.l{fill:#233862;}.m{fill:#e2915a;}.n{fill:#f99746;}.o{fill:#ed7d2b;}.p{fill:#ffb27d;}.q{fill:#2b478b;}.r{fill:#ed975d;}.s{fill:#e9f3fe;}.t{fill:#22407a;}.u{fill:#d9e9f9;}.v{fill:#ba4c43;}.w{fill:#c65447;}.x{fill:#c6dcf7;}</style></defs><path class="a" d="M583.2,1243.4a54.5,54.5,0,1,1,54.4,54.5A54.4,54.4,0,0,1,583.2,1243.4Z" transform="translate(-249.6 -318.7)"/><path class="b" d="M644.1,1256.4a9.5,9.5,0,0,0-.4-3,6.5,6.5,0,0,0-1.5-2.3,12.6,12.6,0,0,0-2.8-2,34.1,34.1,0,0,0-4.1-1.7,79.1,79.1,0,0,1-7.6-3.2,27.7,27.7,0,0,1-5.8-3.8,16.3,16.3,0,0,1-3.7-5,14.5,14.5,0,0,1-1.2-6.8,15.1,15.1,0,0,1,1.2-6.1,14.2,14.2,0,0,1,3.5-4.8,16.3,16.3,0,0,1,5.4-3.3,24.8,24.8,0,0,1,7-1.6v-8.5h6.9v8.7a20.3,20.3,0,0,1,6.6,2,16.5,16.5,0,0,1,5.1,3.9,17.9,17.9,0,0,1,3.1,5.6,20.9,20.9,0,0,1,1,7.2l-12.3-.2c0-3.2-.7-5.5-2.1-7.1a6.9,6.9,0,0,0-5.6-2.5,8.2,8.2,0,0,0-3.3.5,5.3,5.3,0,0,0-2.3,1.4,6.4,6.4,0,0,0-1.4,2.2,8.7,8.7,0,0,0-.5,2.8,7.5,7.5,0,0,0,.4,2.6,6.5,6.5,0,0,0,1.5,2.3,15.7,15.7,0,0,0,2.7,1.9,36.3,36.3,0,0,0,4.3,1.9q4.2,1.7,7.5,3.3a22.6,22.6,0,0,1,5.8,3.9,13.9,13.9,0,0,1,3.7,5,15.4,15.4,0,0,1,1.3,6.7,16.1,16.1,0,0,1-1.3,6.3,14.8,14.8,0,0,1-3.5,4.7,19.9,19.9,0,0,1-5.5,3.2,24.8,24.8,0,0,1-7,1.5v7.9h-6.8v-7.9a26.7,26.7,0,0,1-6.9-1.6,18,18,0,0,1-5.8-3.5,17.2,17.2,0,0,1-4-5.8,20.4,20.4,0,0,1-1.5-8.2l12.4.2a12.9,12.9,0,0,0,.7,4.7,8.9,8.9,0,0,0,2.1,3.1,8.7,8.7,0,0,0,3,1.6,13.4,13.4,0,0,0,3.5.5,9.6,9.6,0,0,0,3.5-.5,7.2,7.2,0,0,0,2.6-1.4,5.1,5.1,0,0,0,1.5-2.1A6,6,0,0,0,644.1,1256.4Z" transform="translate(-249.6 -318.7)"/><circle class="a" cx="796.2" cy="1068.5" r="81.7" transform="translate(-285.3 -291.1) rotate(-1.9)"/><path class="b" d="M805.9,1087.9a12.3,12.3,0,0,0-.7-4.4,9.4,9.4,0,0,0-2.2-3.5,19.6,19.6,0,0,0-4.1-2.9,47.5,47.5,0,0,0-6.2-2.7,101.1,101.1,0,0,1-11.3-4.8,33.4,33.4,0,0,1-8.8-5.7,23.1,23.1,0,0,1-5.6-7.5,22.5,22.5,0,0,1-1.8-10.1,22.9,22.9,0,0,1,1.9-9.2,19.8,19.8,0,0,1,5.3-7.2,25.7,25.7,0,0,1,8-4.9,34.4,34.4,0,0,1,10.5-2.4l.2-12.7h10.3l-.2,13a31.5,31.5,0,0,1,10,3,25.8,25.8,0,0,1,7.5,5.9,24.9,24.9,0,0,1,4.8,8.4,33.2,33.2,0,0,1,1.5,10.8l-18.6-.3q.1-7.2-3-10.8a11,11,0,0,0-8.5-3.6,12.4,12.4,0,0,0-4.9.7,8.4,8.4,0,0,0-3.5,2.2,9.3,9.3,0,0,0-2.1,3.3,16.7,16.7,0,0,0-.7,4.1,12.9,12.9,0,0,0,.6,4,8.7,8.7,0,0,0,2.2,3.3,17.3,17.3,0,0,0,4.1,2.9,56.8,56.8,0,0,0,6.4,2.9c4.2,1.6,7.9,3.3,11.3,4.9a41.2,41.2,0,0,1,8.7,5.8,23.8,23.8,0,0,1,5.6,7.5,24.3,24.3,0,0,1,1.9,10.1,23.6,23.6,0,0,1-2,9.4,20.7,20.7,0,0,1-5.3,7.1,26,26,0,0,1-8.1,4.8,42.3,42.3,0,0,1-10.6,2.3v11.8H788.2v-11.8a45.6,45.6,0,0,1-10.3-2.5,27.5,27.5,0,0,1-8.7-5.3,24.4,24.4,0,0,1-6.1-8.6,29.1,29.1,0,0,1-2.1-12.3l18.6.2a16.6,16.6,0,0,0,1.1,7.1,11.5,11.5,0,0,0,7.6,7.1,22.4,22.4,0,0,0,5.1.7,14.5,14.5,0,0,0,5.3-.7,10.4,10.4,0,0,0,3.9-2.1,9.6,9.6,0,0,0,2.4-3.2A10.7,10.7,0,0,0,805.9,1087.9Z" transform="translate(-249.6 -318.7)"/><path class="c" d="M2508.8,1115.7l-641.7,596.9-330.3-312.9c-61.9,60.5-157.4,154-253.5,247.8-65.6,64.1-118.8,115.9-161.9,157.8l-300.1-.4c83.2-78.8,418.3-406.2,644.1-627.4l69-67.7,334,316.3,490.3-456Z" transform="translate(-249.6 -318.7)"/><polygon class="c" points="2029.6 579.6 2332 897.8 2392.5 534.6 2029.6 579.6"/><rect class="d" y="1482.8" width="2770.3" height="7.35" rx="3.1"/><path class="e" d="M1003.5,1779.8v16.4a5.6,5.6,0,0,1-1.3,3.5,7.6,7.6,0,0,1-3.6,2.4l-1.4.3H684.6c-4,0-7.3-2.7-7.5-6v-17.1c.2-3.3,3.5-6,7.5-6H997.2l1.4.4a7.5,7.5,0,0,1,3.6,2.3A5.7,5.7,0,0,1,1003.5,1779.8Z" transform="translate(-249.6 -318.7)"/><path class="f" d="M850.6,1802.5H683.8a6.6,6.6,0,0,1-6.7-6v-17.1a6.6,6.6,0,0,1,6.7-6H830.1A50.8,50.8,0,0,0,850.6,1802.5Z" transform="translate(-249.6 -318.7)"/><rect class="f" x="712.4" y="1454.8" width="3.5" height="29.06"/><rect class="f" x="700.5" y="1454.8" width="3.5" height="29.06"/><rect class="f" x="686.1" y="1454.8" width="3.5" height="29.06"/><rect class="f" x="664.1" y="1454.8" width="3.5" height="29.06"/><rect class="f" x="640.8" y="1454.8" width="3.5" height="29.06"/><rect class="f" x="605.1" y="1454.8" width="3.5" height="29.06"/><rect class="f" x="571.7" y="1454.8" width="3.5" height="29.06"/><rect class="f" x="541.9" y="1454.8" width="3.5" height="29.06"/><rect class="f" x="723.8" y="1454.8" width="3.5" height="29.06"/><rect class="f" x="731.4" y="1454.8" width="3.5" height="29.06"/><rect class="f" x="738.6" y="1454.8" width="3.5" height="29.06"/><path class="f" d="M997.2,1773.5v28.9h-3.5v-29.1h3.5Z" transform="translate(-249.6 -318.7)"/><path class="f" d="M1002.2,1776.2v23.5a7.6,7.6,0,0,1-3.6,2.4v-28.2A7.5,7.5,0,0,1,1002.2,1776.2Z" transform="translate(-249.6 -318.7)"/><path class="e" d="M970.2,1750.7v16.4a5.6,5.6,0,0,1-1.3,3.5,7.6,7.6,0,0,1-3.6,2.4l-1.3.3H651.3c-4,0-7.3-2.6-7.5-6v-17c.2-3.4,3.5-6,7.5-6H964a3.1,3.1,0,0,1,1.3.3c.1,0,.2,0,.2.1h.2l.4.2c.1,0,.2,0,.2.1h.2l.4.2.4.2c.1.1.2.1.2.2h.1l.2.2.5.4.2.2h.1l.3.4A5.6,5.6,0,0,1,970.2,1750.7Z" transform="translate(-249.6 -318.7)"/><path class="f" d="M817.3,1773.4H650.5a6.5,6.5,0,0,1-6.7-6v-17a6.5,6.5,0,0,1,6.7-6H796.8a6.4,6.4,0,0,1,.2.7A50.7,50.7,0,0,0,817.3,1773.4Z" transform="translate(-249.6 -318.7)"/><rect class="f" x="679.2" y="1425.7" width="3.5" height="29.06"/><rect class="f" x="667.2" y="1425.7" width="3.5" height="29.06"/><rect class="f" x="652.8" y="1425.7" width="3.5" height="29.06"/><rect class="f" x="630.8" y="1425.7" width="3.5" height="29.06"/><rect class="f" x="607.5" y="1425.7" width="3.5" height="29.06"/><rect class="f" x="571.8" y="1425.7" width="3.5" height="29.06"/><rect class="f" x="538.4" y="1425.7" width="3.5" height="29.06"/><rect class="f" x="508.6" y="1425.7" width="3.5" height="29.06"/><rect class="f" x="690.6" y="1425.7" width="3.5" height="29.06"/><rect class="f" x="698.1" y="1425.7" width="3.5" height="29.06"/><rect class="f" x="705.4" y="1425.7" width="3.5" height="29.06"/><path class="f" d="M964,1744.5v28.8h-3.6v-29H964Z" transform="translate(-249.6 -318.7)"/><path class="f" d="M968.9,1747.2v23.4a7.6,7.6,0,0,1-3.6,2.4v-28.2A7.6,7.6,0,0,1,968.9,1747.2Z" transform="translate(-249.6 -318.7)"/><path class="e" d="M986.3,1722.3v16.5a5.6,5.6,0,0,1-1.3,3.5,8.5,8.5,0,0,1-3.6,2.4l-1.4.3H667.4a10.4,10.4,0,0,1-3.5-.7,6.7,6.7,0,0,1-4-5V1722c.2-3.3,3.5-6,7.5-6H980l1.4.3a7.6,7.6,0,0,1,3.6,2.4A5.6,5.6,0,0,1,986.3,1722.3Z" transform="translate(-249.6 -318.7)"/><path class="f" d="M833.4,1745.1H666.6a7.8,7.8,0,0,1-3.1-.7,6.4,6.4,0,0,1-3.6-5V1722a6.6,6.6,0,0,1,6.7-6H812.9a51.3,51.3,0,0,0,19.5,28.4Z" transform="translate(-249.6 -318.7)"/><rect class="f" x="695.2" y="1397.4" width="3.5" height="29.06"/><rect class="f" x="683.3" y="1397.4" width="3.5" height="29.06"/><rect class="f" x="668.9" y="1397.4" width="3.5" height="29.06"/><rect class="f" x="646.9" y="1397.4" width="3.5" height="29.06"/><rect class="f" x="623.6" y="1397.4" width="3.5" height="29.06"/><rect class="f" x="587.9" y="1397.4" width="3.5" height="29.06"/><rect class="f" x="554.5" y="1397.4" width="3.5" height="29.06"/><rect class="f" x="524.7" y="1397.4" width="3.5" height="29.06"/><rect class="f" x="706.6" y="1397.4" width="3.5" height="29.06"/><rect class="f" x="714.2" y="1397.4" width="3.5" height="29.06"/><rect class="f" x="721.4" y="1397.4" width="3.5" height="29.06"/><path class="f" d="M980,1716.1V1745h-3.5V1716H980Z" transform="translate(-249.6 -318.7)"/><path class="f" d="M985,1718.8v23.5a8.5,8.5,0,0,1-3.6,2.4v-28.3A7.6,7.6,0,0,1,985,1718.8Z" transform="translate(-249.6 -318.7)"/><path class="e" d="M993.7,1693.3v16.4a5.6,5.6,0,0,1-1.3,3.5,7.3,7.3,0,0,1-3.5,2.4l-1.4.3H674.9c-4.1,0-7.4-2.7-7.6-6v-17c.2-3.1,3.1-5.6,6.7-6H987.5a3.5,3.5,0,0,1,1.4.3,7.2,7.2,0,0,1,3.5,2.3A6.1,6.1,0,0,1,993.7,1693.3Z" transform="translate(-249.6 -318.7)"/><path class="f" d="M840.8,1716H674.1a6.7,6.7,0,0,1-6.8-6v-17a6.6,6.6,0,0,1,6-6H820.4A50.9,50.9,0,0,0,840.8,1716Z" transform="translate(-249.6 -318.7)"/><rect class="f" x="702.7" y="1368.3" width="3.5" height="29.06"/><rect class="f" x="690.7" y="1368.3" width="3.5" height="29.06"/><rect class="f" x="676.4" y="1368.3" width="3.5" height="29.06"/><rect class="f" x="654.3" y="1368.3" width="3.5" height="29.06"/><rect class="f" x="631.1" y="1368.3" width="3.5" height="29.06"/><rect class="f" x="595.4" y="1368.3" width="3.5" height="29.06"/><rect class="f" x="562" y="1368.3" width="3.5" height="29.06"/><rect class="f" x="532.1" y="1368.3" width="3.5" height="29.06"/><rect class="f" x="714.1" y="1368.3" width="3.5" height="29.06"/><rect class="f" x="721.6" y="1368.3" width="3.5" height="29.06"/><rect class="f" x="728.9" y="1368.3" width="3.5" height="29.06"/><path class="f" d="M987.5,1687.1v28.8H984v-29h3.5Z" transform="translate(-249.6 -318.7)"/><path class="f" d="M992.4,1689.7v23.5a7.3,7.3,0,0,1-3.5,2.4v-28.2A7.2,7.2,0,0,1,992.4,1689.7Z" transform="translate(-249.6 -318.7)"/><path class="e" d="M970.8,1664.3v16.4a5.6,5.6,0,0,1-1.3,3.5,7.3,7.3,0,0,1-3.5,2.4l-1.4.3H652c-4,0-7.3-2.7-7.6-6v-17.3c.3-2.7,2.6-4.9,5.6-5.6h.2l1.7-.2H964.6l1.4.4a7.2,7.2,0,0,1,3.5,2.3A5.9,5.9,0,0,1,970.8,1664.3Z" transform="translate(-249.6 -318.7)"/><path class="f" d="M817.9,1687H651.2a6.7,6.7,0,0,1-6.8-6v-17.3a6.4,6.4,0,0,1,5.2-5.6H797.5v.2a50.9,50.9,0,0,0,20.4,28.9Z" transform="translate(-249.6 -318.7)"/><rect class="f" x="679.8" y="1339.3" width="3.5" height="29.06"/><rect class="f" x="667.8" y="1339.3" width="3.5" height="29.06"/><rect class="f" x="653.5" y="1339.3" width="3.5" height="29.06"/><rect class="f" x="631.5" y="1339.3" width="3.5" height="29.06"/><rect class="f" x="608.2" y="1339.3" width="3.5" height="29.06"/><rect class="f" x="572.5" y="1339.3" width="3.5" height="29.06"/><rect class="f" x="539.1" y="1339.3" width="3.5" height="29.06"/><rect class="f" x="509.2" y="1339.3" width="3.5" height="29.06"/><rect class="f" x="691.2" y="1339.3" width="3.5" height="29.06"/><rect class="f" x="698.7" y="1339.3" width="3.5" height="29.06"/><rect class="f" x="706" y="1339.3" width="3.5" height="29.06"/><path class="f" d="M964.6,1658v28.9h-3.5v-29.1h3.5Z" transform="translate(-249.6 -318.7)"/><path class="f" d="M969.5,1660.7v23.5a7.3,7.3,0,0,1-3.5,2.4v-28.2A7.2,7.2,0,0,1,969.5,1660.7Z" transform="translate(-249.6 -318.7)"/><path class="e" d="M970.2,1635.4v16.4a5.6,5.6,0,0,1-1.3,3.5,7.6,7.6,0,0,1-3.6,2.4l-1,.3H650c-3.4-.5-6-2.9-6.2-5.9v-17c.2-3.3,3.5-6,7.5-6H964l1.3.3h.4l.4.2.4.2.4.2.4.2.2.2h.1c0,.1.1.1.2.2l.5.5h.2v.2l.3.3A5.6,5.6,0,0,1,970.2,1635.4Z" transform="translate(-249.6 -318.7)"/><path class="f" d="M817.3,1658.1H649.7a6.6,6.6,0,0,1-5.9-6v-17a6.6,6.6,0,0,1,6.7-6H796.8c.1.2.1.5.2.7a51,51,0,0,0,20,28.1Z" transform="translate(-249.6 -318.7)"/><rect class="f" x="679.2" y="1310.4" width="3.5" height="29.06"/><rect class="f" x="667.2" y="1310.4" width="3.5" height="29.06"/><rect class="f" x="652.8" y="1310.4" width="3.5" height="29.06"/><rect class="f" x="630.8" y="1310.4" width="3.5" height="29.06"/><rect class="f" x="607.5" y="1310.4" width="3.5" height="29.06"/><rect class="f" x="571.8" y="1310.4" width="3.5" height="29.06"/><rect class="f" x="538.4" y="1310.4" width="3.5" height="29.06"/><rect class="f" x="508.6" y="1310.4" width="3.5" height="29.06"/><rect class="f" x="690.6" y="1310.4" width="3.5" height="29.06"/><rect class="f" x="698.1" y="1310.4" width="3.5" height="29.06"/><rect class="f" x="705.4" y="1310.4" width="3.5" height="29.06"/><path class="f" d="M964,1629.2V1658h-3.6v-29H964Z" transform="translate(-249.6 -318.7)"/><path class="f" d="M968.9,1631.9v23.4a7.6,7.6,0,0,1-3.6,2.4v-28.2A7.6,7.6,0,0,1,968.9,1631.9Z" transform="translate(-249.6 -318.7)"/><path class="e" d="M986.3,1607.1v16.4a5.6,5.6,0,0,1-1.3,3.5,7.6,7.6,0,0,1-3.6,2.4l-1.4.3H667.4a10.4,10.4,0,0,1-3.5-.7,6.5,6.5,0,0,1-4-5v-17.4c.2-3.3,3.5-6,7.5-6H980l1.4.4a7.5,7.5,0,0,1,3.6,2.3A5.9,5.9,0,0,1,986.3,1607.1Z" transform="translate(-249.6 -318.7)"/><path class="f" d="M833.4,1629.8H666.6a7.8,7.8,0,0,1-3.1-.7,6.3,6.3,0,0,1-3.6-5v-17.4a6.6,6.6,0,0,1,6.7-6H812.9a50.9,50.9,0,0,0,19.5,28.4Z" transform="translate(-249.6 -318.7)"/><rect class="f" x="695.2" y="1282.1" width="3.5" height="29.06"/><rect class="f" x="683.3" y="1282.1" width="3.5" height="29.06"/><rect class="f" x="668.9" y="1282.1" width="3.5" height="29.06"/><rect class="f" x="646.9" y="1282.1" width="3.5" height="29.06"/><rect class="f" x="623.6" y="1282.1" width="3.5" height="29.06"/><rect class="f" x="587.9" y="1282.1" width="3.5" height="29.06"/><rect class="f" x="554.5" y="1282.1" width="3.5" height="29.06"/><rect class="f" x="524.7" y="1282.1" width="3.5" height="29.06"/><rect class="f" x="706.6" y="1282.1" width="3.5" height="29.06"/><rect class="f" x="714.2" y="1282.1" width="3.5" height="29.06"/><rect class="f" x="721.4" y="1282.1" width="3.5" height="29.06"/><path class="f" d="M980,1600.8v28.9h-3.5v-29.1H980Z" transform="translate(-249.6 -318.7)"/><path class="f" d="M985,1603.5V1627a7.6,7.6,0,0,1-3.6,2.4v-28.2A7.5,7.5,0,0,1,985,1603.5Z" transform="translate(-249.6 -318.7)"/><path class="e" d="M1011.7,1578v16.4a5.6,5.6,0,0,1-1.3,3.5,7.9,7.9,0,0,1-3.5,2.4,3.5,3.5,0,0,1-1.4.3H692.8c-4,0-7.3-2.6-7.5-6v-17c.2-3.1,3.1-5.6,6.7-6h313.5a3.5,3.5,0,0,1,1.4.3,7.9,7.9,0,0,1,3.5,2.4A5.6,5.6,0,0,1,1011.7,1578Z" transform="translate(-249.6 -318.7)"/><path class="f" d="M858.8,1600.7H692a6.6,6.6,0,0,1-6.7-6v-17a6.6,6.6,0,0,1,5.9-6H838.4A50.1,50.1,0,0,0,858.8,1600.7Z" transform="translate(-249.6 -318.7)"/><rect class="f" x="720.7" y="1253" width="3.5" height="29.06"/><rect class="f" x="708.7" y="1253" width="3.5" height="29.06"/><rect class="f" x="694.3" y="1253" width="3.5" height="29.06"/><rect class="f" x="672.3" y="1253" width="3.5" height="29.06"/><rect class="f" x="649" y="1253" width="3.5" height="29.06"/><rect class="f" x="613.4" y="1253" width="3.5" height="29.06"/><rect class="f" x="579.9" y="1253" width="3.5" height="29.06"/><rect class="f" x="550.1" y="1253" width="3.5" height="29.06"/><rect class="f" x="732.1" y="1253" width="3.5" height="29.06"/><rect class="f" x="739.6" y="1253" width="3.5" height="29.06"/><rect class="f" x="746.9" y="1253" width="3.5" height="29.06"/><path class="f" d="M1005.5,1571.8v28.8H1002v-29h3.5Z" transform="translate(-249.6 -318.7)"/><path class="f" d="M1010.4,1574.5v23.4a7.9,7.9,0,0,1-3.5,2.4v-28.2A7.9,7.9,0,0,1,1010.4,1574.5Z" transform="translate(-249.6 -318.7)"/><path class="e" d="M970.8,1549v16.4a5.6,5.6,0,0,1-1.3,3.5,7.3,7.3,0,0,1-3.5,2.4l-1.4.3H652c-4,0-7.3-2.7-7.6-6v-17c.3-3.4,3.6-6,7.6-6H964.6a3.2,3.2,0,0,1,1.4.3l.6.2.4.2h.1l.4.2h0l.4.2.7.5c.1.1.2.1.2.2h.2l.2.2.3.3A6.1,6.1,0,0,1,970.8,1549Z" transform="translate(-249.6 -318.7)"/><path class="f" d="M817.9,1571.7H651.2a6.7,6.7,0,0,1-6.8-6v-17a6.6,6.6,0,0,1,6.8-6H797.5a1.4,1.4,0,0,0,.2.6,51,51,0,0,0,20.2,28.4Z" transform="translate(-249.6 -318.7)"/><rect class="f" x="679.8" y="1224" width="3.5" height="29.06"/><rect class="f" x="667.8" y="1224" width="3.5" height="29.06"/><rect class="f" x="653.5" y="1224" width="3.5" height="29.06"/><rect class="f" x="631.5" y="1224" width="3.5" height="29.06"/><rect class="f" x="608.2" y="1224" width="3.5" height="29.06"/><rect class="f" x="572.5" y="1224" width="3.5" height="29.06"/><rect class="f" x="539.1" y="1224" width="3.5" height="29.06"/><rect class="f" x="509.2" y="1224" width="3.5" height="29.06"/><rect class="f" x="691.2" y="1224" width="3.5" height="29.06"/><rect class="f" x="698.7" y="1224" width="3.5" height="29.06"/><rect class="f" x="706" y="1224" width="3.5" height="29.06"/><path class="f" d="M964.6,1542.8v28.8h-3.5v-29h3.5Z" transform="translate(-249.6 -318.7)"/><path class="f" d="M969.5,1545.4v23.5a7.3,7.3,0,0,1-3.5,2.4v-28.2A7.2,7.2,0,0,1,969.5,1545.4Z" transform="translate(-249.6 -318.7)"/><path class="e" d="M993.7,1520.6V1537a5.6,5.6,0,0,1-1.3,3.5,7.3,7.3,0,0,1-3.5,2.4,7,7,0,0,1-1.4.3H674.9a9.3,9.3,0,0,1-3.4-.6,6.4,6.4,0,0,1-4.1-5.1.4.4,0,0,1-.1-.3v-17c.2-3.1,3.1-5.6,6.7-6H987.5a3.5,3.5,0,0,1,1.4.3,7.3,7.3,0,0,1,3.5,2.4A5.6,5.6,0,0,1,993.7,1520.6Z" transform="translate(-249.6 -318.7)"/><path class="f" d="M840.8,1543.3H674.1a7.3,7.3,0,0,1-3-.6,6.3,6.3,0,0,1-3.7-5.1.4.4,0,0,1-.1-.3v-17a6.6,6.6,0,0,1,6-6H820.4a50.8,50.8,0,0,0,19.5,28.4Z" transform="translate(-249.6 -318.7)"/><rect class="f" x="702.7" y="1195.6" width="3.5" height="29.06"/><rect class="f" x="690.7" y="1195.6" width="3.5" height="29.06"/><rect class="f" x="676.4" y="1195.6" width="3.5" height="29.06"/><rect class="f" x="654.3" y="1195.6" width="3.5" height="29.06"/><rect class="f" x="631.1" y="1195.6" width="3.5" height="29.06"/><rect class="f" x="595.4" y="1195.6" width="3.5" height="29.06"/><rect class="f" x="562" y="1195.6" width="3.5" height="29.06"/><rect class="f" x="532.1" y="1195.6" width="3.5" height="29.06"/><rect class="f" x="714.1" y="1195.6" width="3.5" height="29.06"/><rect class="f" x="721.6" y="1195.6" width="3.5" height="29.06"/><rect class="f" x="728.9" y="1195.6" width="3.5" height="29.06"/><path class="f" d="M987.5,1514.4v28.8H984v-29h3.5Z" transform="translate(-249.6 -318.7)"/><path class="f" d="M992.4,1517.1v23.4a7.3,7.3,0,0,1-3.5,2.4v-28.2A7.3,7.3,0,0,1,992.4,1517.1Z" transform="translate(-249.6 -318.7)"/><path class="e" d="M1003.5,1491.6V1508a5.6,5.6,0,0,1-1.3,3.5,7.6,7.6,0,0,1-3.6,2.4l-1.4.3H684.6c-4,0-7.3-2.7-7.5-6v-17.1c.2-3.3,3.5-6,7.5-6H997.2l1.4.4a7.5,7.5,0,0,1,3.6,2.3A5.9,5.9,0,0,1,1003.5,1491.6Z" transform="translate(-249.6 -318.7)"/><path class="f" d="M850.6,1514.3H683.8a6.6,6.6,0,0,1-6.7-6v-17.1a6.6,6.6,0,0,1,6.7-6H830.1a51.1,51.1,0,0,0,20.4,29.1Z" transform="translate(-249.6 -318.7)"/><rect class="f" x="712.4" y="1166.6" width="3.5" height="29.06"/><rect class="f" x="700.5" y="1166.6" width="3.5" height="29.06"/><rect class="f" x="686.1" y="1166.6" width="3.5" height="29.06"/><rect class="f" x="664.1" y="1166.6" width="3.5" height="29.06"/><rect class="f" x="640.8" y="1166.6" width="3.5" height="29.06"/><rect class="f" x="605.1" y="1166.6" width="3.5" height="29.06"/><rect class="f" x="571.7" y="1166.6" width="3.5" height="29.06"/><rect class="f" x="541.9" y="1166.6" width="3.5" height="29.06"/><rect class="f" x="723.8" y="1166.6" width="3.5" height="29.06"/><rect class="f" x="731.4" y="1166.6" width="3.5" height="29.06"/><rect class="f" x="738.6" y="1166.6" width="3.5" height="29.06"/><path class="f" d="M997.2,1485.3v28.9h-3.5v-29.1h3.5Z" transform="translate(-249.6 -318.7)"/><path class="f" d="M1002.2,1488v23.5a7.6,7.6,0,0,1-3.6,2.4v-28.2A7.5,7.5,0,0,1,1002.2,1488Z" transform="translate(-249.6 -318.7)"/><circle class="g" cx="659" cy="1654.6" r="148" transform="translate(-1226.6 632) rotate(-45)"/><circle class="e" cx="646.1" cy="1654.6" r="148" transform="translate(-1230.3 622.8) rotate(-45)"/><path class="f" d="M646.1,1791.2a134.9,134.9,0,1,1,95.3-39.5A134.2,134.2,0,0,1,646.1,1791.2Zm0-261.6c-69.9,0-126.8,56.9-126.8,126.8s56.9,126.7,126.8,126.7,126.8-56.8,126.8-126.7S716,1529.6,646.1,1529.6Z" transform="translate(-249.6 -318.7)"/><path class="f" d="M664.7,1695.5a24.8,24.8,0,0,0-.3-7.8,15.7,15.7,0,0,0-3.4-6.5,27.6,27.6,0,0,0-6.6-5.9,71.5,71.5,0,0,0-10.2-5.7c-7-3.5-13.3-6.9-19-10.4a69.3,69.3,0,0,1-14.1-11.6,39.4,39.4,0,0,1-8.4-14c-1.8-5.2-2.2-11.2-1.4-18a39.7,39.7,0,0,1,5-15.7,37.3,37.3,0,0,1,10.4-11.6,47.3,47.3,0,0,1,15-7.1,62,62,0,0,1,18.7-2.2l2.6-22.2,17.9,2.1-2.7,22.6a54.5,54.5,0,0,1,16.9,7.1,43.2,43.2,0,0,1,12.1,11.6,43.7,43.7,0,0,1,6.7,15.4,54.7,54.7,0,0,1,.7,19.1l-32.3-3.8c1-8.3-.1-14.7-3.3-19.3s-7.9-7.2-14.1-7.9a25.3,25.3,0,0,0-8.8.3,16.1,16.1,0,0,0-6.4,3.2,14.6,14.6,0,0,0-4.2,5.3,23.2,23.2,0,0,0-1.9,7.1,20.3,20.3,0,0,0,.2,7,15.7,15.7,0,0,0,3.2,6.3,33.3,33.3,0,0,0,6.7,5.8,102.8,102.8,0,0,0,10.7,6.2c6.9,3.5,13.1,7.1,18.7,10.6a69.3,69.3,0,0,1,14.1,11.6,40.7,40.7,0,0,1,8.3,14.1,44.6,44.6,0,0,1-3.6,33.9,36.2,36.2,0,0,1-10.5,11.5,44.5,44.5,0,0,1-15.1,6.9,69.3,69.3,0,0,1-18.7,2l-2.5,20.6-17.8-2.1,2.5-20.5a82.8,82.8,0,0,1-17.5-6.2,49.5,49.5,0,0,1-14.3-10.8,42.1,42.1,0,0,1-8.9-16.1q-3-9.5-1.5-21.9l32.3,3.9a31.3,31.3,0,0,0,.6,12.5,20.9,20.9,0,0,0,4.6,8.6,20.4,20.4,0,0,0,7.4,5.1,33.4,33.4,0,0,0,8.8,2.2,32.3,32.3,0,0,0,9.4-.2,19.8,19.8,0,0,0,7.1-3,15.6,15.6,0,0,0,4.7-5.2A19.3,19.3,0,0,0,664.7,1695.5Z" transform="translate(-249.6 -318.7)"/><path class="h" d="M934.5,1304.2s-18,25.2-34.4,25.6-41.5-11.7-41.5-11.7-15.1-33.7-4.8-46.8c0,0,10.2-4.5,21,3.4a33.8,33.8,0,0,1,5.5,5.3,17.2,17.2,0,0,0,8.7,5.9c11.7,3.6,25.6-4.8,30.8,3.3a58.3,58.3,0,0,0,9.1,10.7A37.5,37.5,0,0,0,934.5,1304.2Z" transform="translate(-249.6 -318.7)"/><path class="h" d="M700.6,1486.4s63.4-153.7,177.5-156.6c0,0,105.4,11.7,111.2,156.6Z" transform="translate(-249.6 -318.7)"/><path class="i" d="M846.9,1334.5s45.7,10.2,59.8,4.2c0,0,2.2-19.2-17.1-16.5-13.2,1.9-21.8-4.5-26.8-7C855.6,1311.5,845,1326.5,846.9,1334.5Z" transform="translate(-249.6 -318.7)"/><path class="j" d="M886.7,1305.6c-2.9,2.2-11.9-30.9-11.9-30.9a33.8,33.8,0,0,1,5.5,5.3,17.2,17.2,0,0,0,8.7,5.9C889,1286.9,889.5,1303.5,886.7,1305.6Z" transform="translate(-249.6 -318.7)"/><path class="j" d="M928.9,1299.9c-.6.4-21.8,13.1-24.7,13.1s15.6-23.8,15.6-23.8A58.3,58.3,0,0,0,928.9,1299.9Z" transform="translate(-249.6 -318.7)"/><path class="k" d="M762.5,1443.4c-1.1-1,44.9-67.8,57.6-68.2s41.2,14.6,61.8,16.5,40.6-3.9,44.5,8.3,14.7,55.5,8.1,62.4S787.9,1465.1,762.5,1443.4Z" transform="translate(-249.6 -318.7)"/><path class="e" d="M2756.7,1786.5v11.2a4.1,4.1,0,0,1-.8,2.4,4.7,4.7,0,0,1-2.5,1.6l-.9.3h-214c-2.7,0-5-1.8-5.1-4.1v-11.6c.1-2.3,2.4-4.2,5.1-4.2h214l.9.2a5.6,5.6,0,0,1,2.5,1.7A3.8,3.8,0,0,1,2756.7,1786.5Z" transform="translate(-249.6 -318.7)"/><path class="f" d="M2652.1,1802H2538a4.4,4.4,0,0,1-4.6-4.1v-11.6a4.5,4.5,0,0,1,4.6-4.2h100.1A34.6,34.6,0,0,0,2652.1,1802Z" transform="translate(-249.6 -318.7)"/><rect class="f" x="2478.8" y="1463.5" width="2.4" height="19.89"/><rect class="f" x="2470.6" y="1463.5" width="2.4" height="19.89"/><rect class="f" x="2460.8" y="1463.5" width="2.4" height="19.89"/><rect class="f" x="2445.7" y="1463.5" width="2.4" height="19.89"/><rect class="f" x="2429.8" y="1463.5" width="2.4" height="19.89"/><rect class="f" x="2405.3" y="1463.5" width="2.4" height="19.89"/><rect class="f" x="2382.5" y="1463.5" width="2.4" height="19.89"/><rect class="f" x="2362" y="1463.5" width="2.4" height="19.89"/><rect class="f" x="2486.6" y="1463.5" width="2.4" height="19.89"/><rect class="f" x="2491.8" y="1463.5" width="2.4" height="19.89"/><rect class="f" x="2496.7" y="1463.5" width="2.4" height="19.89"/><path class="f" d="M2752.5,1782.2V1802h-2.4v-19.9h2.4Z" transform="translate(-249.6 -318.7)"/><path class="f" d="M2755.9,1784.1v16a4.7,4.7,0,0,1-2.5,1.6v-19.3A5.6,5.6,0,0,1,2755.9,1784.1Z" transform="translate(-249.6 -318.7)"/><path class="e" d="M2734,1766.6v11.2a4.2,4.2,0,0,1-.9,2.4,5.9,5.9,0,0,1-2.4,1.7l-1,.2h-214c-2.7,0-5-1.8-5.1-4.1v-11.6c.1-2.3,2.4-4.1,5.1-4.1h214l1,.2h1l.3.2h.3l.4.3h.1c0,.1,0,.1.1.1l.2.3A4.2,4.2,0,0,1,2734,1766.6Z" transform="translate(-249.6 -318.7)"/><path class="f" d="M2629.3,1782.1H2515.2a4.4,4.4,0,0,1-4.6-4.1v-11.6a4.4,4.4,0,0,1,4.6-4.1h100.1a.6.6,0,0,1,.1.4A34.7,34.7,0,0,0,2629.3,1782.1Z" transform="translate(-249.6 -318.7)"/><rect class="f" x="2456" y="1443.6" width="2.4" height="19.89"/><rect class="f" x="2447.8" y="1443.6" width="2.4" height="19.89"/><rect class="f" x="2438" y="1443.6" width="2.4" height="19.89"/><rect class="f" x="2422.9" y="1443.6" width="2.4" height="19.89"/><rect class="f" x="2407" y="1443.6" width="2.4" height="19.89"/><rect class="f" x="2382.6" y="1443.6" width="2.4" height="19.89"/><rect class="f" x="2359.7" y="1443.6" width="2.4" height="19.89"/><rect class="f" x="2339.3" y="1443.6" width="2.4" height="19.89"/><rect class="f" x="2463.8" y="1443.6" width="2.4" height="19.89"/><rect class="f" x="2469" y="1443.6" width="2.4" height="19.89"/><rect class="f" x="2473.9" y="1443.6" width="2.4" height="19.89"/><path class="f" d="M2729.7,1762.3v19.8h-2.4v-19.8h2.4Z" transform="translate(-249.6 -318.7)"/><path class="f" d="M2733.1,1764.2v16a5.9,5.9,0,0,1-2.4,1.7v-19.4A5.9,5.9,0,0,1,2733.1,1764.2Z" transform="translate(-249.6 -318.7)"/><path class="e" d="M2745,1747.2v11.2a4.2,4.2,0,0,1-.9,2.4,5.9,5.9,0,0,1-2.4,1.7l-1,.2h-214a5.9,5.9,0,0,1-2.3-.4,4.7,4.7,0,0,1-2.8-3.5V1747c.1-2.3,2.4-4.1,5.1-4.1h214l1,.2a5.9,5.9,0,0,1,2.4,1.7A4.2,4.2,0,0,1,2745,1747.2Z" transform="translate(-249.6 -318.7)"/><path class="f" d="M2640.3,1762.7H2526.2a4.6,4.6,0,0,1-2.1-.4,4.5,4.5,0,0,1-2.5-3.5V1747a4.4,4.4,0,0,1,4.6-4.1h100.1a35.4,35.4,0,0,0,13.3,19.4Z" transform="translate(-249.6 -318.7)"/><rect class="f" x="2467" y="1424.2" width="2.4" height="19.89"/><rect class="f" x="2458.8" y="1424.2" width="2.4" height="19.89"/><rect class="f" x="2449" y="1424.2" width="2.4" height="19.89"/><rect class="f" x="2433.9" y="1424.2" width="2.4" height="19.89"/><rect class="f" x="2418" y="1424.2" width="2.4" height="19.89"/><rect class="f" x="2393.6" y="1424.2" width="2.4" height="19.89"/><rect class="f" x="2370.7" y="1424.2" width="2.4" height="19.89"/><rect class="f" x="2350.3" y="1424.2" width="2.4" height="19.89"/><rect class="f" x="2474.8" y="1424.2" width="2.4" height="19.89"/><rect class="f" x="2480" y="1424.2" width="2.4" height="19.89"/><rect class="f" x="2485" y="1424.2" width="2.4" height="19.89"/><path class="f" d="M2740.7,1742.9v19.8h-2.4v-19.8h2.4Z" transform="translate(-249.6 -318.7)"/><path class="f" d="M2744.1,1744.8v16a5.9,5.9,0,0,1-2.4,1.7v-19.4A5.9,5.9,0,0,1,2744.1,1744.8Z" transform="translate(-249.6 -318.7)"/><path class="e" d="M2750.1,1727.3v11.2a4.2,4.2,0,0,1-.9,2.4,5.3,5.3,0,0,1-2.4,1.7l-1,.2h-214c-2.7,0-5-1.9-5.1-4.2v-11.6c.1-2.1,2.1-3.9,4.5-4.1h214.6l1,.3a4.5,4.5,0,0,1,2.4,1.6A4.2,4.2,0,0,1,2750.1,1727.3Z" transform="translate(-249.6 -318.7)"/><path class="f" d="M2645.4,1742.9H2531.3a4.5,4.5,0,0,1-4.6-4.2v-11.6a4.4,4.4,0,0,1,4-4.1h100.7A35.7,35.7,0,0,0,2645.4,1742.9Z" transform="translate(-249.6 -318.7)"/><rect class="f" x="2472.1" y="1404.3" width="2.4" height="19.89"/><rect class="f" x="2463.9" y="1404.3" width="2.4" height="19.89"/><rect class="f" x="2454.1" y="1404.3" width="2.4" height="19.89"/><rect class="f" x="2439" y="1404.3" width="2.4" height="19.89"/><rect class="f" x="2423.1" y="1404.3" width="2.4" height="19.89"/><rect class="f" x="2398.7" y="1404.3" width="2.4" height="19.89"/><rect class="f" x="2375.8" y="1404.3" width="2.4" height="19.89"/><rect class="f" x="2355.4" y="1404.3" width="2.4" height="19.89"/><rect class="f" x="2479.9" y="1404.3" width="2.4" height="19.89"/><rect class="f" x="2485.1" y="1404.3" width="2.4" height="19.89"/><rect class="f" x="2490.1" y="1404.3" width="2.4" height="19.89"/><path class="f" d="M2745.8,1723v19.8h-2.4V1723h2.4Z" transform="translate(-249.6 -318.7)"/><path class="f" d="M2749.2,1724.9v16a5.3,5.3,0,0,1-2.4,1.7v-19.3A4.5,4.5,0,0,1,2749.2,1724.9Z" transform="translate(-249.6 -318.7)"/><path class="e" d="M2734.4,1707.4v11.3a3.6,3.6,0,0,1-.9,2.4,5.1,5.1,0,0,1-2.4,1.6l-.9.2h-214c-2.8,0-5-1.8-5.2-4.1V1707a4.8,4.8,0,0,1,3.9-3.8h215.3l.9.2a5.1,5.1,0,0,1,2.4,1.6A3.6,3.6,0,0,1,2734.4,1707.4Z" transform="translate(-249.6 -318.7)"/><path class="f" d="M2629.8,1723H2515.6a4.6,4.6,0,0,1-4.6-4.1V1707a4.6,4.6,0,0,1,3.6-3.8h101.2a34.6,34.6,0,0,0,13.9,19.8Z" transform="translate(-249.6 -318.7)"/><rect class="f" x="2456.5" y="1384.4" width="2.4" height="19.89"/><rect class="f" x="2448.3" y="1384.4" width="2.4" height="19.89"/><rect class="f" x="2438.4" y="1384.4" width="2.4" height="19.89"/><rect class="f" x="2423.4" y="1384.4" width="2.4" height="19.89"/><rect class="f" x="2407.4" y="1384.4" width="2.4" height="19.89"/><rect class="f" x="2383" y="1384.4" width="2.4" height="19.89"/><rect class="f" x="2360.1" y="1384.4" width="2.4" height="19.89"/><rect class="f" x="2339.7" y="1384.4" width="2.4" height="19.89"/><rect class="f" x="2464.3" y="1384.4" width="2.4" height="19.89"/><rect class="f" x="2469.4" y="1384.4" width="2.4" height="19.89"/><rect class="f" x="2474.4" y="1384.4" width="2.4" height="19.89"/><path class="f" d="M2730.2,1703.2v19.7h-2.5v-19.9h2.5Z" transform="translate(-249.6 -318.7)"/><path class="f" d="M2733.5,1705v16.1a5.1,5.1,0,0,1-2.4,1.6v-19.3A5.1,5.1,0,0,1,2733.5,1705Z" transform="translate(-249.6 -318.7)"/><path class="e" d="M2734,1687.7v11.2a4.2,4.2,0,0,1-.9,2.4,5.9,5.9,0,0,1-2.4,1.7H2514.8c-2.3-.4-4.1-2-4.2-4.1v-11.6c.1-2.3,2.4-4.1,5.1-4.1h214l1,.2c0,.1,0,.1.1.1h.4l.3.2h.2l.3.2h.3l.4.3a.1.1,0,0,0,.1.1h.1l.2.3A4.2,4.2,0,0,1,2734,1687.7Z" transform="translate(-249.6 -318.7)"/><path class="f" d="M2629.3,1703.2H2514.6a4.4,4.4,0,0,1-4-4.1v-11.6a4.4,4.4,0,0,1,4.6-4.1h100.1a.6.6,0,0,1,.1.4,35.2,35.2,0,0,0,13.7,19.3Z" transform="translate(-249.6 -318.7)"/><rect class="f" x="2456" y="1364.7" width="2.4" height="19.89"/><rect class="f" x="2447.8" y="1364.7" width="2.4" height="19.89"/><rect class="f" x="2438" y="1364.7" width="2.4" height="19.89"/><rect class="f" x="2422.9" y="1364.7" width="2.4" height="19.89"/><rect class="f" x="2407" y="1364.7" width="2.4" height="19.89"/><rect class="f" x="2382.6" y="1364.7" width="2.4" height="19.89"/><rect class="f" x="2359.7" y="1364.7" width="2.4" height="19.89"/><rect class="f" x="2339.3" y="1364.7" width="2.4" height="19.89"/><rect class="f" x="2463.8" y="1364.7" width="2.4" height="19.89"/><rect class="f" x="2469" y="1364.7" width="2.4" height="19.89"/><rect class="f" x="2473.9" y="1364.7" width="2.4" height="19.89"/><path class="f" d="M2729.7,1683.4v19.8h-2.4v-19.8h2.4Z" transform="translate(-249.6 -318.7)"/><path class="f" d="M2733.1,1685.3v16a5.9,5.9,0,0,1-2.4,1.7v-19.4A5.9,5.9,0,0,1,2733.1,1685.3Z" transform="translate(-249.6 -318.7)"/><path class="e" d="M2745,1668.3v11.2a4.2,4.2,0,0,1-.9,2.4,4.9,4.9,0,0,1-2.4,1.6l-1,.3h-214a5.9,5.9,0,0,1-2.3-.4,4.7,4.7,0,0,1-2.8-3.5v-11.8c.1-2.3,2.4-4.2,5.1-4.2h214l1,.2a5.9,5.9,0,0,1,2.4,1.7A4.2,4.2,0,0,1,2745,1668.3Z" transform="translate(-249.6 -318.7)"/><path class="f" d="M2640.3,1683.8H2526.2a4.6,4.6,0,0,1-2.1-.4,4.5,4.5,0,0,1-2.5-3.5v-11.8a4.5,4.5,0,0,1,4.6-4.2h100.1a35.3,35.3,0,0,0,13.3,19.5Z" transform="translate(-249.6 -318.7)"/><rect class="f" x="2467" y="1345.3" width="2.4" height="19.89"/><rect class="f" x="2458.8" y="1345.3" width="2.4" height="19.89"/><rect class="f" x="2449" y="1345.3" width="2.4" height="19.89"/><rect class="f" x="2433.9" y="1345.3" width="2.4" height="19.89"/><rect class="f" x="2418" y="1345.3" width="2.4" height="19.89"/><rect class="f" x="2393.6" y="1345.3" width="2.4" height="19.89"/><rect class="f" x="2370.7" y="1345.3" width="2.4" height="19.89"/><rect class="f" x="2350.3" y="1345.3" width="2.4" height="19.89"/><rect class="f" x="2474.8" y="1345.3" width="2.4" height="19.89"/><rect class="f" x="2480" y="1345.3" width="2.4" height="19.89"/><rect class="f" x="2485" y="1345.3" width="2.4" height="19.89"/><path class="f" d="M2740.7,1664v19.8h-2.4V1664h2.4Z" transform="translate(-249.6 -318.7)"/><path class="f" d="M2744.1,1665.9v16a4.9,4.9,0,0,1-2.4,1.6v-19.3A5.9,5.9,0,0,1,2744.1,1665.9Z" transform="translate(-249.6 -318.7)"/><path class="e" d="M2762.4,1648.4v11.2a3.6,3.6,0,0,1-.9,2.4,5.3,5.3,0,0,1-2.4,1.7l-1,.2h-214c-2.7,0-5-1.8-5.1-4.1v-11.6c.1-2.1,2.1-3.9,4.5-4.1h214.6l1,.2a5.3,5.3,0,0,1,2.4,1.7A3.6,3.6,0,0,1,2762.4,1648.4Z" transform="translate(-249.6 -318.7)"/><path class="f" d="M2657.7,1663.9H2543.6a4.4,4.4,0,0,1-4.6-4.1v-11.6a4.5,4.5,0,0,1,4.1-4.1h100.6A35.2,35.2,0,0,0,2657.7,1663.9Z" transform="translate(-249.6 -318.7)"/><rect class="f" x="2484.4" y="1325.4" width="2.4" height="19.89"/><rect class="f" x="2476.2" y="1325.4" width="2.4" height="19.89"/><rect class="f" x="2466.4" y="1325.4" width="2.4" height="19.89"/><rect class="f" x="2451.3" y="1325.4" width="2.4" height="19.89"/><rect class="f" x="2435.4" y="1325.4" width="2.4" height="19.89"/><rect class="f" x="2411" y="1325.4" width="2.4" height="19.89"/><rect class="f" x="2388.1" y="1325.4" width="2.4" height="19.89"/><rect class="f" x="2367.7" y="1325.4" width="2.4" height="19.89"/><rect class="f" x="2492.2" y="1325.4" width="2.4" height="19.89"/><rect class="f" x="2497.4" y="1325.4" width="2.4" height="19.89"/><rect class="f" x="2502.4" y="1325.4" width="2.4" height="19.89"/><path class="f" d="M2758.1,1644.1v19.8h-2.4v-19.8h2.4Z" transform="translate(-249.6 -318.7)"/><path class="f" d="M2761.5,1646v16a5.3,5.3,0,0,1-2.4,1.7v-19.4A5.3,5.3,0,0,1,2761.5,1646Z" transform="translate(-249.6 -318.7)"/><path class="e" d="M2734.4,1628.5v11.3a3.6,3.6,0,0,1-.9,2.4,5.1,5.1,0,0,1-2.4,1.6l-.9.2h-214c-2.8,0-5-1.8-5.2-4.1v-11.7c.2-2.3,2.4-4.1,5.2-4.1h214l.9.2a.5.5,0,0,1,.4.2h.9l.5.4h.3c0,.1.1.1.1.2l.2.2A3.6,3.6,0,0,1,2734.4,1628.5Z" transform="translate(-249.6 -318.7)"/><path class="f" d="M2629.8,1644.1H2515.6a4.6,4.6,0,0,1-4.6-4.1v-11.7a4.6,4.6,0,0,1,4.6-4.1h100.2a1.1,1.1,0,0,0,.1.5,34.6,34.6,0,0,0,13.8,19.4Z" transform="translate(-249.6 -318.7)"/><rect class="f" x="2456.5" y="1305.5" width="2.4" height="19.89"/><rect class="f" x="2448.3" y="1305.5" width="2.4" height="19.89"/><rect class="f" x="2438.4" y="1305.5" width="2.4" height="19.89"/><rect class="f" x="2423.4" y="1305.5" width="2.4" height="19.89"/><rect class="f" x="2407.4" y="1305.5" width="2.4" height="19.89"/><rect class="f" x="2383" y="1305.5" width="2.4" height="19.89"/><rect class="f" x="2360.1" y="1305.5" width="2.4" height="19.89"/><rect class="f" x="2339.7" y="1305.5" width="2.4" height="19.89"/><rect class="f" x="2464.3" y="1305.5" width="2.4" height="19.89"/><rect class="f" x="2469.4" y="1305.5" width="2.4" height="19.89"/><rect class="f" x="2474.4" y="1305.5" width="2.4" height="19.89"/><path class="f" d="M2730.2,1624.3V1644h-2.5v-19.9h2.5Z" transform="translate(-249.6 -318.7)"/><path class="f" d="M2733.5,1626.1v16.1a5.1,5.1,0,0,1-2.4,1.6v-19.3A5.1,5.1,0,0,1,2733.5,1626.1Z" transform="translate(-249.6 -318.7)"/><path class="e" d="M2750.1,1609.1v11.2a3.9,3.9,0,0,1-.9,2.4,5.3,5.3,0,0,1-2.4,1.7l-1,.2h-214a5.9,5.9,0,0,1-2.3-.5,4.7,4.7,0,0,1-2.8-3.5h0v-11.7c.1-2.1,2.1-3.9,4.5-4.1h214.6l1,.3a5.1,5.1,0,0,1,2.4,1.6A4.2,4.2,0,0,1,2750.1,1609.1Z" transform="translate(-249.6 -318.7)"/><path class="f" d="M2645.4,1624.7H2531.3a5,5,0,0,1-2.1-.5,4.5,4.5,0,0,1-2.5-3.5h0v-11.7a4.4,4.4,0,0,1,4-4.1h100.7a35.3,35.3,0,0,0,13.4,19.4Z" transform="translate(-249.6 -318.7)"/><rect class="f" x="2472.1" y="1286.1" width="2.4" height="19.89"/><rect class="f" x="2463.9" y="1286.1" width="2.4" height="19.89"/><rect class="f" x="2454.1" y="1286.1" width="2.4" height="19.89"/><rect class="f" x="2439" y="1286.1" width="2.4" height="19.89"/><rect class="f" x="2423.1" y="1286.1" width="2.4" height="19.89"/><rect class="f" x="2398.7" y="1286.1" width="2.4" height="19.89"/><rect class="f" x="2375.8" y="1286.1" width="2.4" height="19.89"/><rect class="f" x="2355.4" y="1286.1" width="2.4" height="19.89"/><rect class="f" x="2479.9" y="1286.1" width="2.4" height="19.89"/><rect class="f" x="2485.1" y="1286.1" width="2.4" height="19.89"/><rect class="f" x="2490.1" y="1286.1" width="2.4" height="19.89"/><path class="f" d="M2745.8,1604.8v19.8h-2.4v-19.9h2.4Z" transform="translate(-249.6 -318.7)"/><path class="f" d="M2749.2,1606.7v16a5.3,5.3,0,0,1-2.4,1.7v-19.3A4.5,4.5,0,0,1,2749.2,1606.7Z" transform="translate(-249.6 -318.7)"/><path class="e" d="M2756.7,1589.2v11.3a4.1,4.1,0,0,1-.8,2.4,5.4,5.4,0,0,1-2.5,1.6l-.9.2h-214c-2.7,0-5-1.8-5.1-4.1V1589c.1-2.3,2.4-4.1,5.1-4.1h214l.9.2a5.4,5.4,0,0,1,2.5,1.6A4.1,4.1,0,0,1,2756.7,1589.2Z" transform="translate(-249.6 -318.7)"/><path class="f" d="M2652.1,1604.8H2538a4.4,4.4,0,0,1-4.6-4.1V1589a4.4,4.4,0,0,1,4.6-4.1h100.1a34.9,34.9,0,0,0,14,19.9Z" transform="translate(-249.6 -318.7)"/><rect class="f" x="2478.8" y="1266.2" width="2.4" height="19.89"/><rect class="f" x="2470.6" y="1266.2" width="2.4" height="19.89"/><rect class="f" x="2460.8" y="1266.2" width="2.4" height="19.89"/><rect class="f" x="2445.7" y="1266.2" width="2.4" height="19.89"/><rect class="f" x="2429.8" y="1266.2" width="2.4" height="19.89"/><rect class="f" x="2405.3" y="1266.2" width="2.4" height="19.89"/><rect class="f" x="2382.5" y="1266.2" width="2.4" height="19.89"/><rect class="f" x="2362" y="1266.2" width="2.4" height="19.89"/><rect class="f" x="2486.6" y="1266.2" width="2.4" height="19.89"/><rect class="f" x="2491.8" y="1266.2" width="2.4" height="19.89"/><rect class="f" x="2496.7" y="1266.2" width="2.4" height="19.89"/><path class="f" d="M2752.5,1585v19.7h-2.4v-19.9h2.4Z" transform="translate(-249.6 -318.7)"/><path class="f" d="M2755.9,1586.8v16.1a5.4,5.4,0,0,1-2.5,1.6v-19.3A5.4,5.4,0,0,1,2755.9,1586.8Z" transform="translate(-249.6 -318.7)"/><path class="e" d="M2484.2,1785.1v12.3a4.5,4.5,0,0,1-1,2.7,6.1,6.1,0,0,1-2.6,1.8l-1.1.2H2243.7c-3.1,0-5.6-2-5.7-4.5v-12.9c.1-2.5,2.6-4.5,5.7-4.5h235.8l1.1.2a6.1,6.1,0,0,1,2.6,1.8A4.5,4.5,0,0,1,2484.2,1785.1Z" transform="translate(-249.6 -318.7)"/><path class="f" d="M2368.9,1802.2H2243a4.9,4.9,0,0,1-5-4.5v-12.9a4.9,4.9,0,0,1,5-4.5h110.4A38.6,38.6,0,0,0,2368.9,1802.2Z" transform="translate(-249.6 -318.7)"/><rect class="f" x="2203.4" y="1461.6" width="2.7" height="21.93"/><rect class="f" x="2194.3" y="1461.6" width="2.7" height="21.93"/><rect class="f" x="2183.5" y="1461.6" width="2.7" height="21.93"/><rect class="f" x="2166.9" y="1461.6" width="2.7" height="21.93"/><rect class="f" x="2149.3" y="1461.6" width="2.7" height="21.93"/><rect class="f" x="2122.4" y="1461.6" width="2.7" height="21.93"/><rect class="f" x="2097.2" y="1461.6" width="2.7" height="21.93"/><rect class="f" x="2074.7" y="1461.6" width="2.7" height="21.93"/><rect class="f" x="2212" y="1461.6" width="2.7" height="21.93"/><rect class="f" x="2217.6" y="1461.6" width="2.7" height="21.93"/><rect class="f" x="2223.1" y="1461.6" width="2.7" height="21.93"/><path class="f" d="M2479.5,1780.4v21.7h-2.7v-21.9h2.7Z" transform="translate(-249.6 -318.7)"/><path class="f" d="M2483.2,1782.4v17.7a6.1,6.1,0,0,1-2.6,1.8v-21.3A6.1,6.1,0,0,1,2483.2,1782.4Z" transform="translate(-249.6 -318.7)"/><path class="e" d="M2459.1,1763.1v12.4a4.5,4.5,0,0,1-1,2.7,5.9,5.9,0,0,1-2.7,1.8l-1,.2H2218.5c-3,0-5.5-2-5.6-4.5v-12.9c.1-2.5,2.6-4.5,5.6-4.5h235.9l1,.3h.9l.3.2.3.2h.4a.8.8,0,0,0,.4.4h.2l.2.3A4,4,0,0,1,2459.1,1763.1Z" transform="translate(-249.6 -318.7)"/><path class="f" d="M2343.8,1780.3H2217.9a4.9,4.9,0,0,1-5-4.5v-12.9a4.9,4.9,0,0,1,5-4.5h110.4c.1.1.1.3.2.5A37.9,37.9,0,0,0,2343.8,1780.3Z" transform="translate(-249.6 -318.7)"/><rect class="f" x="2178.2" y="1439.7" width="2.7" height="21.92"/><rect class="f" x="2169.2" y="1439.7" width="2.7" height="21.92"/><rect class="f" x="2158.4" y="1439.7" width="2.7" height="21.92"/><rect class="f" x="2141.8" y="1439.7" width="2.7" height="21.92"/><rect class="f" x="2124.2" y="1439.7" width="2.7" height="21.92"/><rect class="f" x="2097.3" y="1439.7" width="2.7" height="21.92"/><rect class="f" x="2072.1" y="1439.7" width="2.7" height="21.92"/><rect class="f" x="2049.6" y="1439.7" width="2.7" height="21.92"/><rect class="f" x="2186.8" y="1439.7" width="2.7" height="21.92"/><rect class="f" x="2192.5" y="1439.7" width="2.7" height="21.92"/><rect class="f" x="2198" y="1439.7" width="2.7" height="21.92"/><path class="f" d="M2454.4,1758.4v21.8h-2.7v-21.9h2.7Z" transform="translate(-249.6 -318.7)"/><path class="f" d="M2458.1,1760.5v17.7a5.9,5.9,0,0,1-2.7,1.8v-21.3A5.2,5.2,0,0,1,2458.1,1760.5Z" transform="translate(-249.6 -318.7)"/><path class="e" d="M2471.2,1741.7v12.4a3.9,3.9,0,0,1-1,2.7,5.5,5.5,0,0,1-2.6,1.8l-1.1.2H2230.7a6.7,6.7,0,0,1-2.6-.5,5.1,5.1,0,0,1-3.1-3.8v-13.1c.2-2.5,2.6-4.5,5.7-4.5h235.8l1.1.2a5.5,5.5,0,0,1,2.6,1.8A3.7,3.7,0,0,1,2471.2,1741.7Z" transform="translate(-249.6 -318.7)"/><path class="f" d="M2355.9,1758.9H2230.1a6,6,0,0,1-2.4-.5,5,5,0,0,1-2.7-3.8v-13.1a5,5,0,0,1,5.1-4.5h110.3a39.1,39.1,0,0,0,14.7,21.4Z" transform="translate(-249.6 -318.7)"/><rect class="f" x="2190.4" y="1418.3" width="2.7" height="21.93"/><rect class="f" x="2181.3" y="1418.3" width="2.7" height="21.93"/><rect class="f" x="2170.5" y="1418.3" width="2.7" height="21.93"/><rect class="f" x="2153.9" y="1418.3" width="2.7" height="21.93"/><rect class="f" x="2136.3" y="1418.3" width="2.7" height="21.93"/><rect class="f" x="2109.4" y="1418.3" width="2.7" height="21.93"/><rect class="f" x="2084.2" y="1418.3" width="2.7" height="21.93"/><rect class="f" x="2061.7" y="1418.3" width="2.7" height="21.93"/><rect class="f" x="2199" y="1418.3" width="2.7" height="21.93"/><rect class="f" x="2204.7" y="1418.3" width="2.7" height="21.93"/><rect class="f" x="2210.1" y="1418.3" width="2.7" height="21.93"/><path class="f" d="M2466.5,1737.1v21.7h-2.6V1737h2.6Z" transform="translate(-249.6 -318.7)"/><path class="f" d="M2470.2,1739.1v17.7a5.5,5.5,0,0,1-2.6,1.8v-21.3A5.5,5.5,0,0,1,2470.2,1739.1Z" transform="translate(-249.6 -318.7)"/><path class="e" d="M2476.8,1719.8v12.4a4.4,4.4,0,0,1-.9,2.7,6.4,6.4,0,0,1-2.7,1.8l-1,.2H2236.3c-3,0-5.5-2-5.7-4.6v-12.8a5.4,5.4,0,0,1,5-4.5h236.6l1,.3a5.6,5.6,0,0,1,2.7,1.8A3.9,3.9,0,0,1,2476.8,1719.8Z" transform="translate(-249.6 -318.7)"/><path class="f" d="M2361.5,1737H2235.7a5,5,0,0,1-5.1-4.6v-12.8a5.1,5.1,0,0,1,4.5-4.5h111A38.7,38.7,0,0,0,2361.5,1737Z" transform="translate(-249.6 -318.7)"/><rect class="f" x="2196" y="1396.4" width="2.7" height="21.93"/><rect class="f" x="2187" y="1396.4" width="2.7" height="21.93"/><rect class="f" x="2176.1" y="1396.4" width="2.7" height="21.93"/><rect class="f" x="2159.5" y="1396.4" width="2.7" height="21.93"/><rect class="f" x="2142" y="1396.4" width="2.7" height="21.93"/><rect class="f" x="2115" y="1396.4" width="2.7" height="21.93"/><rect class="f" x="2089.8" y="1396.4" width="2.7" height="21.93"/><rect class="f" x="2067.3" y="1396.4" width="2.7" height="21.93"/><rect class="f" x="2204.6" y="1396.4" width="2.7" height="21.93"/><rect class="f" x="2210.3" y="1396.4" width="2.7" height="21.93"/><rect class="f" x="2215.8" y="1396.4" width="2.7" height="21.93"/><path class="f" d="M2472.2,1715.1v21.8h-2.7v-22h2.7Z" transform="translate(-249.6 -318.7)"/><path class="f" d="M2475.9,1717.2v17.7a6.4,6.4,0,0,1-2.7,1.8v-21.3A5.6,5.6,0,0,1,2475.9,1717.2Z" transform="translate(-249.6 -318.7)"/><path class="e" d="M2459.6,1697.9v12.4a4.5,4.5,0,0,1-1,2.7,5.9,5.9,0,0,1-2.7,1.8l-1,.2H2219c-3,0-5.5-2-5.6-4.5v-13.1a5.1,5.1,0,0,1,4.2-4.2h237.3l1,.3a5.2,5.2,0,0,1,2.7,1.8A4,4,0,0,1,2459.6,1697.9Z" transform="translate(-249.6 -318.7)"/><path class="f" d="M2344.3,1715.1H2218.4a4.9,4.9,0,0,1-5-4.5v-13.1a4.8,4.8,0,0,1,3.9-4.2h111.5a38.2,38.2,0,0,0,15.4,21.7Z" transform="translate(-249.6 -318.7)"/><rect class="f" x="2178.7" y="1374.5" width="2.7" height="21.93"/><rect class="f" x="2169.7" y="1374.5" width="2.7" height="21.93"/><rect class="f" x="2158.9" y="1374.5" width="2.7" height="21.93"/><rect class="f" x="2142.3" y="1374.5" width="2.7" height="21.93"/><rect class="f" x="2124.7" y="1374.5" width="2.7" height="21.93"/><rect class="f" x="2097.8" y="1374.5" width="2.7" height="21.93"/><rect class="f" x="2072.6" y="1374.5" width="2.7" height="21.93"/><rect class="f" x="2050.1" y="1374.5" width="2.7" height="21.93"/><rect class="f" x="2187.3" y="1374.5" width="2.7" height="21.93"/><rect class="f" x="2193" y="1374.5" width="2.7" height="21.93"/><rect class="f" x="2198.5" y="1374.5" width="2.7" height="21.93"/><path class="f" d="M2454.9,1693.2V1715h-2.7v-21.9h2.7Z" transform="translate(-249.6 -318.7)"/><path class="f" d="M2458.6,1695.3V1713a5.9,5.9,0,0,1-2.7,1.8v-21.3A5.2,5.2,0,0,1,2458.6,1695.3Z" transform="translate(-249.6 -318.7)"/><path class="e" d="M2459.1,1676.2v12.3a4.5,4.5,0,0,1-1,2.7,5.9,5.9,0,0,1-2.7,1.8l-.8.2H2217.5c-2.5-.4-4.5-2.2-4.6-4.4v-12.9c.1-2.5,2.6-4.5,5.6-4.5h235.9l1,.2h.6l.3.2h.3l.3.2.2.2h.2l.4.3h.1c0,.1.1.1.1.2s.1.1.2.2A4.5,4.5,0,0,1,2459.1,1676.2Z" transform="translate(-249.6 -318.7)"/><path class="f" d="M2343.8,1693.3H2217.3a4.9,4.9,0,0,1-4.4-4.5v-12.9a4.9,4.9,0,0,1,5-4.5h110.4l.2.5a38.5,38.5,0,0,0,15,21.3Z" transform="translate(-249.6 -318.7)"/><rect class="f" x="2178.2" y="1352.7" width="2.7" height="21.93"/><rect class="f" x="2169.2" y="1352.7" width="2.7" height="21.93"/><rect class="f" x="2158.4" y="1352.7" width="2.7" height="21.93"/><rect class="f" x="2141.8" y="1352.7" width="2.7" height="21.93"/><rect class="f" x="2124.2" y="1352.7" width="2.7" height="21.93"/><rect class="f" x="2097.3" y="1352.7" width="2.7" height="21.93"/><rect class="f" x="2072.1" y="1352.7" width="2.7" height="21.93"/><rect class="f" x="2049.6" y="1352.7" width="2.7" height="21.93"/><rect class="f" x="2186.8" y="1352.7" width="2.7" height="21.93"/><rect class="f" x="2192.5" y="1352.7" width="2.7" height="21.93"/><rect class="f" x="2198" y="1352.7" width="2.7" height="21.93"/><path class="f" d="M2454.4,1671.5v21.7h-2.7v-21.9h2.7Z" transform="translate(-249.6 -318.7)"/><path class="f" d="M2458.1,1673.5v17.7a5.9,5.9,0,0,1-2.7,1.8v-21.3A5.9,5.9,0,0,1,2458.1,1673.5Z" transform="translate(-249.6 -318.7)"/><path class="e" d="M2471.2,1654.8v12.4a3.7,3.7,0,0,1-1,2.6,4.9,4.9,0,0,1-2.6,1.8l-1.1.3H2230.7a6.7,6.7,0,0,1-2.6-.5,4.8,4.8,0,0,1-3.1-3.8v-13.1c.2-2.5,2.6-4.5,5.7-4.5h235.8l1.1.2a5.5,5.5,0,0,1,2.6,1.8A3.9,3.9,0,0,1,2471.2,1654.8Z" transform="translate(-249.6 -318.7)"/><path class="f" d="M2355.9,1671.9H2230.1a6,6,0,0,1-2.4-.5,4.7,4.7,0,0,1-2.7-3.8v-13.1a5,5,0,0,1,5.1-4.5h110.3a39.1,39.1,0,0,0,14.7,21.4Z" transform="translate(-249.6 -318.7)"/><rect class="f" x="2190.4" y="1331.3" width="2.7" height="21.92"/><rect class="f" x="2181.3" y="1331.3" width="2.7" height="21.92"/><rect class="f" x="2170.5" y="1331.3" width="2.7" height="21.92"/><rect class="f" x="2153.9" y="1331.3" width="2.7" height="21.92"/><rect class="f" x="2136.3" y="1331.3" width="2.7" height="21.92"/><rect class="f" x="2109.4" y="1331.3" width="2.7" height="21.92"/><rect class="f" x="2084.2" y="1331.3" width="2.7" height="21.92"/><rect class="f" x="2061.7" y="1331.3" width="2.7" height="21.92"/><rect class="f" x="2199" y="1331.3" width="2.7" height="21.92"/><rect class="f" x="2204.7" y="1331.3" width="2.7" height="21.92"/><rect class="f" x="2210.1" y="1331.3" width="2.7" height="21.92"/><path class="f" d="M2466.5,1650.1v21.8h-2.6V1650h2.6Z" transform="translate(-249.6 -318.7)"/><path class="f" d="M2470.2,1652.1v17.7a4.9,4.9,0,0,1-2.6,1.8v-21.3A5.5,5.5,0,0,1,2470.2,1652.1Z" transform="translate(-249.6 -318.7)"/><path class="e" d="M2490.4,1632.8v12.4a3.9,3.9,0,0,1-1,2.7,5.5,5.5,0,0,1-2.6,1.8l-1.1.2H2249.9c-3.1,0-5.6-2-5.7-4.5v-12.9c.1-2.3,2.3-4.2,5-4.5h236.5l1.1.2a5.5,5.5,0,0,1,2.6,1.8A3.7,3.7,0,0,1,2490.4,1632.8Z" transform="translate(-249.6 -318.7)"/><path class="f" d="M2375.1,1650H2249.3a5,5,0,0,1-5.1-4.5v-12.9a4.9,4.9,0,0,1,4.5-4.5h110.9A38.3,38.3,0,0,0,2375.1,1650Z" transform="translate(-249.6 -318.7)"/><rect class="f" x="2209.6" y="1309.4" width="2.7" height="21.93"/><rect class="f" x="2200.5" y="1309.4" width="2.7" height="21.93"/><rect class="f" x="2189.7" y="1309.4" width="2.7" height="21.93"/><rect class="f" x="2173.1" y="1309.4" width="2.7" height="21.93"/><rect class="f" x="2155.5" y="1309.4" width="2.7" height="21.93"/><rect class="f" x="2128.6" y="1309.4" width="2.7" height="21.93"/><rect class="f" x="2103.4" y="1309.4" width="2.7" height="21.93"/><rect class="f" x="2080.9" y="1309.4" width="2.7" height="21.93"/><rect class="f" x="2218.2" y="1309.4" width="2.7" height="21.93"/><rect class="f" x="2223.9" y="1309.4" width="2.7" height="21.93"/><rect class="f" x="2229.3" y="1309.4" width="2.7" height="21.93"/><path class="f" d="M2485.7,1628.2v21.7h-2.6v-21.9h2.6Z" transform="translate(-249.6 -318.7)"/><path class="f" d="M2489.4,1630.2v17.7a5.5,5.5,0,0,1-2.6,1.8v-21.3A5.5,5.5,0,0,1,2489.4,1630.2Z" transform="translate(-249.6 -318.7)"/><path class="e" d="M2459.6,1611v12.3a4.5,4.5,0,0,1-1,2.7,5.9,5.9,0,0,1-2.7,1.8l-1,.2H2219c-3,0-5.5-2-5.6-4.5v-12.9c.1-2.5,2.6-4.5,5.6-4.5h235.9l1,.2.5.2h.4l.2.2h.1c.1.1.2.1.2.2l.6.4h.5l.2.3A4.5,4.5,0,0,1,2459.6,1611Z" transform="translate(-249.6 -318.7)"/><path class="f" d="M2344.3,1628.1H2218.4a4.9,4.9,0,0,1-5-4.5v-12.9a4.9,4.9,0,0,1,5-4.5h110.4c0,.2.1.3.1.5a38.9,38.9,0,0,0,15.3,21.4Z" transform="translate(-249.6 -318.7)"/><rect class="f" x="2178.7" y="1287.5" width="2.7" height="21.92"/><rect class="f" x="2169.7" y="1287.5" width="2.7" height="21.92"/><rect class="f" x="2158.9" y="1287.5" width="2.7" height="21.92"/><rect class="f" x="2142.3" y="1287.5" width="2.7" height="21.92"/><rect class="f" x="2124.7" y="1287.5" width="2.7" height="21.92"/><rect class="f" x="2097.8" y="1287.5" width="2.7" height="21.92"/><rect class="f" x="2072.6" y="1287.5" width="2.7" height="21.92"/><rect class="f" x="2050.1" y="1287.5" width="2.7" height="21.92"/><rect class="f" x="2187.3" y="1287.5" width="2.7" height="21.92"/><rect class="f" x="2193" y="1287.5" width="2.7" height="21.92"/><rect class="f" x="2198.5" y="1287.5" width="2.7" height="21.92"/><path class="f" d="M2454.9,1606.3V1628h-2.7v-21.9h2.7Z" transform="translate(-249.6 -318.7)"/><path class="f" d="M2458.6,1608.3V1626a5.9,5.9,0,0,1-2.7,1.8v-21.3A5.9,5.9,0,0,1,2458.6,1608.3Z" transform="translate(-249.6 -318.7)"/><path class="e" d="M2476.8,1589.5v12.4a4.4,4.4,0,0,1-.9,2.7,6.4,6.4,0,0,1-2.7,1.8l-1,.2H2236.3a6.6,6.6,0,0,1-2.5-.5,5.1,5.1,0,0,1-3.2-3.8v-13.1a5.4,5.4,0,0,1,5-4.5h236.6l1,.3a5.6,5.6,0,0,1,2.7,1.8A4.1,4.1,0,0,1,2476.8,1589.5Z" transform="translate(-249.6 -318.7)"/><path class="f" d="M2361.5,1606.7H2235.7a5.9,5.9,0,0,1-2.3-.5,5,5,0,0,1-2.8-3.8v-13.1a5.1,5.1,0,0,1,4.5-4.5h111a38.1,38.1,0,0,0,14.7,21.4Z" transform="translate(-249.6 -318.7)"/><rect class="f" x="2196" y="1266.1" width="2.7" height="21.92"/><rect class="f" x="2187" y="1266.1" width="2.7" height="21.92"/><rect class="f" x="2176.1" y="1266.1" width="2.7" height="21.92"/><rect class="f" x="2159.5" y="1266.1" width="2.7" height="21.92"/><rect class="f" x="2142" y="1266.1" width="2.7" height="21.92"/><rect class="f" x="2115" y="1266.1" width="2.7" height="21.92"/><rect class="f" x="2089.8" y="1266.1" width="2.7" height="21.92"/><rect class="f" x="2067.3" y="1266.1" width="2.7" height="21.92"/><rect class="f" x="2204.6" y="1266.1" width="2.7" height="21.92"/><rect class="f" x="2210.3" y="1266.1" width="2.7" height="21.92"/><rect class="f" x="2215.8" y="1266.1" width="2.7" height="21.92"/><path class="f" d="M2472.2,1584.8v21.8h-2.7v-21.9h2.7Z" transform="translate(-249.6 -318.7)"/><path class="f" d="M2475.9,1586.9v17.7a6.4,6.4,0,0,1-2.7,1.8v-21.3A5.6,5.6,0,0,1,2475.9,1586.9Z" transform="translate(-249.6 -318.7)"/><path class="e" d="M2484.2,1567.6V1580a4.5,4.5,0,0,1-1,2.7,6.1,6.1,0,0,1-2.6,1.8l-1.1.2H2243.7c-3.1,0-5.6-2-5.7-4.5v-12.9c.1-2.5,2.6-4.5,5.7-4.5h235.8l1.1.2a6.1,6.1,0,0,1,2.6,1.8A4.2,4.2,0,0,1,2484.2,1567.6Z" transform="translate(-249.6 -318.7)"/><path class="f" d="M2368.9,1584.8H2243a4.9,4.9,0,0,1-5-4.5v-12.9a4.9,4.9,0,0,1,5-4.5h110.4a39.2,39.2,0,0,0,15.4,21.9Z" transform="translate(-249.6 -318.7)"/><rect class="f" x="2203.4" y="1244.2" width="2.7" height="21.93"/><rect class="f" x="2194.3" y="1244.2" width="2.7" height="21.93"/><rect class="f" x="2183.5" y="1244.2" width="2.7" height="21.93"/><rect class="f" x="2166.9" y="1244.2" width="2.7" height="21.93"/><rect class="f" x="2149.3" y="1244.2" width="2.7" height="21.93"/><rect class="f" x="2122.4" y="1244.2" width="2.7" height="21.93"/><rect class="f" x="2097.2" y="1244.2" width="2.7" height="21.93"/><rect class="f" x="2074.7" y="1244.2" width="2.7" height="21.93"/><rect class="f" x="2212" y="1244.2" width="2.7" height="21.93"/><rect class="f" x="2217.6" y="1244.2" width="2.7" height="21.93"/><rect class="f" x="2223.1" y="1244.2" width="2.7" height="21.93"/><path class="f" d="M2479.5,1563v21.7h-2.7v-21.9h2.7Z" transform="translate(-249.6 -318.7)"/><path class="f" d="M2483.2,1565v17.7a6.1,6.1,0,0,1-2.6,1.8v-21.3A6.1,6.1,0,0,1,2483.2,1565Z" transform="translate(-249.6 -318.7)"/><path class="e" d="M2490.4,1546v12.4a3.9,3.9,0,0,1-1,2.7,5.5,5.5,0,0,1-2.6,1.8l-1.1.2H2249.9c-3.1,0-5.6-2-5.7-4.6v-12.8c.1-2.3,2.3-4.2,5-4.5h236.5l1.1.3a4.9,4.9,0,0,1,2.6,1.8A3.5,3.5,0,0,1,2490.4,1546Z" transform="translate(-249.6 -318.7)"/><path class="f" d="M2375.1,1563.2H2249.3a5,5,0,0,1-5.1-4.6v-12.8a4.9,4.9,0,0,1,4.5-4.5h110.9A38.9,38.9,0,0,0,2375.1,1563.2Z" transform="translate(-249.6 -318.7)"/><rect class="f" x="2209.6" y="1222.6" width="2.7" height="21.93"/><rect class="f" x="2200.5" y="1222.6" width="2.7" height="21.93"/><rect class="f" x="2189.7" y="1222.6" width="2.7" height="21.93"/><rect class="f" x="2173.1" y="1222.6" width="2.7" height="21.93"/><rect class="f" x="2155.5" y="1222.6" width="2.7" height="21.93"/><rect class="f" x="2128.6" y="1222.6" width="2.7" height="21.93"/><rect class="f" x="2103.4" y="1222.6" width="2.7" height="21.93"/><rect class="f" x="2080.9" y="1222.6" width="2.7" height="21.93"/><rect class="f" x="2218.2" y="1222.6" width="2.7" height="21.93"/><rect class="f" x="2223.9" y="1222.6" width="2.7" height="21.93"/><rect class="f" x="2229.3" y="1222.6" width="2.7" height="21.93"/><path class="f" d="M2485.7,1541.3v21.8h-2.6v-21.9h2.6Z" transform="translate(-249.6 -318.7)"/><path class="f" d="M2489.4,1543.4v17.7a5.5,5.5,0,0,1-2.6,1.8v-21.3A4.9,4.9,0,0,1,2489.4,1543.4Z" transform="translate(-249.6 -318.7)"/><path class="e" d="M2459.6,1524.1v12.4a4.5,4.5,0,0,1-1,2.7,5.9,5.9,0,0,1-2.7,1.8l-1,.2H2219c-3,0-5.5-2-5.6-4.5v-12.9c.1-2.5,2.6-4.5,5.6-4.5h235.9l1,.3.5.2h.4l.2.2h.3l.6.5h.3l.2.2.2.3A4,4,0,0,1,2459.6,1524.1Z" transform="translate(-249.6 -318.7)"/><path class="f" d="M2344.3,1541.3H2218.4a4.9,4.9,0,0,1-5-4.5v-12.9a4.9,4.9,0,0,1,5-4.5h110.4a4.3,4.3,0,0,1,.1.5,38.9,38.9,0,0,0,15.3,21.4Z" transform="translate(-249.6 -318.7)"/><rect class="f" x="2178.7" y="1200.7" width="2.7" height="21.93"/><rect class="f" x="2169.7" y="1200.7" width="2.7" height="21.93"/><rect class="f" x="2158.9" y="1200.7" width="2.7" height="21.93"/><rect class="f" x="2142.3" y="1200.7" width="2.7" height="21.93"/><rect class="f" x="2124.7" y="1200.7" width="2.7" height="21.93"/><rect class="f" x="2097.8" y="1200.7" width="2.7" height="21.93"/><rect class="f" x="2072.6" y="1200.7" width="2.7" height="21.93"/><rect class="f" x="2050.1" y="1200.7" width="2.7" height="21.93"/><rect class="f" x="2187.3" y="1200.7" width="2.7" height="21.93"/><rect class="f" x="2193" y="1200.7" width="2.7" height="21.93"/><rect class="f" x="2198.5" y="1200.7" width="2.7" height="21.93"/><path class="f" d="M2454.9,1519.4v21.8h-2.7v-21.9h2.7Z" transform="translate(-249.6 -318.7)"/><path class="f" d="M2458.6,1521.5v17.7a5.9,5.9,0,0,1-2.7,1.8v-21.3A5.2,5.2,0,0,1,2458.6,1521.5Z" transform="translate(-249.6 -318.7)"/><path class="e" d="M2476.8,1502.7v12.4a4.4,4.4,0,0,1-.9,2.7,5.5,5.5,0,0,1-2.7,1.7,3.8,3.8,0,0,1-1,.3H2236.3a6.6,6.6,0,0,1-2.5-.5,5.2,5.2,0,0,1-3.2-3.9v-13a5.2,5.2,0,0,1,5-4.5h236.6l1,.3a5.5,5.5,0,0,1,2.7,1.7A4.4,4.4,0,0,1,2476.8,1502.7Z" transform="translate(-249.6 -318.7)"/><path class="f" d="M2361.5,1519.9H2235.7a5.9,5.9,0,0,1-2.3-.5,5.2,5.2,0,0,1-2.8-3.9v-13a4.9,4.9,0,0,1,4.5-4.5h111a38.1,38.1,0,0,0,14.7,21.4Z" transform="translate(-249.6 -318.7)"/><rect class="f" x="2196" y="1179.3" width="2.7" height="21.93"/><rect class="f" x="2187" y="1179.3" width="2.7" height="21.93"/><rect class="f" x="2176.1" y="1179.3" width="2.7" height="21.93"/><rect class="f" x="2159.5" y="1179.3" width="2.7" height="21.93"/><rect class="f" x="2142" y="1179.3" width="2.7" height="21.93"/><rect class="f" x="2115" y="1179.3" width="2.7" height="21.93"/><rect class="f" x="2089.8" y="1179.3" width="2.7" height="21.93"/><rect class="f" x="2067.3" y="1179.3" width="2.7" height="21.93"/><rect class="f" x="2204.6" y="1179.3" width="2.7" height="21.93"/><rect class="f" x="2210.3" y="1179.3" width="2.7" height="21.93"/><rect class="f" x="2215.8" y="1179.3" width="2.7" height="21.93"/><path class="f" d="M2472.2,1498v21.8h-2.7v-22h2.7Z" transform="translate(-249.6 -318.7)"/><path class="f" d="M2475.9,1500v17.8a5.5,5.5,0,0,1-2.7,1.7v-21.2A5.5,5.5,0,0,1,2475.9,1500Z" transform="translate(-249.6 -318.7)"/><path class="e" d="M2484.2,1480.8v12.4a4.5,4.5,0,0,1-1,2.7,6.1,6.1,0,0,1-2.6,1.8l-1.1.2H2243.7c-3.1,0-5.6-2-5.7-4.6v-12.8c.1-2.5,2.6-4.6,5.7-4.6h235.8l1.1.3a5.3,5.3,0,0,1,2.6,1.8A4,4,0,0,1,2484.2,1480.8Z" transform="translate(-249.6 -318.7)"/><path class="f" d="M2368.9,1498H2243a4.9,4.9,0,0,1-5-4.6v-12.8a4.9,4.9,0,0,1,5-4.6h110.4a38.6,38.6,0,0,0,15.4,21.9Z" transform="translate(-249.6 -318.7)"/><rect class="f" x="2203.4" y="1157.4" width="2.7" height="21.92"/><rect class="f" x="2194.3" y="1157.4" width="2.7" height="21.92"/><rect class="f" x="2183.5" y="1157.4" width="2.7" height="21.92"/><rect class="f" x="2166.9" y="1157.4" width="2.7" height="21.92"/><rect class="f" x="2149.3" y="1157.4" width="2.7" height="21.92"/><rect class="f" x="2122.4" y="1157.4" width="2.7" height="21.92"/><rect class="f" x="2097.2" y="1157.4" width="2.7" height="21.92"/><rect class="f" x="2074.7" y="1157.4" width="2.7" height="21.93"/><rect class="f" x="2212" y="1157.4" width="2.7" height="21.92"/><rect class="f" x="2217.6" y="1157.4" width="2.7" height="21.92"/><rect class="f" x="2223.1" y="1157.4" width="2.7" height="21.92"/><path class="f" d="M2479.5,1476.1v21.8h-2.7v-22h2.7Z" transform="translate(-249.6 -318.7)"/><path class="f" d="M2483.2,1478.2v17.7a6.1,6.1,0,0,1-2.6,1.8v-21.3A5.3,5.3,0,0,1,2483.2,1478.2Z" transform="translate(-249.6 -318.7)"/><circle class="g" cx="2373.7" cy="1328.4" r="146.4" transform="translate(-493.7 1748.9) rotate(-45)"/><circle class="e" cx="2360.9" cy="1328.4" r="146.4" transform="translate(-497.4 1739.8) rotate(-45)"/><path class="f" d="M2360.9,1463.5a133.3,133.3,0,1,1,94.3-39A132.4,132.4,0,0,1,2360.9,1463.5Zm0-258.8c-69.1,0-125.4,56.3-125.4,125.4s56.3,125.5,125.4,125.5,125.4-56.3,125.4-125.5A125.5,125.5,0,0,0,2360.9,1204.7Z" transform="translate(-249.6 -318.7)"/><path class="f" d="M2379.3,1368.9a24.8,24.8,0,0,0-.3-7.8,17,17,0,0,0-3.3-6.4,29.7,29.7,0,0,0-6.6-5.8,95.9,95.9,0,0,0-10.1-5.7,198.9,198.9,0,0,1-18.7-10.3,68.7,68.7,0,0,1-14.1-11.4,38.5,38.5,0,0,1-8.2-13.9c-1.8-5.1-2.3-11-1.5-17.8a40.4,40.4,0,0,1,5-15.5,37,37,0,0,1,10.4-11.5,43.1,43.1,0,0,1,14.8-7,60,60,0,0,1,18.4-2.2l2.6-22,17.7,2.1-2.6,22.3a58.4,58.4,0,0,1,16.7,7.1,44.7,44.7,0,0,1,11.9,11.4,42,42,0,0,1,6.7,15.4,55.5,55.5,0,0,1,.7,18.8l-31.9-3.7c.9-8.3-.2-14.6-3.3-19.1s-7.8-7.2-14-7.9a22.4,22.4,0,0,0-8.7.4,16.6,16.6,0,0,0-6.4,3.1,15.4,15.4,0,0,0-4.1,5.3,22,22,0,0,0-1.9,6.9,20,20,0,0,0,.3,7,15.1,15.1,0,0,0,3.1,6.2,29.7,29.7,0,0,0,6.6,5.8,101.4,101.4,0,0,0,10.6,6.1c6.8,3.5,13,7,18.5,10.5a71.1,71.1,0,0,1,14,11.5,39.7,39.7,0,0,1,8.2,14,38.7,38.7,0,0,1,1.5,17.6,39.2,39.2,0,0,1-5.1,15.9,37.7,37.7,0,0,1-10.4,11.4,45.3,45.3,0,0,1-14.9,6.8,67.9,67.9,0,0,1-18.5,1.9l-2.5,20.5-17.6-2.1,2.5-20.4a69.8,69.8,0,0,1-17.3-6.1,47,47,0,0,1-14.2-10.7,42.5,42.5,0,0,1-8.8-15.9q-3-9.3-1.5-21.6l31.9,3.8a34.9,34.9,0,0,0,.6,12.4,21.1,21.1,0,0,0,4.6,8.5,19.4,19.4,0,0,0,7.3,5,32.5,32.5,0,0,0,8.8,2.2,28.6,28.6,0,0,0,9.3-.2,21.1,21.1,0,0,0,7-2.9,15.3,15.3,0,0,0,4.6-5.2A17,17,0,0,0,2379.3,1368.9Z" transform="translate(-249.6 -318.7)"/><path class="l" d="M1865.5,876.3l-43.9,83.4-22.6-8.2,7.3,22.3-44,132.7S1737.9,937.9,1865.5,876.3Z" transform="translate(-249.6 -318.7)"/><path class="l" d="M1792.2,950.1s-48.6,179.2-53.3,350.2c0,0,40.3,14,103.6,2.9S1792.2,950.1,1792.2,950.1Z" transform="translate(-249.6 -318.7)"/><path class="m" d="M1559.4,1198.5c13.1-.2,31.4,1.4,37.5-5.2s15-6.5,15-6.5l-1.6-8.6-2-10.2s-.7-1-3.4-.9c0,0-9.5.4-14-1.2-11-4-54.7,22.2-53.2,29.5C1538.2,1198.1,1553.9,1198.6,1559.4,1198.5Z" transform="translate(-249.6 -318.7)"/><path class="l" d="M1797.7,946.5s-73.9,152.6-96.7,168.9-104.3,51.8-104.3,51.8-2.2,5.1-.2,12.5,6.1,9.9,6.1,9.9,113.9-10.2,140.4-26.6,84.9-82.2,84.9-82.2Z" transform="translate(-249.6 -318.7)"/><path class="l" d="M2013.8,1801.7h43.7c5.5-3,10.4-9.9,11.9-20.1,2.2-14,18-21.7,21.4-33.2s-14.1-27.8-14.1-27.8l-2.9-3.7-3.1-3.9-29,6.8s-.7,6.9-1.1,15.7c-.3,6.4-.5,13.7-.2,20.1.9,15.4-4.3,31.9-17.9,34.9C2012.4,1792.7,2012.9,1798.7,2013.8,1801.7Z" transform="translate(-249.6 -318.7)"/><path class="l" d="M1760.2,1801.7h99.9c4.8-5.9,3-27.5,2.3-34.6-.1-1.4-.2-2.3-.2-2.3s-34.2-27.3-38.9-6.4a14.6,14.6,0,0,1-.5,2c-5.9,19.5-32.4,28.4-47.7,30.9C1765.2,1792.9,1761.5,1798.1,1760.2,1801.7Z" transform="translate(-249.6 -318.7)"/><path class="n" d="M1779.2,1243.8s5.2,64.7,11.3,142.4c8.3,105.6,18.2,235.2,19.2,259.8,1.7,42.7,8.5,110.9,8.5,110.9s16.2,16.2,48.7,9.4c0,0,28.9-97.4,37.1-200.5.1-1.7.3-3.4.4-5.1,7.7-104.9,19.6-325.9,19.6-325.9Z" transform="translate(-249.6 -318.7)"/><path class="o" d="M1779.2,1243.8s5.2,64.7,11.3,142.4L1904,1565.8c.1-1.7.3-3.4.4-5.1,7.7-104.9,19.6-325.9,19.6-325.9Z" transform="translate(-249.6 -318.7)"/><path class="n" d="M1802.9,1251.5s93.4,234.1,154.8,344.2,80.6,140.7,80.6,140.7,35.2-14,38.4-23.6c0,0-23.5-212.5-64.6-264.3-23.3-29.2-50.6-117-51.8-147.8s-8.4-91.4-8.4-91.4Z" transform="translate(-249.6 -318.7)"/><path class="p" d="M1826.1,910.1c36.5,11.6,99.7-19.5,99.7-19.5s-33.7-25.3-31.9-77.8l-28.2,22.7L1846.5,851a234.6,234.6,0,0,0,2.2,25.1c.4,2.9.8,6,1.3,9.4a6.7,6.7,0,0,1-3,6.8A87.4,87.4,0,0,0,1826.1,910.1Z" transform="translate(-249.6 -318.7)"/><path class="a" d="M1775.2,1249.2a6.1,6.1,0,0,0,3.8,1.5c13.7-.2,53.7,7.4,87.5,3.9,28.5-2.7,53.8-11.2,80.9-23.3,3.6-1.6,11.8-6.1,11.7-10.1s-.6-10.8-1.1-18.8c-2-28-5.3-76.1-2.1-131.6.6-10.3.9-20.6,1-30.7.3-75.2-14.7-141.4-44.6-163.8,0,0-20.9,11.7-35.4,16.4s-21.5,3.6-28.8-1.3c0,0-14.3,7.1-20.5,13.8-14.1,15.4-25.2,35.9-32.5,65.4-6.2,25-12,61.5-14,108.3C1780.1,1100.1,1774.3,1248.5,1775.2,1249.2Z" transform="translate(-249.6 -318.7)"/><path class="q" d="M1952.4,1000.6l-40.1-124.3s-96.5,36.4-101,172.6c-1.7,31-9.2,158.2,4.3,263.7,0,0,75.2,29.2,167.3-28.5Z" transform="translate(-249.6 -318.7)"/><path class="r" d="M1846.5,851a234.6,234.6,0,0,0,2.2,25.1c21.2-3.7,45.3-38,45.3-38-10.8-3.1-20.3-3.7-28.3-2.6Z" transform="translate(-249.6 -318.7)"/><path class="p" d="M1830.7,850s65.7,10.9,71.9-30.1,18.8-67.3-22.9-76-52.2,5.7-57.6,18.9S1813.7,846.1,1830.7,850Z" transform="translate(-249.6 -318.7)"/><path class="l" d="M2119.2,1381l-134.3,19.1a32,32,0,0,1-36.2-27.2l-8.3-58.2a32.2,32.2,0,0,1,27.2-36.3l134.2-19.1a32.2,32.2,0,0,1,36.3,27.2l8.3,58.2A32.2,32.2,0,0,1,2119.2,1381Z" transform="translate(-249.6 -318.7)"/><path class="q" d="M1958,1312.2l8.4,58.8a32.2,32.2,0,0,0,19,24.9,31.3,31.3,0,0,0,10.5,2.7h0a33,33,0,0,0,7-.2l134-19.1a32.3,32.3,0,0,0,27.3-36.5l-8.4-58.8a32.3,32.3,0,0,0-36.4-27.4l-46.2,6.6-1.7-12.5a10.7,10.7,0,0,0-12.1-9l-5,.7-28.1,4-7,1a10.2,10.2,0,0,0-6.9,4.1,10.3,10.3,0,0,0-2.1,7.9l1.8,12.5-26.7,3.8-3.1.6h0a32.5,32.5,0,0,0-22.3,19.5h0A32.2,32.2,0,0,0,1958,1312.2Zm108.7-48-48,6.8-1.8-12.6a3.9,3.9,0,0,1,3.4-4.4l12-1.8,22.1-3.1,6-.9h1.2a4,4,0,0,1,3.3,3.3Z" transform="translate(-249.6 -318.7)"/><path class="p" d="M2017.1,1207.8s7,9.4,7.3,13.1c1.9,25.5-9.7,29,20.4,43.1,0,0,12.8,4.9,13-5.1s-8.9-10.1-7.2-24.1c1.9-16.1,1.7-16.2-8.8-24.6l-7-11.6Z" transform="translate(-249.6 -318.7)"/><path class="q" d="M2035,1215a103.1,103.1,0,0,1-23.6,1.3s-33.6-103.9-38-113.4S1873.5,981,1873.5,981l38.8-104.7s22.7,13.3,46.8,54.8c29.7,51.3,62.3,133.8,68.1,147.2,17.4,40.1,23.4,130.1,23.4,130.1A43,43,0,0,1,2035,1215Z" transform="translate(-249.6 -318.7)"/><path class="q" d="M1902.7,815.9s-6.8-1.1-5.7-10.4,1.1-21.4-6.5-19.2-7.9,8.4-11,4.8-3.2-18.4-25.7-19.4-31.6,6.8-42,2.2-11-20.5-11-20.5,2.9,5.7,7.4,7.5c0,0-17.4-23.9,2.8-40.2s40.8-5.7,52.5-5c25.7,1.6,42.3,3.1,50.7,20.1S1919.2,799.7,1902.7,815.9Z" transform="translate(-249.6 -318.7)"/><path class="p" d="M2028.2,1219s-6.8,7.1-7.2,10c-1.4,9.5-4.5,13.5-2.9,14.6,3.2,2.1,7.6-4.9,9.7-11.2S2028.2,1219,2028.2,1219Z" transform="translate(-249.6 -318.7)"/><path class="l" d="M1912.3,876.3l-44,83.4-22.5-8.2,7.3,22.3L1809,1106.5S1784.6,937.9,1912.3,876.3Z" transform="translate(-249.6 -318.7)"/><path class="a" d="M1826.1,826.7s2.6,6.8,9,7,11.3-6.1,11.3-6.1S1832.5,824.4,1826.1,826.7Z" transform="translate(-249.6 -318.7)"/><path class="n" d="M1483.1,1456l133.5-31a32.4,32.4,0,0,0,24.2-38.9l-13.4-57.8a32.5,32.5,0,0,0-38.9-24.3l-133.4,30.9a32.6,32.6,0,0,0-24.3,38.9l13.4,57.9A32.5,32.5,0,0,0,1483.1,1456Z" transform="translate(-249.6 -318.7)"/><path class="o" d="M1602,1317.6h0a32.6,32.6,0,0,0-28-10.2h-.1a17,17,0,0,0-3.1.6l-26.6,6.1-2.9-12.5a10.3,10.3,0,0,0-4.8-6.6,10.5,10.5,0,0,0-8.1-1.4l-6.9,1.6-27.9,6.5-5,1.1a10.9,10.9,0,0,0-8.1,12.9l2.9,12.5-45.9,10.6a32.6,32.6,0,0,0-24.3,39.1l13.5,58.5a32.8,32.8,0,0,0,39.1,24.4l133.2-30.9a29.4,29.4,0,0,0,6.7-2.3h0a29.9,29.9,0,0,0,8.9-6.3,32.5,32.5,0,0,0,8.8-30.4l-13.6-58.5A32.2,32.2,0,0,0,1602,1317.6Zm-114.9-3.4a4.1,4.1,0,0,1,1.9-4.4l1.1-.4,5.9-1.4,22-5.1,12-2.7a4,4,0,0,1,4.8,3l2.9,12.4-47.7,11.1Z" transform="translate(-249.6 -318.7)"/><path class="p" d="M1514.5,1242.3s-4.1,14.3-2.7,18.9c9.4,30.8,25.6,51-18,45.8,0,0,1.8-1.8-6.5-17.5-9.6-18.1-9.5-18.4-.8-33.1l2.9-16.9Z" transform="translate(-249.6 -318.7)"/><path class="p" d="M1569.3,1205.5c-13.1-.8-29.2-4.2-35-11.2s-13.3-10-13.3-10l2-8.6,2.5-10.3s.8-.9,3.5-.7c0,0,10.3,2.3,14.1-.7s10.8-1.1,15.2,1.7,12.8,3.1,12.7,4.9c0,0-10.9,5.3-9.9,6.2,10,8.9,36.2,12.4,34.5,19.3C1594.9,1198.8,1574.9,1205.9,1569.3,1205.5Z" transform="translate(-249.6 -318.7)"/><path class="p" d="M1385.9,869.3v7.2s1.9,22.4-25.6,25.6-50.2,2.9-49.4-14.4c2.5-13.3,6.9-34.1,7.1-45.2a72.4,72.4,0,0,0-1-13.4l53.4-1,15.7,2.6Z" transform="translate(-249.6 -318.7)"/><path class="m" d="M1386.1,830.7l-.2,38.6a43.7,43.7,0,0,1-19.2,4.3c-24.6,0-40.4-18-48.7-31.1a72.4,72.4,0,0,0-1-13.4l53.4-1Z" transform="translate(-249.6 -318.7)"/><path class="p" d="M1312.9,820.6c6.2,33.3,49.2,32.2,67.8,30.1,5.3-.6,8.5-1.2,8.5-1.2,5.9-1.6,9.2-10.9,10.8-23.1,3-24.1-.8-59.4-4.9-68.5-6.1-13.6-17.7-28.3-61-17.7S1305,777.9,1312.9,820.6Z" transform="translate(-249.6 -318.7)"/><path class="l" d="M1277.7,1807.4h61a149.6,149.6,0,0,0-4.9-21.9,63.1,63.1,0,0,0-3.4-8.7c-6-11.9-43.6-4.3-43.6-4.3s-3.5,3-6.2,14.4A124.8,124.8,0,0,0,1277.7,1807.4Z" transform="translate(-249.6 -318.7)"/><path class="l" d="M1461.9,1788.2c.2,8.3,1.2,16.1,4.2,19.2h120.6c-1.6-4.3-5.9-10.9-18.3-12.9-14-2.3-36-9.1-48.8-22.6a37,37,0,0,1-9.4-17.1c-5.7-25.2-46.9,7.7-46.9,7.7A197.5,197.5,0,0,0,1461.9,1788.2Z" transform="translate(-249.6 -318.7)"/><path class="q" d="M1381.7,1515.2a195.4,195.4,0,0,1,3.1,22.3c3.8,74.8,62.9,245.7,73.4,249.7,16.4,6.1,42.2-7,55.6-11.3,5.6-1.8,9.4-7.4,8.1-13.1-29.2-134.5-40-328.3-43.9-442.9-2-57.8-11.9-97.7-11.9-97.7s-144.1-38.5-145,10.2C1320.4,1275.4,1368.9,1444.2,1381.7,1515.2Z" transform="translate(-249.6 -318.7)"/><path class="l" d="M1381.7,1515.2l96.3-195.3c-2-57.8-11.9-97.7-11.9-97.7s-144.1-38.5-145,10.2C1320.4,1275.4,1368.9,1444.2,1381.7,1515.2Z" transform="translate(-249.6 -318.7)"/><path class="q" d="M1413.8,1232.5l-76.2,552.2s-33.5,8.1-59.5,1.6c0,0-22.3-293.6-20.4-364.6s-16-190,4.1-203.1S1413.8,1232.5,1413.8,1232.5Z" transform="translate(-249.6 -318.7)"/><path class="l" d="M1396.8,763.2c-11.9,3.7-37.1-.1-47.6,8.4s-.5,22.5-12.5,27.5h-.1a5.9,5.9,0,0,1-6.9-1.8c-3.3-4.1-7.9-8.3-12.2-6.5s-3.6,5.8-2.1,10.2a12,12,0,0,1-1.2,10.9,6.3,6.3,0,0,0-1.4,4.4c1,5.5,3.8,12.6,4.8,16.3l.3,3.8s-20.2-21.8-28.7-40.1c-5.8-12.6-5.7-59.7,22.8-73.4l-.3-.3c-.6-1.1-2.3-.9-2.3-.9,2.4-1.1,6.2-.4,6.2-.4l.5-.5c.5-3.3,3.8-5.7,3.8-5.7a12,12,0,0,0-1.8,4.5c7.5-3.9,30.5-12.7,48.7-4.7a158.3,158.3,0,0,0,31.4,9.7,13.1,13.1,0,0,1,10.6,13.3C1408.4,747.1,1405.3,760.1,1396.8,763.2Z" transform="translate(-249.6 -318.7)"/><path class="s" d="M1304.4,897.3l17.5,376.4s146.4,2.4,142.3-30.8-52.8-334.1-52.8-334.1" transform="translate(-249.6 -318.7)"/><path class="t" d="M1352.7,1133.1s-7.5,100.5-21.8,163.6c0,0-85.4,4.5-105.7-28.4,0,0,16.1-135.8,16.1-163.4,0-9.7-.8-22.8-1.9-37.5-1.8-22.3-4.6-48.1-7.2-70.6-3.6-31.4-7-56.2-7-56.2l70.5-57.3Z" transform="translate(-249.6 -318.7)"/><path class="t" d="M1522.2,1252s-16,10-41.1,6.6c-9.1,22.4-30.6,30.1-30.6,28,0-.2-4.9-42.3-10.6-91.9-.6-4.9-1.1-9.9-1.7-15-.1-.4-.1-.9-.2-1.3-.9-8.3-1.9-16.7-2.9-25.1-6.8-59.7-13.4-116.9-13.4-116.9-15-91.7-27.7-152.3-27.7-152.3,32,3.3,53.5,14.7,62.1,29.6,25.5,44.2,44,154.8,54.8,237.6,0,.2.1.4.1.6,1.9,14.3,3.5,27.8,4.9,39.9l.3,2.2C1520.1,1228.7,1522.2,1252,1522.2,1252Z" transform="translate(-249.6 -318.7)"/><path class="q" d="M1385,884.1" transform="translate(-249.6 -318.7)"/><path class="a" d="M1374,826s1.4,4.3,12.2,2.8c0,0,9.1-1.3,8.4-6.1C1394.6,822.7,1385.5,820,1374,826Z" transform="translate(-249.6 -318.7)"/><path class="u" d="M1300.2,882.9c-.1-3.6,16.9-8.6,16.9-8.6s19.5,27,51.5,27.5c0,0-9.1,17.8-19.9,22.4C1348.7,924.2,1301.3,904.2,1300.2,882.9Z" transform="translate(-249.6 -318.7)"/><path class="u" d="M1368.6,901.1s17-10,17.1-21c0,0,11-1.3,15.8,4,0,0,4,18.7-1.4,29.6C1400.1,913.7,1375.7,910,1368.6,901.1Z" transform="translate(-249.6 -318.7)"/><path class="v" d="M1357.1,899.5l23-5.5s3.1.3,3,4-6.5,14.7-9.4,15.6S1351.6,907.1,1357.1,899.5Z" transform="translate(-249.6 -318.7)"/><path class="s" d="M1302.9,881c-.1-3.6,11.4-11,11.4-11s22.3,26.1,54.3,26.5c0,0-9.1,17.8-19.9,22.4C1348.7,918.9,1304,902.3,1302.9,881Z" transform="translate(-249.6 -318.7)"/><path class="s" d="M1368.6,896.5s17.2-9.1,17.3-20c0,0,10.4,4.6,15.2,9.9,0,0,4.4,11.8-1,22.7C1400.1,909.1,1375.7,905.3,1368.6,896.5Z" transform="translate(-249.6 -318.7)"/><path class="w" d="M1410.8,1212.1a49.4,49.4,0,0,1-11.6,28.3l-10.4,11.7a5.2,5.2,0,0,1-8.7-.8l-12.5-19.5a30.2,30.2,0,0,1-4.2-18.6c1.3-14.9,3.8-43.7,5.8-71.4,1.6-22.5,3-44.3,3.2-57.6.7-42.4-4.8-177.5-4.8-177.5l8.2.5s20.1,52.2,30.2,123.4c2.5,17.6,4.4,36.3,5.2,55.6C1411.2,1086.2,1414.8,1163.3,1410.8,1212.1Z" transform="translate(-249.6 -318.7)"/><path class="v" d="M1410.8,1212.1a49.4,49.4,0,0,1-11.6,28.3l-10.4,11.7a5.2,5.2,0,0,1-8.7-.8l-12.5-19.5a30.2,30.2,0,0,1-4.2-18.6c1.3-14.9,3.8-43.7,5.8-71.4,23.2-31.8,32.9-75.5,36.8-111.2,2.5,17.6,4.4,36.3,5.2,55.6C1411.2,1086.2,1414.8,1163.3,1410.8,1212.1Z" transform="translate(-249.6 -318.7)"/><path class="l" d="M1314.3,870s45.6,191.1,38.3,263.1c0,0-16.7-76.9-57.1-139.9,0,0,14.7-13,13.9-17.8,0,0-10.9-3.2-21.5-1,0,0,1.1-82.4,7.8-91.1S1314.3,870,1314.3,870Z" transform="translate(-249.6 -318.7)"/><path class="l" d="M1385.9,876.5c-6.9.6,45.2,186.7,49.1,246.4,0,0-4.6-106.5-4.2-137.2,0,0-18.9-10-18.9-13.5s20.2-13.1,20.2-13.1-12.8-65.5-19.8-72.8S1385.9,876.5,1385.9,876.5Z" transform="translate(-249.6 -318.7)"/><path class="p" d="M1481.2,1266.2s-3.2,4.3-1.2,15,.9,16.7,3.7,14.9,8.5-14.8,8.5-14.8Z" transform="translate(-249.6 -318.7)"/><path class="l" d="M1347.1,1162.5c-53.1-7.9-88.7-57.6-107.7-95.1-1.8-22.3-4.6-48.1-7.2-70.6l12.4-35.5Z" transform="translate(-249.6 -318.7)"/><path class="l" d="M1516.2,1194c-10.6,2.5-42.7,8.5-76.3.7-.6-4.9-1.1-9.9-1.7-15-.1-.4-.1-.9-.2-1.3l3.3-12.9c19,6.8,61.5,21.7,74.6,26.3Z" transform="translate(-249.6 -318.7)"/><path class="t" d="M1295.7,883.3s-46.7,5.9-68,35.6,24.4,191.7,119.4,243.6c45.7,25,177.5,30.6,177.5,30.6s7.2.7,10.1-13.9c1-5.1,0-13.7,0-13.7s-150.1-56.3-163.2-67.1S1295.7,883.3,1295.7,883.3Z" transform="translate(-249.6 -318.7)"/><path class="m" d="M1590.9,1165.9s-15.7-4-20.2-4.9-10-5.1-11.6-3.2c-2.8,3.4,9.2,9.5,13.9,20.2,2.4,5.3,7,8.1,16.4,4.3C1594.2,1180.3,1597.9,1170.5,1590.9,1165.9Z" transform="translate(-249.6 -318.7)"/><circle class="c" cx="2104.1" cy="782.3" r="68.2" transform="translate(-294.1 -186.4) rotate(-3.6)"/><path class="a" d="M2082.2,755a21.9,21.9,0,1,1,21.9,21.9A21.9,21.9,0,0,1,2082.2,755Z" transform="translate(-249.6 -318.7)"/><path class="a" d="M2104.1,776.9a38.2,38.2,0,0,0-38.3,38.2h76.6A38.3,38.3,0,0,0,2104.1,776.9Z" transform="translate(-249.6 -318.7)"/><circle class="x" cx="1600.3" cy="601" r="46" transform="translate(398.1 1701.7) rotate(-76.7)"/><path class="a" d="M1585.5,582.5a14.8,14.8,0,1,1,14.8,14.8A14.7,14.7,0,0,1,1585.5,582.5Z" transform="translate(-249.6 -318.7)"/><path class="a" d="M1600.3,597.3a25.9,25.9,0,0,0-25.9,25.8h51.7A25.9,25.9,0,0,0,1600.3,597.3Z" transform="translate(-249.6 -318.7)"/><path class="c" d="M1928.1,370.1a4,4,0,0,1,5-2.6,4.1,4.1,0,0,1,2.7,5,4,4,0,0,1-5,2.6A4.1,4.1,0,0,1,1928.1,370.1Z" transform="translate(-249.6 -318.7)"/><path class="c" d="M1945.8,375.6a4.1,4.1,0,0,1,5-2.7,4,4,0,0,1,2.7,5,4,4,0,0,1-7.7-2.3Z" transform="translate(-249.6 -318.7)"/><path class="c" d="M1966.4,386.1a4,4,0,0,1-2.6-5,4.1,4.1,0,0,1,5-2.7,4,4,0,0,1-2.4,7.7Z" transform="translate(-249.6 -318.7)"/><path class="c" d="M1981.7,386.6a4,4,0,0,1,5-2.6,4.1,4.1,0,0,1,2.7,5,4,4,0,0,1-7.7-2.4Z" transform="translate(-249.6 -318.7)"/><path class="c" d="M1999.4,392.1a4,4,0,0,1,5-2.7,4,4,0,1,1-2.3,7.7A4,4,0,0,1,1999.4,392.1Z" transform="translate(-249.6 -318.7)"/><path class="c" d="M2020,402.6a4,4,0,0,1-2.6-5,4,4,0,0,1,5-2.7,4,4,0,0,1,2.6,5A4.1,4.1,0,0,1,2020,402.6Z" transform="translate(-249.6 -318.7)"/><path class="c" d="M2034.6,402.9a4.1,4.1,0,0,1,5-2.7,4,4,0,0,1,2.6,5,4.1,4.1,0,0,1-5,2.7A4,4,0,0,1,2034.6,402.9Z" transform="translate(-249.6 -318.7)"/><path class="c" d="M2052.3,408.3a4,4,0,1,1,2.6,5A3.9,3.9,0,0,1,2052.3,408.3Z" transform="translate(-249.6 -318.7)"/><path class="c" d="M2072.9,418.8a4,4,0,1,1,2.3-7.6,4.1,4.1,0,0,1,2.7,5A4,4,0,0,1,2072.9,418.8Z" transform="translate(-249.6 -318.7)"/><path class="c" d="M2088.1,419.4a4.1,4.1,0,0,1,5.1-2.7,4,4,0,0,1,2.6,5,4,4,0,1,1-7.7-2.3Z" transform="translate(-249.6 -318.7)"/><path class="c" d="M2105.9,424.8a4,4,0,0,1,7.6,2.4,4,4,0,1,1-7.6-2.4Z" transform="translate(-249.6 -318.7)"/><path class="c" d="M2126.4,435.3a4,4,0,1,1,5-2.6A3.9,3.9,0,0,1,2126.4,435.3Z" transform="translate(-249.6 -318.7)"/><path class="c" d="M2141.8,435.9a4,4,0,1,1,7.6,2.3,4.1,4.1,0,0,1-5,2.7A4,4,0,0,1,2141.8,435.9Z" transform="translate(-249.6 -318.7)"/><path class="c" d="M2159.5,441.3a3.9,3.9,0,0,1,5-2.6,3.9,3.9,0,0,1,2.6,5,4,4,0,1,1-7.6-2.4Z" transform="translate(-249.6 -318.7)"/><path class="c" d="M2180.1,451.8a4,4,0,1,1,2.3-7.6,4.1,4.1,0,0,1,2.7,5A4,4,0,0,1,2180.1,451.8Z" transform="translate(-249.6 -318.7)"/><path class="c" d="M2195.4,452.3a3.9,3.9,0,0,1,5-2.6,4,4,0,0,1-2.4,7.6A3.9,3.9,0,0,1,2195.4,452.3Z" transform="translate(-249.6 -318.7)"/><path class="c" d="M2213.1,457.8a4,4,0,0,1,5-2.7,4,4,0,1,1-5,2.7Z" transform="translate(-249.6 -318.7)"/><path class="c" d="M2233.6,468.3a4,4,0,1,1,5-2.6A3.9,3.9,0,0,1,2233.6,468.3Z" transform="translate(-249.6 -318.7)"/><path class="c" d="M2248.2,468.6a4,4,0,0,1,5-2.6,4.1,4.1,0,0,1,2.7,5,4,4,0,0,1-7.7-2.4Z" transform="translate(-249.6 -318.7)"/><path class="c" d="M2265.9,474.1a4,4,0,0,1,5-2.7,4,4,0,1,1-5,2.7Z" transform="translate(-249.6 -318.7)"/><path class="c" d="M2286.5,484.6a4,4,0,0,1-2.6-5,4,4,0,0,1,5-2.7,4,4,0,0,1,2.6,5A4.1,4.1,0,0,1,2286.5,484.6Z" transform="translate(-249.6 -318.7)"/><path class="c" d="M2301.8,485.1a4.1,4.1,0,0,1,5-2.7,4,4,0,1,1-5,2.7Z" transform="translate(-249.6 -318.7)"/><path class="c" d="M2319.5,490.5a4,4,0,0,1,7.6,2.4,4,4,0,1,1-7.6-2.4Z" transform="translate(-249.6 -318.7)"/><path class="c" d="M2340.1,501.1a4.1,4.1,0,0,1-2.7-5,4,4,0,0,1,5-2.7,4,4,0,1,1-2.3,7.7Z" transform="translate(-249.6 -318.7)"/><path class="c" d="M2151.8,712.6a4,4,0,0,1,4.8-6.5,4.1,4.1,0,0,1,.8,5.6A4,4,0,0,1,2151.8,712.6Z" transform="translate(-249.6 -318.7)"/><path class="c" d="M2162.8,697.7a4,4,0,1,1,5.6-.9A4,4,0,0,1,2162.8,697.7Z" transform="translate(-249.6 -318.7)"/><path class="c" d="M2179.5,681.7a4.1,4.1,0,0,1-5.6.8,4,4,0,0,1-.9-5.6,3.9,3.9,0,0,1,5.6-.8A4,4,0,0,1,2179.5,681.7Z" transform="translate(-249.6 -318.7)"/><path class="c" d="M2185,667.4a4,4,0,1,1,5.6-.9A4,4,0,0,1,2185,667.4Z" transform="translate(-249.6 -318.7)"/><path class="c" d="M2195.9,652.4a4,4,0,0,1-.9-5.6,4.1,4.1,0,0,1,5.6-.8,4,4,0,1,1-4.7,6.4Z" transform="translate(-249.6 -318.7)"/><path class="c" d="M2212.6,636.4a4,4,0,1,1-.9-5.6A4,4,0,0,1,2212.6,636.4Z" transform="translate(-249.6 -318.7)"/><path class="c" d="M2218.1,622.1a3.9,3.9,0,0,1-.8-5.6,3.8,3.8,0,0,1,5.5-.8,4,4,0,0,1,.9,5.6A4.1,4.1,0,0,1,2218.1,622.1Z" transform="translate(-249.6 -318.7)"/><path class="c" d="M2229.1,607.2a4,4,0,1,1,5.6-.9A4,4,0,0,1,2229.1,607.2Z" transform="translate(-249.6 -318.7)"/><path class="c" d="M2245.7,591.2a3.9,3.9,0,0,1-5.5.8,4,4,0,0,1-.9-5.6,4.1,4.1,0,0,1,5.6-.8A3.9,3.9,0,0,1,2245.7,591.2Z" transform="translate(-249.6 -318.7)"/><path class="c" d="M2251.2,576.9a4.1,4.1,0,0,1-.8-5.6,4,4,0,1,1,.8,5.6Z" transform="translate(-249.6 -318.7)"/><path class="c" d="M2262.2,561.9a3.9,3.9,0,0,1-.9-5.5,4,4,0,0,1,6.5,4.7A3.9,3.9,0,0,1,2262.2,561.9Z" transform="translate(-249.6 -318.7)"/><path class="c" d="M2278.9,545.9a4,4,0,1,1-6.5-4.7,4,4,0,0,1,6.5,4.7Z" transform="translate(-249.6 -318.7)"/><path class="c" d="M2283.9,532.3a4,4,0,0,1,4.8-6.5,4.1,4.1,0,0,1,.8,5.6A4,4,0,0,1,2283.9,532.3Z" transform="translate(-249.6 -318.7)"/><path class="c" d="M2294.9,517.3a4,4,0,0,1-.9-5.6,4.1,4.1,0,0,1,5.6-.8,4,4,0,1,1-4.7,6.4Z" transform="translate(-249.6 -318.7)"/><path class="c" d="M2311.6,501.3a4,4,0,1,1-.9-5.6A4,4,0,0,1,2311.6,501.3Z" transform="translate(-249.6 -318.7)"/><path class="c" d="M2317.1,487.1a4,4,0,1,1,4.7-6.5,4,4,0,0,1-4.7,6.5Z" transform="translate(-249.6 -318.7)"/><path class="c" d="M2328,472.1a4,4,0,0,1-.9-5.6,4,4,0,0,1,6.5,4.7A4,4,0,0,1,2328,472.1Z" transform="translate(-249.6 -318.7)"/><path class="c" d="M2344.7,456.1a4,4,0,1,1-.9-5.6A4,4,0,0,1,2344.7,456.1Z" transform="translate(-249.6 -318.7)"/><path class="c" d="M2185,775.3a4,4,0,0,1,3.3-4.6,4,4,0,0,1,1.3,7.9A3.9,3.9,0,0,1,2185,775.3Z" transform="translate(-249.6 -318.7)"/><path class="c" d="M2203.2,772.3a4.1,4.1,0,0,1,3.3-4.6,4.1,4.1,0,0,1,4.6,3.3,3.9,3.9,0,0,1-3.3,4.6A4,4,0,0,1,2203.2,772.3Z" transform="translate(-249.6 -318.7)"/><path class="c" d="M2226.4,772.6a3.9,3.9,0,0,1-4.6-3.3,4,4,0,0,1,3.3-4.6,4,4,0,0,1,4.6,3.3A4.1,4.1,0,0,1,2226.4,772.6Z" transform="translate(-249.6 -318.7)"/><path class="c" d="M2240.3,766.3a3.9,3.9,0,0,1,3.3-4.6,4,4,0,0,1,4.6,3.3,4,4,0,0,1-7.9,1.3Z" transform="translate(-249.6 -318.7)"/><path class="c" d="M2258.6,763.3a3.9,3.9,0,0,1,3.3-4.6,4,4,0,0,1,4.6,3.3,4.2,4.2,0,0,1-3.3,4.6A4.1,4.1,0,0,1,2258.6,763.3Z" transform="translate(-249.6 -318.7)"/><path class="c" d="M2281.7,763.5a3.9,3.9,0,0,1-4.6-3.3,4,4,0,0,1,3.3-4.6,4,4,0,0,1,4.6,3.3A4,4,0,0,1,2281.7,763.5Z" transform="translate(-249.6 -318.7)"/><path class="c" d="M2295.6,757.2a4.1,4.1,0,0,1,3.3-4.6,3.9,3.9,0,0,1,4.6,3.3,4,4,0,0,1-3.3,4.6A4.1,4.1,0,0,1,2295.6,757.2Z" transform="translate(-249.6 -318.7)"/><path class="c" d="M2313.9,754.2a4,4,0,0,1,3.3-4.6,3.9,3.9,0,0,1,4.6,3.3,4,4,0,0,1-3.3,4.6A4,4,0,0,1,2313.9,754.2Z" transform="translate(-249.6 -318.7)"/><path class="c" d="M2337,754.5a4.2,4.2,0,0,1-4.6-3.3,4.1,4.1,0,0,1,3.3-4.6,3.9,3.9,0,0,1,4.6,3.3A4,4,0,0,1,2337,754.5Z" transform="translate(-249.6 -318.7)"/><path class="c" d="M2351,748.1a4,4,0,0,1,3.3-4.6,4,4,0,0,1,1.3,7.9A3.9,3.9,0,0,1,2351,748.1Z" transform="translate(-249.6 -318.7)"/><path class="c" d="M2369.2,745.1a4.1,4.1,0,0,1,3.3-4.6,4,4,0,0,1,4.6,3.3,3.9,3.9,0,0,1-3.3,4.6A4,4,0,0,1,2369.2,745.1Z" transform="translate(-249.6 -318.7)"/><path class="c" d="M2392.4,745.4a4,4,0,0,1-4.6-3.3,3.9,3.9,0,0,1,3.3-4.6,4,4,0,0,1,4.6,3.3A4.1,4.1,0,0,1,2392.4,745.4Z" transform="translate(-249.6 -318.7)"/><path class="c" d="M2405.5,739.2a4.1,4.1,0,0,1,3.3-4.6,3.9,3.9,0,0,1,4.6,3.3,4,4,0,0,1-3.3,4.6A4.2,4.2,0,0,1,2405.5,739.2Z" transform="translate(-249.6 -318.7)"/><path class="c" d="M2423.8,736.2a4,4,0,0,1,3.3-4.6,3.9,3.9,0,0,1,4.6,3.3,4,4,0,0,1-3.3,4.6A4,4,0,0,1,2423.8,736.2Z" transform="translate(-249.6 -318.7)"/><path class="c" d="M2446.9,736.4a4,4,0,0,1-4.6-3.3,4.2,4.2,0,0,1,3.3-4.6,4.1,4.1,0,0,1,4.6,3.3A3.9,3.9,0,0,1,2446.9,736.4Z" transform="translate(-249.6 -318.7)"/><path class="c" d="M2460.9,730.1a4,4,0,0,1,3.3-4.6,4,4,0,0,1,4.6,3.3,4.1,4.1,0,0,1-3.3,4.6A3.9,3.9,0,0,1,2460.9,730.1Z" transform="translate(-249.6 -318.7)"/><path class="c" d="M2479.1,727.1a4.1,4.1,0,0,1,3.3-4.6,3.9,3.9,0,0,1,4.6,3.3,4,4,0,0,1-3.3,4.6A4,4,0,0,1,2479.1,727.1Z" transform="translate(-249.6 -318.7)"/><path class="c" d="M2502.3,727.4a4.1,4.1,0,0,1-4.6-3.3,3.9,3.9,0,0,1,3.3-4.6,4,4,0,0,1,4.6,3.3A4.1,4.1,0,0,1,2502.3,727.4Z" transform="translate(-249.6 -318.7)"/><path class="c" d="M2079.7,702.3a4,4,0,1,1-2.4-7.6,4,4,0,0,1,2.4,7.6Z" transform="translate(-249.6 -318.7)"/><path class="c" d="M2074.1,684.7a4,4,0,0,1-5-2.6,4,4,0,1,1,5,2.6Z" transform="translate(-249.6 -318.7)"/><path class="c" d="M2071,661.8a4,4,0,0,1-2.6,5,3.9,3.9,0,0,1-5-2.6,3.9,3.9,0,0,1,2.6-5A4,4,0,0,1,2071,661.8Z" transform="translate(-249.6 -318.7)"/><path class="c" d="M2062.7,648.9a4,4,0,1,1,2.6-5A4.1,4.1,0,0,1,2062.7,648.9Z" transform="translate(-249.6 -318.7)"/><path class="c" d="M2057,631.3a4,4,0,0,1-2.4-7.7,4,4,0,0,1,5,2.6A4.1,4.1,0,0,1,2057,631.3Z" transform="translate(-249.6 -318.7)"/><path class="c" d="M2053.9,608.4a4,4,0,0,1-7.6,2.4,3.9,3.9,0,0,1,2.6-5A4,4,0,0,1,2053.9,608.4Z" transform="translate(-249.6 -318.7)"/><path class="c" d="M2045.6,595.5a4,4,0,0,1-2.4-7.7,4,4,0,0,1,2.4,7.7Z" transform="translate(-249.6 -318.7)"/><path class="c" d="M2040,577.8a4,4,0,0,1-5.1-2.6,4,4,0,0,1,2.6-5,3.9,3.9,0,0,1,5,2.6A3.9,3.9,0,0,1,2040,577.8Z" transform="translate(-249.6 -318.7)"/><path class="c" d="M2036.8,554.9a4,4,0,1,1-5-2.6A4,4,0,0,1,2036.8,554.9Z" transform="translate(-249.6 -318.7)"/><path class="c" d="M2028.5,542.1a4,4,0,0,1-5-2.6,4,4,0,0,1,7.6-2.5A4,4,0,0,1,2028.5,542.1Z" transform="translate(-249.6 -318.7)"/><path class="c" d="M2022.9,524.4a4,4,0,1,1,2.6-5A4,4,0,0,1,2022.9,524.4Z" transform="translate(-249.6 -318.7)"/><path class="c" d="M2019.8,501.5a4,4,0,1,1-5.1-2.6A4.2,4.2,0,0,1,2019.8,501.5Z" transform="translate(-249.6 -318.7)"/><path class="c" d="M2011.7,489.4a4.1,4.1,0,0,1-5.1-2.6,4,4,0,0,1,2.6-5,4,4,0,1,1,2.5,7.6Z" transform="translate(-249.6 -318.7)"/><path class="c" d="M2006,471.8a4,4,0,0,1-2.4-7.7,4,4,0,0,1,5,2.6A4.1,4.1,0,0,1,2006,471.8Z" transform="translate(-249.6 -318.7)"/><path class="c" d="M2002.9,448.8a4,4,0,0,1-2.6,5.1,4,4,0,0,1-5-2.6,4,4,0,0,1,7.6-2.5Z" transform="translate(-249.6 -318.7)"/><path class="c" d="M1994.6,436a4,4,0,1,1,2.6-5A4,4,0,0,1,1994.6,436Z" transform="translate(-249.6 -318.7)"/><path class="c" d="M1989,418.4a4,4,0,1,1,2.6-5.1A4.2,4.2,0,0,1,1989,418.4Z" transform="translate(-249.6 -318.7)"/><path class="c" d="M1985.8,395.5a3.9,3.9,0,0,1-2.5,5,4,4,0,1,1-2.5-7.6A3.9,3.9,0,0,1,1985.8,395.5Z" transform="translate(-249.6 -318.7)"/><path class="c" d="M1625.9,578.5a3.9,3.9,0,0,1,1-5.5,4,4,0,1,1,4.5,6.6A3.9,3.9,0,0,1,1625.9,578.5Z" transform="translate(-249.6 -318.7)"/><path class="c" d="M1641.1,568a4,4,0,0,1,6.6-4.5,3.9,3.9,0,0,1-1,5.5A4,4,0,0,1,1641.1,568Z" transform="translate(-249.6 -318.7)"/><path class="c" d="M1662.1,558.4a4,4,0,0,1-4.5-6.6,3.9,3.9,0,0,1,5.5,1A4,4,0,0,1,1662.1,558.4Z" transform="translate(-249.6 -318.7)"/><path class="c" d="M1672,546.7a4,4,0,1,1,6.6-4.5,4,4,0,0,1-1,5.5A4,4,0,0,1,1672,546.7Z" transform="translate(-249.6 -318.7)"/><path class="c" d="M1687.2,536.2a4,4,0,0,1,1.1-5.6,4,4,0,0,1,4.5,6.6A4,4,0,0,1,1687.2,536.2Z" transform="translate(-249.6 -318.7)"/><path class="c" d="M1708.3,526.5a4,4,0,0,1-5.6-1,3.9,3.9,0,0,1,1-5.5,4,4,0,0,1,5.6,1A4,4,0,0,1,1708.3,526.5Z" transform="translate(-249.6 -318.7)"/><path class="c" d="M1718.2,514.8a3.9,3.9,0,0,1,1-5.5,4,4,0,1,1,4.5,6.6A3.9,3.9,0,0,1,1718.2,514.8Z" transform="translate(-249.6 -318.7)"/><path class="c" d="M1733.4,504.3a4.1,4.1,0,0,1,1-5.6,4,4,0,0,1,5.6,1.1,3.9,3.9,0,0,1-1,5.5A4,4,0,0,1,1733.4,504.3Z" transform="translate(-249.6 -318.7)"/><path class="c" d="M1754.4,494.7a4,4,0,0,1-4.5-6.6,4,4,0,1,1,4.5,6.6Z" transform="translate(-249.6 -318.7)"/><path class="c" d="M1764.3,483a4,4,0,1,1,6.6-4.6,4,4,0,0,1-6.6,4.6Z" transform="translate(-249.6 -318.7)"/><path class="c" d="M1779.6,472.5a4,4,0,0,1,1-5.6,3.9,3.9,0,0,1,5.5,1,4,4,0,0,1-1,5.6A4,4,0,0,1,1779.6,472.5Z" transform="translate(-249.6 -318.7)"/><path class="c" d="M1800.6,462.8a4,4,0,1,1,1-5.5A4,4,0,0,1,1800.6,462.8Z" transform="translate(-249.6 -318.7)"/><path class="c" d="M1809.8,451.6a4.1,4.1,0,0,1,1-5.6,4,4,0,0,1,4.6,6.6A4.1,4.1,0,0,1,1809.8,451.6Z" transform="translate(-249.6 -318.7)"/><path class="c" d="M1825.1,441a3.9,3.9,0,0,1,1-5.5,4,4,0,1,1,4.5,6.6A3.9,3.9,0,0,1,1825.1,441Z" transform="translate(-249.6 -318.7)"/><path class="c" d="M1846.1,431.4a4,4,0,0,1-5.6-1,4,4,0,1,1,6.6-4.6A4,4,0,0,1,1846.1,431.4Z" transform="translate(-249.6 -318.7)"/><path class="c" d="M1856,419.7a3.9,3.9,0,0,1,1-5.5,4,4,0,0,1,5.6,1,4,4,0,0,1-6.6,4.5Z" transform="translate(-249.6 -318.7)"/><path class="c" d="M1871.2,409.2a4.1,4.1,0,0,1,1-5.6,4,4,0,0,1,5.6,1.1,3.9,3.9,0,0,1-1,5.5A4,4,0,0,1,1871.2,409.2Z" transform="translate(-249.6 -318.7)"/><path class="c" d="M1892.2,399.6a4,4,0,1,1,1-5.6A4,4,0,0,1,1892.2,399.6Z" transform="translate(-249.6 -318.7)"/><path class="c" d="M2391.2,523.8a4,4,0,1,1-.1,5.7A4.1,4.1,0,0,1,2391.2,523.8Z" transform="translate(-249.6 -318.7)"/><path class="c" d="M2404,537.2a4,4,0,0,1,5.7.1,4,4,0,1,1-5.8,5.5A4,4,0,0,1,2404,537.2Z" transform="translate(-249.6 -318.7)"/><path class="c" d="M2416.9,556.4a4.1,4.1,0,0,1,.1-5.7,4.2,4.2,0,0,1,5.7.1,4,4,0,1,1-5.8,5.6Z" transform="translate(-249.6 -318.7)"/><path class="c" d="M2430,564.3a4,4,0,1,1,5.5,5.8,4,4,0,0,1-5.6-.2A3.9,3.9,0,0,1,2430,564.3Z" transform="translate(-249.6 -318.7)"/><path class="c" d="M2442.8,577.7a4,4,0,0,1,5.7.1,4,4,0,0,1-.1,5.6,4,4,0,1,1-5.6-5.7Z" transform="translate(-249.6 -318.7)"/><path class="c" d="M2455.7,596.9a4,4,0,0,1,.1-5.7,4,4,0,1,1,5.5,5.8A4,4,0,0,1,2455.7,596.9Z" transform="translate(-249.6 -318.7)"/><path class="c" d="M2468.8,604.8a4.1,4.1,0,0,1,5.7.1,4,4,0,0,1-5.8,5.6A4.1,4.1,0,0,1,2468.8,604.8Z" transform="translate(-249.6 -318.7)"/><path class="c" d="M2481.6,618.2a4,4,0,1,1-.1,5.6A4,4,0,0,1,2481.6,618.2Z" transform="translate(-249.6 -318.7)"/><path class="c" d="M2494.5,637.4a4,4,0,1,1,5.6.1A4,4,0,0,1,2494.5,637.4Z" transform="translate(-249.6 -318.7)"/><path class="c" d="M2507.6,645.3a4,4,0,0,1,5.7.1,4.1,4.1,0,0,1-.2,5.7,4,4,0,0,1-5.6-.2A3.9,3.9,0,0,1,2507.6,645.3Z" transform="translate(-249.6 -318.7)"/><path class="c" d="M2520.4,658.6a4.1,4.1,0,0,1,5.7.2,4,4,0,0,1-.2,5.6,3.9,3.9,0,0,1-5.6-.1A4.1,4.1,0,0,1,2520.4,658.6Z" transform="translate(-249.6 -318.7)"/><path class="c" d="M2533.3,677.9a4,4,0,0,1,.1-5.7,4,4,0,1,1,5.5,5.8A4,4,0,0,1,2533.3,677.9Z" transform="translate(-249.6 -318.7)"/><circle class="c" cx="1960.5" cy="375.3" r="56.7" transform="translate(1026.4 1931.7) rotate(-80.8)"/><path class="a" d="M1942.3,352.6a18.2,18.2,0,1,1,18.2,18.2A18.2,18.2,0,0,1,1942.3,352.6Z" transform="translate(-249.6 -318.7)"/><path class="a" d="M1960.5,370.8a31.8,31.8,0,0,0-31.8,31.8h63.6A31.8,31.8,0,0,0,1960.5,370.8Z" transform="translate(-249.6 -318.7)"/><circle class="x" cx="2353" cy="475.2" r="87.3" transform="translate(1314.8 2423.9) rotate(-82.2)"/><circle class="a" cx="2103.4" cy="121.6" r="28"/><path class="a" d="M2353,468.2a49.1,49.1,0,0,0-49,49.1h98.1A49.1,49.1,0,0,0,2353,468.2Z" transform="translate(-249.6 -318.7)"/><circle class="c" cx="2571.6" cy="714.4" r="58.9" transform="translate(1357.6 2884.4) rotate(-84.3)"/><path class="a" d="M2578.5,728.5a8,8,0,0,0-.4-3.2,7.1,7.1,0,0,0-1.6-2.6,19.4,19.4,0,0,0-3-2.1,33.9,33.9,0,0,0-4.5-1.9c-3-1.1-5.7-2.2-8.2-3.4a25.9,25.9,0,0,1-6.2-4.2,15.5,15.5,0,0,1-4.1-5.4,16.2,16.2,0,0,1-1.3-7.3,15.9,15.9,0,0,1,1.4-6.6,14.9,14.9,0,0,1,3.8-5.2,17.8,17.8,0,0,1,5.8-3.6,25,25,0,0,1,7.5-1.6l.2-9.3h7.4v9.4a24.2,24.2,0,0,1,7.2,2.2,18.7,18.7,0,0,1,5.4,4.2,18.2,18.2,0,0,1,3.4,6.1,21.4,21.4,0,0,1,1.1,7.8l-13.4-.2q.2-5.2-2.1-7.8a7.9,7.9,0,0,0-6.1-2.6,8.7,8.7,0,0,0-6.2,2,7.2,7.2,0,0,0-1.4,2.4,9.4,9.4,0,0,0-.5,3,9.2,9.2,0,0,0,.4,2.9,6.7,6.7,0,0,0,1.6,2.4,14.5,14.5,0,0,0,2.9,2.1c1.3.7,2.8,1.3,4.7,2.1s5.7,2.3,8.1,3.5a28.8,28.8,0,0,1,6.3,4.2,19,19,0,0,1,4,5.4,16.7,16.7,0,0,1,1.3,7.3,16.5,16.5,0,0,1-1.4,6.8,15.8,15.8,0,0,1-3.8,5.1,20.8,20.8,0,0,1-5.8,3.5,34.9,34.9,0,0,1-7.7,1.6v8.5h-7.3v-8.5a29.7,29.7,0,0,1-7.4-1.8,21.7,21.7,0,0,1-6.4-3.8,18.6,18.6,0,0,1-4.3-6.2,22.1,22.1,0,0,1-1.6-8.9l13.4.2a15.2,15.2,0,0,0,.8,5.1,8.1,8.1,0,0,0,2.3,3.3,9.2,9.2,0,0,0,3.2,1.8,15.7,15.7,0,0,0,3.7.5,9.5,9.5,0,0,0,3.9-.5,5.9,5.9,0,0,0,2.7-1.5,4.8,4.8,0,0,0,1.7-2.3A7.2,7.2,0,0,0,2578.5,728.5Z" transform="translate(-249.6 -318.7)"/></svg>