<svg xmlns="http://www.w3.org/2000/svg" viewBox="0 0 624.6 422.8"><defs><style>.a{fill:#e0e0e0;}.b,.k{fill:#fff;}.c,.j{opacity:0.3;}.d{fill:#ebebeb;}.e{fill:#263238;}.f{fill:#455a64;}.g{fill:#e8505b;}.h{fill:#ffbe9d;}.i{fill:#fafafa;}.k,.t{opacity:0.5;}.l{fill:#eb996e;}.m{opacity:0.2;}.n{opacity:0.4;}.o{opacity:0.7;}.p{fill:#b78876;}.q{fill:#aa6550;}.r{fill:#f5f5f5;}.s{opacity:0.8;}.u{opacity:0.6;}</style></defs><path class="a" d="M674,338.4c0-.2.9-.3,1.9-.3s2,.1,2,.3-.9.3-2,.3S674,338.6,674,338.4Z" transform="translate(-61.6 -46.2)"/><path class="a" d="M666.3,338.4c0-.2.9-.3,1.9-.3s2,.1,2,.3-.9.3-2,.3S666.3,338.6,666.3,338.4Z" transform="translate(-61.6 -46.2)"/><path class="a" d="M658.6,338.4c0-.2.9-.3,1.9-.3s1.9.1,1.9.3-.8.3-1.9.3S658.6,338.6,658.6,338.4Z" transform="translate(-61.6 -46.2)"/><path class="a" d="M650.9,338.4c0-.2.8-.3,1.9-.3s1.9.1,1.9.3-.8.3-1.9.3S650.9,338.6,650.9,338.4Z" transform="translate(-61.6 -46.2)"/><path class="a" d="M643.2,338.4c0-.2.8-.3,1.9-.3s1.9.1,1.9.3-.8.3-1.9.3S643.2,338.6,643.2,338.4Z" transform="translate(-61.6 -46.2)"/><path class="a" d="M635.5,338.4c0-.2.8-.3,1.9-.3s1.9.1,1.9.3-.8.3-1.9.3S635.5,338.6,635.5,338.4Z" transform="translate(-61.6 -46.2)"/><path class="a" d="M627.8,338.4c0-.2.8-.3,1.9-.3s1.9.1,1.9.3-.8.3-1.9.3S627.8,338.6,627.8,338.4Z" transform="translate(-61.6 -46.2)"/><path class="a" d="M620.1,338.4c0-.2.8-.3,1.9-.3s1.9.1,1.9.3-.9.3-1.9.3S620.1,338.6,620.1,338.4Z" transform="translate(-61.6 -46.2)"/><path class="a" d="M612.3,338.4c0-.2.9-.3,2-.3s1.9.1,1.9.3-.9.3-1.9.3S612.3,338.6,612.3,338.4Z" transform="translate(-61.6 -46.2)"/><path class="a" d="M604.6,338.4c0-.2.9-.3,2-.3s1.9.1,1.9.3-.9.3-1.9.3S604.6,338.6,604.6,338.4Z" transform="translate(-61.6 -46.2)"/><path class="a" d="M596.9,338.4c0-.2.9-.3,2-.3s1.9.1,1.9.3-.9.3-1.9.3S596.9,338.6,596.9,338.4Z" transform="translate(-61.6 -46.2)"/><path class="a" d="M589.2,338.4c0-.2.9-.3,1.9-.3s2,.1,2,.3-.9.3-2,.3S589.2,338.6,589.2,338.4Z" transform="translate(-61.6 -46.2)"/><path class="a" d="M583.7,336.2c.2,0,.4.8.4,1.9v.3l-.4-.3c1,0,1.7.1,1.7.3s-.7.3-1.7.3h-.3v-.6C583.4,337,583.5,336.2,583.7,336.2Z" transform="translate(-61.6 -46.2)"/><path class="a" d="M583.7,328.5c.2,0,.4.8.4,1.9s-.2,1.9-.4,1.9-.3-.8-.3-1.9S583.5,328.5,583.7,328.5Z" transform="translate(-61.6 -46.2)"/><path class="a" d="M583.7,320.8c.2,0,.4.8.4,1.9s-.2,1.9-.4,1.9-.3-.9-.3-1.9S583.5,320.8,583.7,320.8Z" transform="translate(-61.6 -46.2)"/><path class="a" d="M583.7,313c.2,0,.4.9.4,2s-.2,1.9-.4,1.9-.3-.9-.3-1.9S583.5,313,583.7,313Z" transform="translate(-61.6 -46.2)"/><path class="a" d="M583.7,305.3c.2,0,.4.9.4,2s-.2,1.9-.4,1.9-.3-.9-.3-1.9S583.5,305.3,583.7,305.3Z" transform="translate(-61.6 -46.2)"/><path class="a" d="M583.7,297.6c.2,0,.4.9.4,2s-.2,1.9-.4,1.9-.3-.9-.3-1.9S583.5,297.6,583.7,297.6Z" transform="translate(-61.6 -46.2)"/><path class="a" d="M583.7,289.9c.2,0,.4.9.4,2s-.2,1.9-.4,1.9-.3-.9-.3-1.9S583.5,289.9,583.7,289.9Z" transform="translate(-61.6 -46.2)"/><path class="a" d="M583.7,282.2c.2,0,.4.9.4,1.9s-.2,2-.4,2-.3-.9-.3-2S583.5,282.2,583.7,282.2Z" transform="translate(-61.6 -46.2)"/><path class="a" d="M583.7,274.5c.2,0,.4.9.4,1.9s-.2,2-.4,2-.3-.9-.3-2S583.5,274.5,583.7,274.5Z" transform="translate(-61.6 -46.2)"/><path class="a" d="M583.7,266.8c.2,0,.4.9.4,1.9s-.2,2-.4,2-.3-.9-.3-2S583.5,266.8,583.7,266.8Z" transform="translate(-61.6 -46.2)"/><path class="a" d="M583.7,259.1c.2,0,.4.9.4,1.9s-.2,2-.4,2-.3-.9-.3-2S583.5,259.1,583.7,259.1Z" transform="translate(-61.6 -46.2)"/><path class="a" d="M583.7,251.4c.2,0,.4.9.4,1.9s-.2,1.9-.4,1.9-.3-.8-.3-1.9S583.5,251.4,583.7,251.4Z" transform="translate(-61.6 -46.2)"/><path class="a" d="M584.3,244.3l-.6.2.3-.2c0,.3.1.8.1,1.3s-.2,1.9-.4,1.9-.3-.8-.3-1.9a4.9,4.9,0,0,1,.1-1.3V244h.2Q584.3,244.2,584.3,244.3Z" transform="translate(-61.6 -46.2)"/><path class="a" d="M592,244.3a6.2,6.2,0,0,1-3.8,0c0-.2.8-.4,1.9-.4S592,244.1,592,244.3Z" transform="translate(-61.6 -46.2)"/><path class="a" d="M599.7,244.3a6.2,6.2,0,0,1-3.8,0c0-.2.8-.4,1.9-.4S599.7,244.1,599.7,244.3Z" transform="translate(-61.6 -46.2)"/><path class="a" d="M607.4,244.3a6.2,6.2,0,0,1-3.8,0c0-.2.8-.4,1.9-.4S607.4,244.1,607.4,244.3Z" transform="translate(-61.6 -46.2)"/><path class="a" d="M615.1,244.3a6.2,6.2,0,0,1-3.8,0c0-.2.8-.4,1.9-.4S615.1,244.1,615.1,244.3Z" transform="translate(-61.6 -46.2)"/><path class="a" d="M622.8,244.3a3.8,3.8,0,0,1-1.9.3,4.2,4.2,0,0,1-1.9-.3c0-.2.9-.4,1.9-.4S622.8,244.1,622.8,244.3Z" transform="translate(-61.6 -46.2)"/><ellipse class="a" cx="567" cy="198" rx="1.9" ry="0.3"/><path class="a" d="M638.3,244.3a4.4,4.4,0,0,1-2,.3,4.2,4.2,0,0,1-1.9-.3c0-.2.9-.4,1.9-.4S638.3,244.1,638.3,244.3Z" transform="translate(-61.6 -46.2)"/><path class="a" d="M646,244.3a4.4,4.4,0,0,1-2,.3,4.2,4.2,0,0,1-1.9-.3c0-.2.9-.4,1.9-.4S646,244.1,646,244.3Z" transform="translate(-61.6 -46.2)"/><path class="a" d="M653.7,244.3a4.4,4.4,0,0,1-2,.3,4.2,4.2,0,0,1-1.9-.3c0-.2.9-.4,1.9-.4S653.7,244.1,653.7,244.3Z" transform="translate(-61.6 -46.2)"/><path class="a" d="M661.4,244.3a4.2,4.2,0,0,1-1.9.3,4.4,4.4,0,0,1-2-.3c0-.2.9-.4,2-.4S661.4,244.1,661.4,244.3Z" transform="translate(-61.6 -46.2)"/><path class="a" d="M669.1,244.3a4.2,4.2,0,0,1-1.9.3,4.4,4.4,0,0,1-2-.3c0-.2.9-.4,2-.4S669.1,244.1,669.1,244.3Z" transform="translate(-61.6 -46.2)"/><path class="a" d="M676.8,244.3a4.2,4.2,0,0,1-1.9.3,4.4,4.4,0,0,1-2-.3c0-.2.9-.4,2-.4S676.8,244.1,676.8,244.3Z" transform="translate(-61.6 -46.2)"/><path class="a" d="M677.9,250.9c-.2,0-.4-.9-.4-1.9s.2-1.9.4-1.9a3.8,3.8,0,0,1,.3,1.9A4.2,4.2,0,0,1,677.9,250.9Z" transform="translate(-61.6 -46.2)"/><path class="a" d="M677.9,258.6c-.2,0-.4-.8-.4-1.9s.2-1.9.4-1.9a6.2,6.2,0,0,1,0,3.8Z" transform="translate(-61.6 -46.2)"/><path class="a" d="M677.9,266.3c-.2,0-.4-.8-.4-1.9s.2-1.9.4-1.9a6.2,6.2,0,0,1,0,3.8Z" transform="translate(-61.6 -46.2)"/><path class="a" d="M677.9,274c-.2,0-.4-.8-.4-1.9s.2-1.9.4-1.9a6.2,6.2,0,0,1,0,3.8Z" transform="translate(-61.6 -46.2)"/><path class="a" d="M677.9,281.7c-.2,0-.4-.8-.4-1.9s.2-1.9.4-1.9a6.2,6.2,0,0,1,0,3.8Z" transform="translate(-61.6 -46.2)"/><path class="a" d="M677.9,289.4c-.2,0-.4-.8-.4-1.9s.2-1.9.4-1.9a4.2,4.2,0,0,1,.3,1.9A3.8,3.8,0,0,1,677.9,289.4Z" transform="translate(-61.6 -46.2)"/><path class="a" d="M677.9,297.2c-.2,0-.4-.9-.4-2s.2-1.9.4-1.9a4.2,4.2,0,0,1,.3,1.9A4.4,4.4,0,0,1,677.9,297.2Z" transform="translate(-61.6 -46.2)"/><path class="a" d="M677.9,304.9c-.2,0-.4-.9-.4-2s.2-1.9.4-1.9a4.2,4.2,0,0,1,.3,1.9A4.4,4.4,0,0,1,677.9,304.9Z" transform="translate(-61.6 -46.2)"/><path class="a" d="M677.9,312.6c-.2,0-.4-.9-.4-2s.2-1.9.4-1.9a4.2,4.2,0,0,1,.3,1.9A4.4,4.4,0,0,1,677.9,312.6Z" transform="translate(-61.6 -46.2)"/><path class="a" d="M677.9,320.3c-.2,0-.4-.9-.4-2s.2-1.9.4-1.9a4.2,4.2,0,0,1,.3,1.9A4.4,4.4,0,0,1,677.9,320.3Z" transform="translate(-61.6 -46.2)"/><path class="a" d="M677.9,328c-.2,0-.4-.9-.4-1.9s.2-2,.4-2a4.4,4.4,0,0,1,.3,2A4.2,4.2,0,0,1,677.9,328Z" transform="translate(-61.6 -46.2)"/><path class="a" d="M677.9,335.7c-.2,0-.4-.9-.4-1.9s.2-2,.4-2a4.4,4.4,0,0,1,.3,2A4.2,4.2,0,0,1,677.9,335.7Z" transform="translate(-61.6 -46.2)"/><rect class="a" x="612.7" y="287.7" width="7" height="6.97"/><rect class="a" x="518.6" y="288.7" width="7" height="6.97"/><rect class="a" x="612.7" y="193.9" width="7" height="6.97"/><rect class="a" x="518.6" y="194.5" width="7" height="6.97"/><rect class="b" x="223.3" y="27.4" width="135.1" height="90.49"/><path class="a" d="M420.1,164.2a11.5,11.5,0,0,1-.1-1.7v-23c-.1-15.7-.1-38.3-.1-65.8l.2.2H284.9l.3-.2c-.1,32.2-.1,62.9-.1,90.5l-.2-.3h-.2v-91H420.2v.2c0,27.6,0,50.2-.1,66v24.5Z" transform="translate(-61.6 -46.2)"/><path class="a" d="M284.9,81.7c0-.1,30.2-.2,67.5-.2s67.5.1,67.5.2-30.2.3-67.5.3S284.9,81.9,284.9,81.7Z" transform="translate(-61.6 -46.2)"/><g class="c"><path class="a" d="M290.2,77.7a1,1,0,0,1-1,1.1,1.1,1.1,0,1,1,0-2.2A1,1,0,0,1,290.2,77.7Z" transform="translate(-61.6 -46.2)"/></g><g class="c"><path class="a" d="M294,77.7a1.1,1.1,0,1,1-1.1-1.1A1.1,1.1,0,0,1,294,77.7Z" transform="translate(-61.6 -46.2)"/></g><g class="c"><path class="a" d="M297.6,77.7a1.1,1.1,0,1,1-1.1-1.1A1.1,1.1,0,0,1,297.6,77.7Z" transform="translate(-61.6 -46.2)"/></g><rect class="a" x="234.9" y="44.9" width="36" height="36.05"/><path class="a" d="M401.5,101.4c0,.1-14,.2-31.4.2s-31.4-.1-31.4-.2,14.1-.3,31.4-.3S401.5,101.2,401.5,101.4Z" transform="translate(-61.6 -46.2)"/><path class="a" d="M401.5,108.1c0,.1-14,.2-31.4.2s-31.4-.1-31.4-.2,14.1-.3,31.4-.3S401.5,107.9,401.5,108.1Z" transform="translate(-61.6 -46.2)"/><path class="a" d="M401.5,114.8c0,.1-14,.2-31.4.2s-31.4-.1-31.4-.2,14.1-.3,31.4-.3S401.5,114.6,401.5,114.8Z" transform="translate(-61.6 -46.2)"/><path class="a" d="M375.8,121.5h0Z" transform="translate(-61.6 -46.2)"/><rect class="a" x="237.2" y="93.2" width="16.9" height="16.94"/><rect class="a" x="267.9" y="93.2" width="16.9" height="16.94"/><rect class="a" x="298.6" y="93.2" width="16.9" height="16.94"/><rect class="a" x="329.3" y="93.2" width="16.9" height="16.94"/><polygon class="a" points="13.5 30.9 116.2 30.9 116.2 179.8 14.2 179.8 13.5 30.9"/><rect class="b" x="67.5" y="77.8" width="101.7" height="147.48" transform="translate(175 256.9) rotate(180)"/><path class="a" d="M169.9,77.1V226H66.8V77.1Zm-1.4,147.5V78.5H68.2V224.6Z" transform="translate(-61.6 -46.2)"/><rect class="b" x="18.5" y="47.5" width="76.5" height="115.53"/><path class="a" d="M80.1,93.8V96c.1,1.5.1,3.6.1,6.3,0,5.6,0,13.7.1,23.8,0,20.4.1,49.3.1,83.2l-.3-.3h76.5l-.4.3c0-43.6.1-83.7.1-115.5l.3.3-55.7-.2h56V209.7H79.8v-.3c0-34,.1-62.9.1-83.4.1-10.1.1-18.2.1-23.7,0-2.7.1-4.8.1-6.3V93.8Z" transform="translate(-61.6 -46.2)"/><path class="a" d="M67.2,225.3c-.1-.1.5-1,1.6-2.5s2.7-3.6,4.4-5.8l4.7-5.6,2.2-2.1c.2.2-2.8,3.7-6.3,8.1A86,86,0,0,1,67.2,225.3Z" transform="translate(-61.6 -46.2)"/><path class="a" d="M67.5,77.8a92.8,92.8,0,0,1,6.6,7.8c3.5,4.4,6.2,8.1,6,8.2A92.8,92.8,0,0,1,73.5,86C70,81.6,67.3,77.9,67.5,77.8Z" transform="translate(-61.6 -46.2)"/><path class="b" d="M169.2,77.9,155.9,94.4" transform="translate(-61.6 -46.2)"/><path class="a" d="M155.9,94.4c-.2-.2,2.7-3.9,6.4-8.5s6.8-8.1,6.9-8-2.7,3.9-6.4,8.5S156.1,94.5,155.9,94.4Z" transform="translate(-61.6 -46.2)"/><path class="a" d="M169.2,225.3a73.7,73.7,0,0,1-6.5-7.7,84.1,84.1,0,0,1-6-8.1c.2-.1,3.1,3.3,6.5,7.7S169.4,225.2,169.2,225.3Z" transform="translate(-61.6 -46.2)"/><path class="a" d="M123.3,153.2H109.8l-1.6,3.7a9.4,9.4,0,0,0-.8,3.1,2.7,2.7,0,0,0,1.3,2.4,10.6,10.6,0,0,0,3.8.6v1.1H99.8V163a5.3,5.3,0,0,0,3.4-1.7,25,25,0,0,0,3.2-5.7L120,125.2h.6l13.7,31.2c1.3,3,2.4,4.9,3.2,5.6a4.6,4.6,0,0,0,2.7,1v1.1H121.8V163h.8a6,6,0,0,0,3.1-.6,1.5,1.5,0,0,0,.6-1.3,3.6,3.6,0,0,0-.2-1,13.1,13.1,0,0,0-.8-2.1Zm-1-2L116.6,138l-5.8,13.2Z" transform="translate(-61.6 -46.2)"/><path class="a" d="M461,104.9c0-.1.6-.2,1.2-.2h.4v.2a2.8,2.8,0,0,1,.1-.8c.1,0,.1.3.1.8H461Z" transform="translate(-61.6 -46.2)"/><path class="a" d="M457.9,104.9c0-.1.3-.2.8-.2s.8.1.8.2h-1.6Z" transform="translate(-61.6 -46.2)"/><path class="a" d="M454.7,104.9c0-.1.4-.2.8-.2s.8.1.8.2h-1.6Z" transform="translate(-61.6 -46.2)"/><path class="a" d="M451.6,104.9c0-.1.3-.2.8-.2s.8.1.8.2h-1.6Z" transform="translate(-61.6 -46.2)"/><path class="a" d="M448.4,104.9c0-.1.4-.2.8-.2s.8.1.8.2h-1.6Z" transform="translate(-61.6 -46.2)"/><path class="a" d="M445.3,104.9c0-.1.3-.2.8-.2s.8.1.8.2h-1.6Z" transform="translate(-61.6 -46.2)"/><path class="a" d="M442.1,104.9c0-.1.4-.2.8-.2s.8.1.8.2h-1.6Z" transform="translate(-61.6 -46.2)"/><path class="a" d="M439,104.9c0-.1.3-.2.8-.2s.7.1.7.2H439Z" transform="translate(-61.6 -46.2)"/><path class="a" d="M435.8,104.9c0-.1.4-.2.8-.2s.8.1.8.2h-1.6Z" transform="translate(-61.6 -46.2)"/><path class="a" d="M432.7,104.9c0-.1.3-.2.8-.2s.7.1.7.2h-1.5Z" transform="translate(-61.6 -46.2)"/><path class="a" d="M429.5,104.9c0-.1.4-.2.8-.2s.8.1.8.2h-1.6Z" transform="translate(-61.6 -46.2)"/><path class="a" d="M426.4,104.9c0-.1.3-.2.7-.2s.8.1.8.2h-1.5Z" transform="translate(-61.6 -46.2)"/><path class="a" d="M423.2,104.9c0-.1.4-.2.8-.2s.8.1.8.2h-1.6Z" transform="translate(-61.6 -46.2)"/><path class="a" d="M420.1,104.9c0-.1.3-.2.7-.2s.8.1.8.2h-1.5Z" transform="translate(-61.6 -46.2)"/><path class="a" d="M416.9,104.9c0-.1.4-.2.8-.2s.8.1.8.2h-1.6Z" transform="translate(-61.6 -46.2)"/><path class="a" d="M413.8,104.9c0-.1.3-.2.7-.2s.8.1.8.2h-1.5Z" transform="translate(-61.6 -46.2)"/><path class="a" d="M410.6,104.9c0-.1.4-.2.8-.2s.8.1.8.2h-1.6Z" transform="translate(-61.6 -46.2)"/><path class="a" d="M407.4,104.9c0-.1.4-.2.8-.2s.8.1.8.2h-1.6Z" transform="translate(-61.6 -46.2)"/><path class="a" d="M406.5,102.7a3.2,3.2,0,0,1,0,1.6c-.1,0-.2-.4-.2-.8S406.4,102.7,406.5,102.7Z" transform="translate(-61.6 -46.2)"/><path class="a" d="M406.5,99.5a3.8,3.8,0,0,1,.1.8,2.8,2.8,0,0,1-.1.8c-.1,0-.2-.3-.2-.8S406.4,99.5,406.5,99.5Z" transform="translate(-61.6 -46.2)"/><path class="a" d="M406.5,96.4a2.8,2.8,0,0,1,.1.8,3.8,3.8,0,0,1-.1.8c-.1,0-.2-.4-.2-.8S406.4,96.4,406.5,96.4Z" transform="translate(-61.6 -46.2)"/><path class="a" d="M406.5,93.2a3.8,3.8,0,0,1,.1.8,2.8,2.8,0,0,1-.1.8c-.1,0-.2-.3-.2-.8S406.4,93.2,406.5,93.2Z" transform="translate(-61.6 -46.2)"/><path class="a" d="M406.5,90.1a2.8,2.8,0,0,1,.1.8,3.8,3.8,0,0,1-.1.8c-.1,0-.2-.4-.2-.8S406.4,90.1,406.5,90.1Z" transform="translate(-61.6 -46.2)"/><path class="a" d="M406.5,86.9a3.8,3.8,0,0,1,.1.8,2.8,2.8,0,0,1-.1.8c-.1,0-.2-.3-.2-.8S406.4,86.9,406.5,86.9Z" transform="translate(-61.6 -46.2)"/><path class="a" d="M406.5,83.8a2.8,2.8,0,0,1,.1.8,3.8,3.8,0,0,1-.1.8c-.1,0-.2-.4-.2-.8S406.4,83.8,406.5,83.8Z" transform="translate(-61.6 -46.2)"/><path class="a" d="M406.5,80.6a3.8,3.8,0,0,1,.1.8,2.8,2.8,0,0,1-.1.8c-.1,0-.2-.3-.2-.8S406.4,80.6,406.5,80.6Z" transform="translate(-61.6 -46.2)"/><path class="a" d="M406.5,77.5a2.8,2.8,0,0,1,.1.8,3.8,3.8,0,0,1-.1.8c-.1,0-.2-.4-.2-.8S406.4,77.5,406.5,77.5Z" transform="translate(-61.6 -46.2)"/><path class="a" d="M406.5,74.3a3.8,3.8,0,0,1,.1.8,2.8,2.8,0,0,1-.1.8c-.1,0-.2-.3-.2-.8S406.4,74.3,406.5,74.3Z" transform="translate(-61.6 -46.2)"/><path class="a" d="M406.5,71.2a2.8,2.8,0,0,1,.1.8,3.8,3.8,0,0,1-.1.8c-.1,0-.2-.4-.2-.8S406.4,71.2,406.5,71.2Z" transform="translate(-61.6 -46.2)"/><path class="a" d="M406.5,68a3.2,3.2,0,0,1,0,1.6c-.1,0-.2-.4-.2-.8S406.4,68,406.5,68Z" transform="translate(-61.6 -46.2)"/><path class="a" d="M406.5,64.9a2.8,2.8,0,0,1,.1.8,2.4,2.4,0,0,1-.1.7c-.1,0-.2-.3-.2-.7S406.4,64.9,406.5,64.9Z" transform="translate(-61.6 -46.2)"/><path class="a" d="M406.5,61.7a3.2,3.2,0,0,1,0,1.6c-.1,0-.2-.4-.2-.8S406.4,61.7,406.5,61.7Z" transform="translate(-61.6 -46.2)"/><path class="a" d="M406.5,58.6a2.8,2.8,0,0,1,.1.8,2.4,2.4,0,0,1-.1.7c-.1,0-.2-.3-.2-.7S406.4,58.6,406.5,58.6Z" transform="translate(-61.6 -46.2)"/><path class="a" d="M406.5,55.4a3.2,3.2,0,0,1,0,1.6c-.1,0-.2-.4-.2-.8S406.4,55.4,406.5,55.4Z" transform="translate(-61.6 -46.2)"/><path class="a" d="M406.5,52.3a2.8,2.8,0,0,1,.1.8,2.4,2.4,0,0,1-.1.7c-.1,0-.2-.3-.2-.7S406.4,52.3,406.5,52.3Z" transform="translate(-61.6 -46.2)"/><path class="a" d="M406.5,49.1a3.2,3.2,0,0,1,0,1.6c-.1,0-.2-.4-.2-.8S406.4,49.1,406.5,49.1Z" transform="translate(-61.6 -46.2)"/><path class="a" d="M409.2,48.7c0,.1-.3.2-.8.2s-.8-.1-.8-.2.4-.1.8-.1S409.2,48.6,409.2,48.7Z" transform="translate(-61.6 -46.2)"/><path class="a" d="M412.4,48.7c0,.1-.4.2-.8.2s-.8-.1-.8-.2.4-.1.8-.1S412.4,48.6,412.4,48.7Z" transform="translate(-61.6 -46.2)"/><path class="a" d="M415.5,48.7c0,.1-.3.2-.8.2s-.7-.1-.7-.2.3-.1.7-.1S415.5,48.6,415.5,48.7Z" transform="translate(-61.6 -46.2)"/><path class="a" d="M418.7,48.7c0,.1-.4.2-.8.2s-.8-.1-.8-.2.4-.1.8-.1S418.7,48.6,418.7,48.7Z" transform="translate(-61.6 -46.2)"/><path class="a" d="M421.8,48.7c0,.1-.3.2-.8.2s-.7-.1-.7-.2.3-.1.7-.1S421.8,48.6,421.8,48.7Z" transform="translate(-61.6 -46.2)"/><path class="a" d="M425,48.7c0,.1-.4.2-.8.2l-.8-.2c0-.1.4-.1.8-.1S425,48.6,425,48.7Z" transform="translate(-61.6 -46.2)"/><path class="a" d="M428.1,48.7c0,.1-.3.2-.8.2s-.7-.1-.7-.2.3-.1.7-.1S428.1,48.6,428.1,48.7Z" transform="translate(-61.6 -46.2)"/><path class="a" d="M431.3,48.7l-.8.2-.8-.2c0-.1.4-.1.8-.1S431.3,48.6,431.3,48.7Z" transform="translate(-61.6 -46.2)"/><path class="a" d="M434.4,48.7c0,.1-.3.2-.7.2s-.8-.1-.8-.2.3-.1.8-.1S434.4,48.6,434.4,48.7Z" transform="translate(-61.6 -46.2)"/><path class="a" d="M437.6,48.7l-.8.2c-.4,0-.8-.1-.8-.2s.4-.1.8-.1S437.6,48.6,437.6,48.7Z" transform="translate(-61.6 -46.2)"/><path class="a" d="M440.7,48.7c0,.1-.3.2-.7.2s-.8-.1-.8-.2.3-.1.8-.1S440.7,48.6,440.7,48.7Z" transform="translate(-61.6 -46.2)"/><path class="a" d="M443.9,48.7c0,.1-.4.2-.8.2s-.8-.1-.8-.2.4-.1.8-.1S443.9,48.6,443.9,48.7Z" transform="translate(-61.6 -46.2)"/><path class="a" d="M447.1,48.7l-.8.2c-.5,0-.8-.1-.8-.2s.3-.1.8-.1S447.1,48.6,447.1,48.7Z" transform="translate(-61.6 -46.2)"/><path class="a" d="M450.2,48.7c0,.1-.3.2-.8.2s-.8-.1-.8-.2.4-.1.8-.1S450.2,48.6,450.2,48.7Z" transform="translate(-61.6 -46.2)"/><path class="a" d="M453.4,48.7c0,.1-.4.2-.8.2s-.8-.1-.8-.2.3-.1.8-.1S453.4,48.6,453.4,48.7Z" transform="translate(-61.6 -46.2)"/><path class="a" d="M456.5,48.7c0,.1-.3.2-.8.2l-.8-.2c0-.1.4-.1.8-.1S456.5,48.6,456.5,48.7Z" transform="translate(-61.6 -46.2)"/><path class="a" d="M459.7,48.7c0,.1-.4.2-.8.2s-.8-.1-.8-.2.3-.1.8-.1S459.7,48.6,459.7,48.7Z" transform="translate(-61.6 -46.2)"/><path class="a" d="M462.6,48.9v-.2H462l-.8-.2c0-.1.4-.1.8-.1h.7Z" transform="translate(-61.6 -46.2)"/><path class="a" d="M462.6,52.1c-.1,0-.1-.4-.1-.8s0-.8.1-.8.1.3.1.8S462.7,52.1,462.6,52.1Z" transform="translate(-61.6 -46.2)"/><path class="a" d="M462.6,55.2c-.1,0-.1-.3-.1-.8s0-.8.1-.8.1.4.1.8S462.7,55.2,462.6,55.2Z" transform="translate(-61.6 -46.2)"/><path class="a" d="M462.6,58.4c-.1,0-.1-.4-.1-.8s0-.8.1-.8.1.4.1.8S462.7,58.4,462.6,58.4Z" transform="translate(-61.6 -46.2)"/><path class="a" d="M462.6,61.5c-.1,0-.1-.3-.1-.8s0-.7.1-.7.1.3.1.7S462.7,61.5,462.6,61.5Z" transform="translate(-61.6 -46.2)"/><path class="a" d="M462.6,64.7c-.1,0-.1-.4-.1-.8s0-.8.1-.8.1.4.1.8S462.7,64.7,462.6,64.7Z" transform="translate(-61.6 -46.2)"/><path class="a" d="M462.6,67.8c-.1,0-.1-.3-.1-.8s0-.7.1-.7.1.3.1.7S462.7,67.8,462.6,67.8Z" transform="translate(-61.6 -46.2)"/><path class="a" d="M462.6,71c-.1,0-.1-.4-.1-.8s0-.8.1-.8.1.4.1.8S462.7,71,462.6,71Z" transform="translate(-61.6 -46.2)"/><path class="a" d="M462.6,74.1c-.1,0-.1-.3-.1-.7s0-.8.1-.8.1.3.1.8S462.7,74.1,462.6,74.1Z" transform="translate(-61.6 -46.2)"/><path class="a" d="M462.6,77.3c-.1,0-.1-.4-.1-.8s0-.8.1-.8.1.4.1.8S462.7,77.3,462.6,77.3Z" transform="translate(-61.6 -46.2)"/><path class="a" d="M462.6,80.4c-.1,0-.1-.3-.1-.7s0-.8.1-.8.1.3.1.8S462.7,80.4,462.6,80.4Z" transform="translate(-61.6 -46.2)"/><path class="a" d="M462.6,83.6c-.1,0-.1-.4-.1-.8s0-.8.1-.8.1.4.1.8S462.7,83.6,462.6,83.6Z" transform="translate(-61.6 -46.2)"/><path class="a" d="M462.6,86.7c-.1,0-.1-.3-.1-.7s0-.8.1-.8.1.3.1.8S462.7,86.7,462.6,86.7Z" transform="translate(-61.6 -46.2)"/><path class="a" d="M462.6,89.9c-.1,0-.1-.4-.1-.8s0-.8.1-.8.1.4.1.8S462.7,89.9,462.6,89.9Z" transform="translate(-61.6 -46.2)"/><path class="a" d="M462.6,93.1c-.1,0-.1-.4-.1-.8s0-.8.1-.8.1.3.1.8S462.7,93.1,462.6,93.1Z" transform="translate(-61.6 -46.2)"/><path class="a" d="M462.6,96.2c-.1,0-.1-.3-.1-.8s0-.8.1-.8.1.4.1.8S462.7,96.2,462.6,96.2Z" transform="translate(-61.6 -46.2)"/><path class="a" d="M462.6,99.4c-.1,0-.1-.4-.1-.8s0-.8.1-.8.1.3.1.8S462.7,99.4,462.6,99.4Z" transform="translate(-61.6 -46.2)"/><path class="a" d="M462.6,102.5c-.1,0-.1-.3-.1-.8s0-.8.1-.8.1.4.1.8S462.7,102.5,462.6,102.5Z" transform="translate(-61.6 -46.2)"/><rect class="a" x="398.9" y="56" width="4.2" height="4.16"/><rect class="a" x="342.7" y="56.6" width="4.2" height="4.16"/><rect class="a" x="398.9" width="4.2" height="4.16"/><rect class="a" x="342.7" y="0.4" width="4.2" height="4.16"/><path class="d" d="M662.1,103.9h-3.3l-7.4-10.2V87s-5.2-.3-4.6,8.4,0,6.6,0,6.6-11,0-12,1-.9,11.7-1,17.6a6.3,6.3,0,0,0,4.5,6.5h1.2c2.8,0,16.8-2.2,16.8-2.2h5.8Z" transform="translate(-61.6 -46.2)"/><polygon class="d" points="610.1 55.8 608.1 78.8 602.3 78.8 602.3 56.3 610.1 55.8"/><path class="e" d="M681.3,468.8c0,.1-137.2.2-306.3.2s-306.3-.1-306.3-.2,137.1-.3,306.3-.3S681.3,468.6,681.3,468.8Z" transform="translate(-61.6 -46.2)"/><path class="e" d="M553.3,351.6c1-.2,9.2,37.2,8.1,51.7s-8.1,65.1-8.1,65.1H519.7l-6.1-71.5,1.2,71.5H469.6s-10.5-49.2-8.7-64.1,11.9-54,11.9-54Z" transform="translate(-61.6 -46.2)"/><path class="f" d="M517,360.2a7.9,7.9,0,0,1,.1,1.4c0,.9,0,2.2-.1,3.8,0,3.2-.2,7.7-.7,12.6s-.9,9.3-1.4,12.5c-.2,1.5-.4,2.8-.6,3.7l-.3,1.4s0-.5.1-1.4.3-2.3.4-3.8c.4-3.2.9-7.6,1.3-12.5s.7-9.3.9-12.5a37.9,37.9,0,0,1,.2-3.8A7.9,7.9,0,0,1,517,360.2Z" transform="translate(-61.6 -46.2)"/><path class="f" d="M523.1,363.2h.7a3.3,3.3,0,0,1,1.8,1.1,2.6,2.6,0,0,1,.6,1.3,2.2,2.2,0,0,1-.1,1.6,3.1,3.1,0,0,1-6-1.8,2.4,2.4,0,0,1,.7-1.2,3.2,3.2,0,0,1,1.9-.9,1,1,0,0,1,.7.2h-.7a2.9,2.9,0,0,0-1.6.9,2.6,2.6,0,0,0-.5,2.6,2.7,2.7,0,0,0,2.5,1.8,2.9,2.9,0,0,0,2.6-1.7,2.6,2.6,0,0,0-.4-2.6,4.4,4.4,0,0,0-1.5-1.1C523.3,363.3,523.1,363.3,523.1,363.2Z" transform="translate(-61.6 -46.2)"/><path class="f" d="M558.3,369.5a2.5,2.5,0,0,1-.9.3,9.8,9.8,0,0,1-2.5.5,16.8,16.8,0,0,1-8.3-1.4,16.4,16.4,0,0,1-6.4-5.6,9.9,9.9,0,0,1-1.2-2.2l-.3-.9c.1,0,.6,1.2,1.8,2.9a18,18,0,0,0,6.3,5.3,16.1,16.1,0,0,0,8.1,1.5C557,369.8,558.3,369.4,558.3,369.5Z" transform="translate(-61.6 -46.2)"/><path class="e" d="M481.4,190.3c-2.5,9.3-6.4,16.7-10.2,20.5s-7.8,8.1-7.6,13.4c0,2,.7,4.3-.2,6.1s-4.3,3-6.7,4.3a11.2,11.2,0,0,0-5.2,10.1,15.9,15.9,0,0,0,4.9,10.6c3,3,7.6,5,11.2,3s3.5-3.6,4.6-5.8c5.7-11.7,10.9-23.6,15.5-35.7" transform="translate(-61.6 -46.2)"/><path class="e" d="M504.9,150.6a23.8,23.8,0,0,1,41.6,16.2c0,6.2-2.5,12.8,0,18.5,1.7,4,5.8,7.1,6.3,11.4s-3.7,9.7-3.4,14.8c.1,3.3,2.2,6.2,4.6,8.5s5.2,4.2,7.4,6.7c6.1,7,6.5,18,1.9,26s-13.6,13-22.8,14.1-18.5-1.4-26.7-5.8c-5.3-2.9-10.2-6.7-13.4-11.8s-4.2-11.8-1.7-17.3" transform="translate(-61.6 -46.2)"/><path class="a" d="M524.4,228s20.8,6.2,22.8,9.4,8.5,41.9,8.5,41.9L543,324.6s10.5,17,11,25.6c-23.5,15.1-50.1,10.9-77.9-1.3l-1.9-44.4-2.7-70.8,17.1-6Z" transform="translate(-61.6 -46.2)"/><path class="g" d="M547.5,333.8h-.8l-2.2-.2-8-.6-26.4-2.3-26.3-2.5-8-.8-2.2-.2c-.5-.1-.8-.1-.8-.2h3l8,.6,26.4,2.3,26.4,2.5,8,.8,2.1.3Z" transform="translate(-61.6 -46.2)"/><path class="g" d="M523.1,283.8c0,.1-9.1.2-20.3.2s-20.4-.1-20.4-.2,9.1-.3,20.4-.3S523.1,283.6,523.1,283.8Z" transform="translate(-61.6 -46.2)"/><path class="g" d="M550.5,253.3l-1.6.2-4.4.2-14.5,1c-5.7.4-10.8.9-14.5,1.3l-4.4.4h-1.7l1.6-.3,4.4-.6c3.7-.4,8.9-1,14.5-1.4s10.9-.7,14.6-.8h6Z" transform="translate(-61.6 -46.2)"/><path class="a" d="M547.2,237.4,568,293.9l14-27.8,18.2,3.7-10.5,43.9A18.6,18.6,0,0,1,575,329.3h0a18.6,18.6,0,0,1-17.5-5.7l-6.5-7.1Z" transform="translate(-61.6 -46.2)"/><path class="g" d="M567.6,329.6c-.1,0-.1-.5-.2-1.4s-.1-2.3-.2-3.9c-.1-3.3-.1-7.8,0-12.8s.5-9.5.8-12.8c.1-1.6.3-2.9.4-3.8s.2-1.4.2-1.4,0,.5,0,1.4-.2,2.3-.3,3.9c-.2,3.2-.4,7.7-.6,12.7s-.1,9.5-.1,12.8v5.3Z" transform="translate(-61.6 -46.2)"/><path class="g" d="M594.5,295.1c-.1.2-5.2-1.7-11.5-4s-11.3-4.4-11.2-4.6,5.2,1.7,11.4,4.1S594.5,295,594.5,295.1Z" transform="translate(-61.6 -46.2)"/><polygon class="h" points="543 217.1 534.2 223.6 524.5 221.2 526.8 218.6 543 217.1"/><polygon class="i" points="574.6 138.5 503.8 169.3 504.1 189.8 496.1 198.2 523.2 222.4 531.1 213.5 552.2 210.6 574.6 138.5"/><path class="e" d="M636.3,184.8,614,256.9h-.2l-21,2.9h.1l-7.9,8.8-.2.2-.2-.2-13.8-12.3-13.2-11.9-.2-.2h.1c2.8-2.9,5.4-5.7,8.1-8.4h-.1c-.1-7.1-.2-13.9-.3-20.5v-.2h.1l71-30.5-70.8,30.9v-.2c.2,6.6.3,13.4.4,20.5h-.1l-8,8.4v-.4l13.3,11.9c4.7,4.2,9.3,8.4,13.8,12.3h-.4l7.9-8.9h.2l21.1-2.9-.2.2C626.9,214.4,635.6,186.8,636.3,184.8Z" transform="translate(-61.6 -46.2)"/><path class="e" d="M607.5,235.1a11.1,11.1,0,1,1-.9-15.7A11.1,11.1,0,0,1,607.5,235.1Z" transform="translate(-61.6 -46.2)"/><path class="e" d="M636.3,184.8c.1.1-8.1,9.8-18.3,21.6s-18.7,21.4-18.8,21.3,8.1-9.8,18.4-21.6S636.2,184.7,636.3,184.8Z" transform="translate(-61.6 -46.2)"/><path class="g" d="M417.9,429.7h0a17.8,17.8,0,0,1-1.4-25L549.7,253.9l26.5,23.7L443,428.2A17.7,17.7,0,0,1,417.9,429.7Z" transform="translate(-61.6 -46.2)"/><rect class="g" x="560.7" y="239.7" width="14.5" height="41.68" transform="translate(-66.4 464.2) rotate(-48.2)"/><rect class="g" x="631.8" y="181.3" width="7.7" height="7.72" transform="translate(205.7 -411.3) rotate(40)"/><path class="g" d="M684.5,224.8c-.2.3-22.8-18.3-50.5-41.4s-49.8-42.2-49.5-42.5,22.8,18.2,50.5,41.4S684.8,224.5,684.5,224.8Z" transform="translate(-61.6 -46.2)"/><path class="g" d="M685.7,225.7a2.3,2.3,0,1,1-.3-3.2A2.2,2.2,0,0,1,685.7,225.7Z" transform="translate(-61.6 -46.2)"/><path class="g" d="M586.2,142.4a2.3,2.3,0,0,1-3.5-3,2.3,2.3,0,1,1,3.5,3Z" transform="translate(-61.6 -46.2)"/><polygon class="j" points="488.1 207.7 514.5 231.3 511 235.4 486.8 209.1 488.1 207.7"/><polygon class="k" points="504.2 202.6 504.2 221.5 508 225.5 508 206.1 504.2 202.6"/><path class="h" d="M597.5,240l9.7,3.9,2.1,7.8-4.7,11.7-17.1,2.5,5-5.2-.7-4.4s-4.7-1.5-4.9-2.3.6-3.1,1.4-3.3,5.7,1.8,5.7,1.8-5.9-4.7-5.8-5.5.9-2.7,2-2.9,10.8,4.3,10.8,4.3l1.6,3.6,1.3-5.7S595.4,243.9,597.5,240Z" transform="translate(-61.6 -46.2)"/><path class="l" d="M596.3,258.4a3.9,3.9,0,0,0,.3-1,5.4,5.4,0,0,0-1.7-4.5c-.4-.4-.8-.6-.8-.5a11,11,0,0,1,1.7,2.7C596.5,256.8,596.1,258.3,596.3,258.4Z" transform="translate(-61.6 -46.2)"/><path class="l" d="M600.9,256.7a12.7,12.7,0,0,1-.4-2.6,11.1,11.1,0,0,0-.5-2.8,4,4,0,0,0-.9-1.5,6.2,6.2,0,0,0-1.6-1l-5.9-2-2.5-.7a8.8,8.8,0,0,0,2.4,1l5.9,2.2a4.2,4.2,0,0,1,1.4.9,4.1,4.1,0,0,1,.8,1.3c.3.9.4,1.9.6,2.7A4.3,4.3,0,0,0,600.9,256.7Z" transform="translate(-61.6 -46.2)"/><path class="l" d="M603.1,254.9c.2,0,.1-.9,0-1.9a4.7,4.7,0,0,0-.6-1.8,4.2,4.2,0,0,0,.1,1.9A3.8,3.8,0,0,0,603.1,254.9Z" transform="translate(-61.6 -46.2)"/><path class="h" d="M530.3,324.2l16-5.5c.3-.2,11-5.1,10-8,0,0,3.1-2.3,2.1-3.7l-4.2,1.8s6-3.9,5-7.4c0,0,.6-1.2-.1-1.9s-3.7,1.4-6,2.8l-4.5,1.8a9.4,9.4,0,0,1-6.2.3h0a1.9,1.9,0,0,1-1.3-2.2,19.8,19.8,0,0,0-.3-10.5s-1.1.4-1.9,2.8-4.1,5.4-5.2,7.4-1.7,3-2.4,4.4a4.7,4.7,0,0,1-3,2.3l1.1,8.1Z" transform="translate(-61.6 -46.2)"/><path class="l" d="M547.2,309.5c0,.1.2,0,.5-.1l1.5-.6a24.8,24.8,0,0,0,4.4-2.4,25.5,25.5,0,0,0,4-3.1l1.1-1.1.4-.4a1.2,1.2,0,0,0-.4.4l-1.2,1c-1,.8-2.4,1.9-4,3s-3.3,1.9-4.4,2.4l-1.4.7Z" transform="translate(-61.6 -46.2)"/><path class="l" d="M547.5,312.6c0,.1.4,0,1.1-.3l2.6-1.3a19.1,19.1,0,0,0,2.4-1.7,3.9,3.9,0,0,0,.9-.8s-1.5,1.1-3.4,2.2l-2.5,1.4Z" transform="translate(-61.6 -46.2)"/><path class="l" d="M547.3,316.4l1.5-.6a22.6,22.6,0,0,0,3.3-1.8,37.8,37.8,0,0,0,3.1-2.2c.7-.6,1.2-1,1.1-1.1l-1.2,1-3.1,2.1a22.6,22.6,0,0,1-3.3,1.8Z" transform="translate(-61.6 -46.2)"/><path class="a" d="M530.3,324.2l-57.7,17.4a34.6,34.6,0,0,1-20.1-34.5c1.8-20.4,4.2-47.2,5-53.9,1.1-11.3,14-19.5,14-19.5,17.7,1.1,13.8,36.1,13.8,36.1l-7.1,40.3,50.1-2Z" transform="translate(-61.6 -46.2)"/><path class="e" d="M478.2,310.1c-.1,0,0-.6,0-1.6s.3-2.5.5-4.4c.4-3.7,1.2-8.7,2.2-14.3s2.1-10.5,2.9-14.2c.4-1.8.8-3.2,1-4.2l.5-1.6-.3,1.6-.8,4.3c-.7,3.7-1.7,8.7-2.7,14.2s-1.9,10.6-2.5,14.3c-.2,1.7-.4,3.2-.6,4.3S478.2,310.1,478.2,310.1Z" transform="translate(-61.6 -46.2)"/><path class="e" d="M528.3,308.1h-2.1l-5.7.4-19.1.7-19.1.5-5.8.2h0l5.8-.4,19.1-.7,19-.5,5.8-.2h2.1Z" transform="translate(-61.6 -46.2)"/><path class="g" d="M480.3,294.8h-1l-2.9-.2-9.5-.6-9.5-.2h-2.9l2.9-.2h9.5l9.5.7,2.9.4Z" transform="translate(-61.6 -46.2)"/><path class="g" d="M485.3,267c0,.2-6.6,0-14.6-.3s-14.6-.7-14.6-.9,6.5,0,14.6.4S485.3,266.9,485.3,267Z" transform="translate(-61.6 -46.2)"/><path class="g" d="M457.9,328.3l.6-.9,1.7-2.4a57.1,57.1,0,0,1,6.6-7.1,59.1,59.1,0,0,1,7.7-5.9l2.5-1.5,1-.5c0,.1-1.3.9-3.3,2.3a84.8,84.8,0,0,0-7.5,6,69,69,0,0,0-6.7,6.9C458.9,327.1,458,328.3,457.9,328.3Z" transform="translate(-61.6 -46.2)"/><path class="g" d="M499.3,333.8c-.1,0-1.1-5.4-2.1-12.1s-1.8-12.2-1.7-12.2,1.1,5.4,2.2,12.1S499.5,333.8,499.3,333.8Z" transform="translate(-61.6 -46.2)"/><g class="c"><path d="M472.3,341.6,536.9,322c-4.8,6.3-14.3,12.3-21.4,16s-14.7,6.2-22.3,8.8c-4.1,1.4-8.3,2.8-12.7,2.8s-8.6-1.3-10.9-5Z" transform="translate(-61.6 -46.2)"/></g><path class="e" d="M483.4,175.4a6.6,6.6,0,0,0-2.4-8.1,7.2,7.2,0,0,0-8.5.4A8,8,0,0,0,470,176a8.2,8.2,0,0,0,15.9-1.1" transform="translate(-61.6 -46.2)"/><path class="h" d="M493.1,158.5v4.7L492,234c-.1,8.2,6.9,14.8,15.7,14.9h0c8.9,0,16.3-6.6,16.5-14.9s.7-17.9.7-17.9,11.3-1.5,14-16.1c1.4-7.3,1.3-19.2,1-29a15.5,15.5,0,0,0-16.7-14.8Z" transform="translate(-61.6 -46.2)"/><path class="e" d="M534.9,179.6a1.9,1.9,0,0,1-1.8,1.8,1.8,1.8,0,0,1-1.9-1.7,1.9,1.9,0,0,1,1.8-1.9A1.8,1.8,0,0,1,534.9,179.6Z" transform="translate(-61.6 -46.2)"/><path class="e" d="M537.1,177.2c-.2.2-1.6-.9-3.6-.9s-3.6.9-3.8.6.2-.5.8-1a6.3,6.3,0,0,1,3-.8,4.5,4.5,0,0,1,2.9,1C537,176.6,537.2,177.1,537.1,177.2Z" transform="translate(-61.6 -46.2)"/><path class="e" d="M515.2,179.4a1.8,1.8,0,0,1-1.9,1.8,1.8,1.8,0,0,1-1.9-1.7,2,2,0,0,1,1.9-1.9A1.9,1.9,0,0,1,515.2,179.4Z" transform="translate(-61.6 -46.2)"/><path class="e" d="M517.3,177c-.3.2-1.7-.8-3.7-.9s-3.5.9-3.7.7.1-.6.8-1a4.9,4.9,0,0,1,3-.9,5.5,5.5,0,0,1,2.9,1.1C517.2,176.5,517.4,176.9,517.3,177Z" transform="translate(-61.6 -46.2)"/><path class="e" d="M524.2,192.2a13.5,13.5,0,0,1,3.3-.5c.5-.1,1-.2,1.1-.5a3.1,3.1,0,0,0-.3-1.5c-.5-1.3-.9-2.6-1.4-4-2-5.7-3.4-10.3-3.2-10.4s2,4.5,4,10.1c.5,1.4.9,2.7,1.3,4a3.4,3.4,0,0,1,.3,2,1.7,1.7,0,0,1-.9.8h-.9A18,18,0,0,1,524.2,192.2Z" transform="translate(-61.6 -46.2)"/><path class="l" d="M524.9,216.1a36.6,36.6,0,0,1-19.4-5.8s4.5,10.2,19.1,9.3Z" transform="translate(-61.6 -46.2)"/><path class="l" d="M523.2,197a3.6,3.6,0,0,0-3.2-1.4,3.2,3.2,0,0,0-2.4,1.1,2.3,2.3,0,0,0-.2,2.4,2.5,2.5,0,0,0,2.6.8,8.9,8.9,0,0,0,2.7-1.5,1.7,1.7,0,0,0,.6-.6.9.9,0,0,0,0-.7" transform="translate(-61.6 -46.2)"/><path class="e" d="M518.2,193.4c.3,0,.3,2.2,2.1,3.8s4.2,1.4,4.2,1.7-.5.4-1.5.4a4.8,4.8,0,0,1-3.5-1.3,4.5,4.5,0,0,1-1.6-3.2C517.8,193.9,518.1,193.4,518.2,193.4Z" transform="translate(-61.6 -46.2)"/><path class="e" d="M518,169.1c-.2.6-2.2.2-4.6.5s-4.3.8-4.6.3.2-.8,1-1.3a7.6,7.6,0,0,1,3.4-1.1,8.9,8.9,0,0,1,3.6.5C517.7,168.4,518.1,168.9,518,169.1Z" transform="translate(-61.6 -46.2)"/><path class="e" d="M536.5,171.3c-.3.5-1.7-.1-3.4-.1s-3.1.2-3.4-.3.1-.7.7-1.1a5.8,5.8,0,0,1,2.8-.7,4.5,4.5,0,0,1,2.7,1C536.5,170.6,536.7,171.1,536.5,171.3Z" transform="translate(-61.6 -46.2)"/><path class="e" d="M511.5,153.9c3.9,5.2-.2,12.6-4.7,17.2s-10,10.2-8.7,16.6,11.5,12.1,10,19.5c-.5,2.7-2.7,5-2.7,7.7,0,5,6.4,7.4,8.3,12,2.5,6.4-4.5,12.7-4.6,19.5,0,3.8,2.2,7.4,2.3,11.3.2,7.9-9.1,13.7-16.8,11.8s-13-9.5-14.6-17.2.8-18.6,2.1-26.5l-13.3,3.1c-2.5-2.3.9-4.9,1.4-8.2,1.4-8.5,7-15.7,9.7-23.8s2.3-14.8,3.3-22.2,3.3-15.2,9-20.1,15.5-5.5,20.1.4" transform="translate(-61.6 -46.2)"/><path class="f" d="M481.7,177.9a20.9,20.9,0,0,0,5.8.2,24.7,24.7,0,0,0,12.7-5.8,50.1,50.1,0,0,0,9.3-10.7l2.5-3.5a7.7,7.7,0,0,1,.9-1.3,8.7,8.7,0,0,1-.8,1.4l-2.3,3.6a47.1,47.1,0,0,1-9.2,10.9,24.5,24.5,0,0,1-13,5.8,18.6,18.6,0,0,1-4.4-.2l-1.2-.2Z" transform="translate(-61.6 -46.2)"/><path class="f" d="M499,179.9a10.7,10.7,0,0,1-2.1,1.5,17,17,0,0,1-6,1.9,18.5,18.5,0,0,1-6.3-.1,7.3,7.3,0,0,1-2.5-.9,22,22,0,0,0,2.6.5,20.5,20.5,0,0,0,6.1,0,18.7,18.7,0,0,0,5.9-1.8A24.9,24.9,0,0,1,499,179.9Z" transform="translate(-61.6 -46.2)"/><path class="f" d="M546.5,170c.1.2-2.2.2-4.5-1.2a7.3,7.3,0,0,1-3.3-3.4c.2-.1,1.3,1.7,3.5,3A18,18,0,0,0,546.5,170Z" transform="translate(-61.6 -46.2)"/><path class="f" d="M545.6,175a4.4,4.4,0,0,1-2.8,0,3.7,3.7,0,0,1-2.4-1.3c.1-.2,1.1.5,2.5.8S545.6,174.8,545.6,175Z" transform="translate(-61.6 -46.2)"/><path class="g" d="M482.8,181.1c-.2,0-.7-2.1-.5-4.8a11.2,11.2,0,0,1,1.3-4.7c.2,0-.5,2.1-.7,4.7A44,44,0,0,0,482.8,181.1Z" transform="translate(-61.6 -46.2)"/><path class="e" d="M344.5,349.9c-1-.2-9,37.7-8,52.5s8,66,8,66h83s10.3-49.9,8.5-65-11.7-54.8-11.7-54.8Z" transform="translate(-61.6 -46.2)"/><path class="h" d="M333.9,278.2l-11.8-53.3-.7-8.8s-2.7-19.8-2.7-21.8-1.1-2.7-2-2.7-2.1,1.7-2.2,3.6.2,11.2.2,11.2a21,21,0,0,0-2.1-2.8c-1.5-2-5.2-3.1-8.9-2.9s-4.8.5-4.8,2a1.7,1.7,0,0,0,.8,1.4,3.3,3.3,0,0,0,2.4.8c6-.2,7.7,3,7.7,3v1.2s-3.7-2.6-6.6-1.4a2.1,2.1,0,0,0-1.1.7,4.7,4.7,0,0,0-4,2.3,4.7,4.7,0,0,0,0,4.7,2.1,2.1,0,0,0,1.9,1.2,2.3,2.3,0,0,0,1-.7l.5-.4.8,3.2s1.9,7.1,2.4,10.3l3.2,52.9a13.1,13.1,0,0,0,14.1,12.3h0A13.1,13.1,0,0,0,333.9,278.2Z" transform="translate(-61.6 -46.2)"/><path class="h" d="M320.3,224.2a2.8,2.8,0,0,1-2.8-1.5c-.6-.9-.8-2.1-1.4-3.1-1.6-3-5.4-4.4-6.8-7.5-.2-.4-.3-1,.1-1.3s.8,0,1.2.2l9.9,5.3" transform="translate(-61.6 -46.2)"/><path class="l" d="M320.5,216.3l-1-.7-2.9-1.6-4.3-2.4-1.2-.7a2.6,2.6,0,0,0-1.7-.5,1.1,1.1,0,0,0-.6.9,2.9,2.9,0,0,0,.2.9,6.4,6.4,0,0,0,.8,1.4c1.4,1.8,3.2,2.9,4.5,4.2a9.5,9.5,0,0,1,1.6,1.9c.4.7.6,1.5.9,2.1a4.1,4.1,0,0,0,2.3,2.5c.8.2,1.3-.1,1.2-.1s-.4.1-1.1-.2a4.2,4.2,0,0,1-2-2.4,16.5,16.5,0,0,0-.9-2.1,6.5,6.5,0,0,0-1.6-2.2c-1.3-1.3-3.1-2.4-4.4-4.1a5.4,5.4,0,0,1-.7-1.3c-.2-.4-.2-.8,0-.9s.8.2,1.2.4l1.2.7,4.4,2.3,3,1.5Z" transform="translate(-61.6 -46.2)"/><path class="l" d="M310,209.1a6.9,6.9,0,0,0-.7-2,4,4,0,0,0-1.9-1.3,11.8,11.8,0,0,0-2.8-.4,13.7,13.7,0,0,1-2.9-.2,4.1,4.1,0,0,1-2.3-1.1,2.1,2.1,0,0,1-.6-1.5,3.2,3.2,0,0,1,.2-.6c.1,0,0,.2,0,.6a1.6,1.6,0,0,0,.6,1.3,3.7,3.7,0,0,0,2.1.9,13.7,13.7,0,0,0,2.9.2,7.3,7.3,0,0,1,3,.5,3.3,3.3,0,0,1,1.9,1.5,2.6,2.6,0,0,1,.5,1.5A.9.9,0,0,1,310,209.1Z" transform="translate(-61.6 -46.2)"/><path class="l" d="M314.5,194.5a7.2,7.2,0,0,1,.1,2.1v5c0,1.9,0,3.6.1,5v2.1a6.5,6.5,0,0,1-.3-2.1c-.1-1.3-.2-3-.2-5s0-3.7.1-5S314.5,194.5,314.5,194.5Z" transform="translate(-61.6 -46.2)"/><path class="l" d="M307.7,211.5c-.1.1-.3-.1-.7-.2a2,2,0,0,0-1.6-.1,1.1,1.1,0,0,0-.5.9,7.1,7.1,0,0,0,.1,1.4,2.3,2.3,0,0,1-.2,1.6,2.1,2.1,0,0,1-3.3.2,3.4,3.4,0,0,1-.7-1.5,8.1,8.1,0,0,1,0-2.7,5.8,5.8,0,0,1,.5-1.7,1.1,1.1,0,0,1,.4-.5l-.3.6a5.2,5.2,0,0,0-.3,1.7,10.4,10.4,0,0,0,0,2.5,2.1,2.1,0,0,0,2.1,1.8,1.3,1.3,0,0,0,1.2-.6,1.7,1.7,0,0,0,.2-1.4,6.5,6.5,0,0,1,0-1.4,1.1,1.1,0,0,1,.7-1.1,2.1,2.1,0,0,1,1.8.1Z" transform="translate(-61.6 -46.2)"/><path class="l" d="M301.7,214.9a1.1,1.1,0,0,1,0,.6,1.9,1.9,0,0,1-1.2,1.1,2.3,2.3,0,0,1-2.3-.7,3.7,3.7,0,0,1-1.1-2.7,4.3,4.3,0,0,1,.9-2.8,3.6,3.6,0,0,1,1.8-1.5,3.7,3.7,0,0,1,1.6-.4h.6a7.3,7.3,0,0,0-2,.6,4.7,4.7,0,0,0-1.7,1.5,4.5,4.5,0,0,0-.8,2.6,4,4,0,0,0,.9,2.5,2,2,0,0,0,2,.6,1.4,1.4,0,0,0,1.1-.8A1.2,1.2,0,0,0,301.7,214.9Z" transform="translate(-61.6 -46.2)"/><path class="l" d="M309,221.9c0-.1.4-.2,1,0a4,4,0,0,1,2.2,1.3h-.3a6.8,6.8,0,0,1,.2-1.4,8,8,0,0,1,2.1-4.4,18,18,0,0,0-1.7,4.5l-.3,1.3v.5l-.3-.4a4.6,4.6,0,0,0-2-1.3Z" transform="translate(-61.6 -46.2)"/><path class="l" d="M308.6,204c.1.1-.3.8-1.2,1.2a1.6,1.6,0,0,1-1.7.1c0-.1.7-.1,1.5-.4S308.5,204,308.6,204Z" transform="translate(-61.6 -46.2)"/><path class="g" d="M429,232.9c4.3,0,14.7,12.4,16.6,31.1.8,8.6,5.1,43.7,7.2,60.6a16.9,16.9,0,0,1-6.9,15.7c-11.2,8.2-33.7,21-63.6,20.6l-18.1-15.2L423,321v-1.4l2.6-2.8-7.3-45S411.4,232.9,429,232.9Z" transform="translate(-61.6 -46.2)"/><path class="e" d="M413.7,153.8c.2,6.1,8.3,9.8,8.2,15.9,0,2.6-1.7,4.9-2,7.5s1.5,6.8,2.3,10.2c1.4,7.1-2.7,14.6-8.8,18.5s-13.8,4.6-20.9,3.6" transform="translate(-61.6 -46.2)"/><path class="e" d="M364.7,152.3c.2,3.3-1.9,6.2-4.1,8.6s-4.6,5-5.1,8.3c-.8,5.7,4.8,11.1,3.7,16.7-.7,3.1-3.2,5.5-3.6,8.6s1.2,5.9,3.1,8.2,4.3,1.9,6.1,4.4a23.3,23.3,0,0,0,7.6,6.7c6.3,3.5,13.8-1.5,16.9-2.4" transform="translate(-61.6 -46.2)"/><path class="e" d="M414.9,157.3c.1-3-2.7-5.3-5.4-6.3s-5.8-1.5-8.3-3.2-3.6-3.7-5.5-5.6a18.2,18.2,0,0,0-30.7,8.4c-1,4.2-.3,9.2,3,12s9.6,2.5,14.5,1.5,10.6-2,14.7.9c2.5,1.7,3.9,4.6,5.5,7.2s3.4,5.4,6.3,6.3,6.8-.7,6.9-3.7" transform="translate(-61.6 -46.2)"/><path class="h" d="M375.5,226.3c0-6.8-.1-13.4-.1-13.4s-10.8-1.8-13-15.9c-1.1-7-.7-18.5-.1-27.9s6.2-18.8,14.6-17.9l26.3,6.7a4.9,4.9,0,0,1,4.4,5h0l-2.4,63.9a14.9,14.9,0,0,1-15.1,14.3h0A14.9,14.9,0,0,1,375.5,226.3Z" transform="translate(-61.6 -46.2)"/><path class="e" d="M366.8,177.2a1.8,1.8,0,0,0,1.7,1.8,1.8,1.8,0,0,0,1.9-1.6,1.9,1.9,0,0,0-1.7-1.9A1.8,1.8,0,0,0,366.8,177.2Z" transform="translate(-61.6 -46.2)"/><path class="e" d="M364.8,175.1c.2.2,1.6-.8,3.5-.8s3.4,1,3.6.8-.1-.6-.7-1a4.8,4.8,0,0,0-2.9-.9,4.4,4.4,0,0,0-2.8.9C364.9,174.6,364.7,175,364.8,175.1Z" transform="translate(-61.6 -46.2)"/><path class="e" d="M385.7,177.6a1.8,1.8,0,0,0,1.7,1.9,1.9,1.9,0,0,0,1.9-1.7,1.9,1.9,0,0,0-1.8-1.8A1.7,1.7,0,0,0,385.7,177.6Z" transform="translate(-61.6 -46.2)"/><path class="e" d="M383.9,175.5c.2.2,1.6-.8,3.5-.8s3.4,1,3.6.8-.1-.6-.7-1a4.8,4.8,0,0,0-2.9-.9,4.4,4.4,0,0,0-2.8.9C384,175,383.8,175.4,383.9,175.5Z" transform="translate(-61.6 -46.2)"/><path class="e" d="M376.8,189.9l-3.1-.6c-.5,0-1-.1-1.1-.5a2.7,2.7,0,0,1,.3-1.4l1.5-3.8c2.1-5.4,3.6-9.8,3.3-9.9s-2,4.2-4.1,9.6c-.5,1.3-.9,2.6-1.4,3.8a2.5,2.5,0,0,0-.2,1.9,1.3,1.3,0,0,0,.8.8h4Z" transform="translate(-61.6 -46.2)"/><path class="l" d="M375.4,212.9a35.1,35.1,0,0,0,18.9-5c-.1.1-5.2,9.8-18.7,8.3Z" transform="translate(-61.6 -46.2)"/><path class="g" d="M377.6,194.6a3.8,3.8,0,0,1,3.2-1.3,3.2,3.2,0,0,1,2.2,1.2,2,2,0,0,1,.1,2.3,2.3,2.3,0,0,1-2.5.6,6.9,6.9,0,0,1-2.5-1.4l-.6-.6a.8.8,0,0,1,0-.7" transform="translate(-61.6 -46.2)"/><path class="e" d="M382.5,191.3c-.3-.1-.3,2.1-2.1,3.5s-4.1,1.3-4.1,1.6.5.4,1.5.4a4.9,4.9,0,0,0,3.4-1.1,4.5,4.5,0,0,0,1.6-3C382.9,191.8,382.7,191.2,382.5,191.3Z" transform="translate(-61.6 -46.2)"/><path class="e" d="M383,172.1c.2.5,2.2.3,4.5.5s4.1,1,4.4.5-.2-.7-.9-1.3a7.6,7.6,0,0,0-3.3-1.1,6.4,6.4,0,0,0-3.5.4C383.4,171.4,383,171.8,383,172.1Z" transform="translate(-61.6 -46.2)"/><path class="e" d="M365.5,169.5c.4.4,1.7-.1,3.3-.1s3,.3,3.3-.1-.1-.7-.7-1.1a4,4,0,0,0-2.6-.7,4.8,4.8,0,0,0-2.7.8Q365.4,169.1,365.5,169.5Z" transform="translate(-61.6 -46.2)"/><path class="e" d="M409.2,205.1c-3.9.7-4.3-1.2-7.1-3.9a12.8,12.8,0,0,1-3.9-10.8c.4-3.4,2.3-6.9,1.1-10.2s-7.7-5.7-9.3-10c-.9-2.5-.1-5.5-1.2-7.9s-3.4-3.7-5.8-4.5-4.9-1.5-6.9-3-3.2-4.5-1.9-6.7a135.9,135.9,0,0,1,30.8,7.5c2.3.9,4.7,1.9,6.1,4s1.3,4.9,1.2,7.5l-1.8,38" transform="translate(-61.6 -46.2)"/><path class="e" d="M418,176.3a10.8,10.8,0,0,1,20.5-3.7c2,3.9,1.3,8.8-.5,12.8s-6.7,9.2-11.9,9-9-4.6-10.4-9.3-.9-9.9-.3-14.8" transform="translate(-61.6 -46.2)"/><path class="f" d="M420.8,195.6a3,3,0,0,0,.7-.8,7.4,7.4,0,0,0,1.1-2.8,13.8,13.8,0,0,0-.1-4.5c-.3-1.6-.9-3.4-1.3-5.2a13.5,13.5,0,0,1-.3-5.2c.3-1.6,1-2.9,1.3-4.2a4.5,4.5,0,0,0,.1-3,2.4,2.4,0,0,0-.5-1c-.1.1.2.4.3,1.1a6,6,0,0,1-.3,2.8c-.3,1.2-1.1,2.5-1.5,4.2a14.4,14.4,0,0,0,.3,5.4c.4,1.9,1,3.6,1.3,5.2a16.7,16.7,0,0,1,.3,4.3A8.9,8.9,0,0,1,420.8,195.6Z" transform="translate(-61.6 -46.2)"/><path class="f" d="M421,178.7a7.8,7.8,0,0,0,2.2,2.1,12.8,12.8,0,0,0,6.9,2.3,12.6,12.6,0,0,0,7-2.1,5.7,5.7,0,0,0,2.2-2c0-.1-.9.8-2.4,1.7a13.1,13.1,0,0,1-6.8,1.7,12.4,12.4,0,0,1-6.7-2C421.9,179.5,421.1,178.6,421,178.7Z" transform="translate(-61.6 -46.2)"/><path class="f" d="M421.7,180.9a6.3,6.3,0,0,0,1.2,2.2,14,14,0,0,0,4.5,4.1,15.6,15.6,0,0,0,5.7,2,6.9,6.9,0,0,0,2.5.1,14.3,14.3,0,0,0-2.4-.5,17.4,17.4,0,0,1-5.5-2.1,18,18,0,0,1-4.5-3.9C422.3,181.7,421.8,180.8,421.7,180.9Z" transform="translate(-61.6 -46.2)"/><path class="f" d="M418.2,200.3h.1l.4-.6a7,7,0,0,0,.9-2.5,8.3,8.3,0,0,0-.2-4.1,7.3,7.3,0,0,0-3.3-4.4c-1.7-1.2-3.8-2.1-5.2-3.9a4.2,4.2,0,0,1-.8-3.3,31.6,31.6,0,0,1,1.2-3.7,10.7,10.7,0,0,0-.1-8.4,10.1,10.1,0,0,0-2.9-3.6,13.6,13.6,0,0,0-4.3-1.8c-1.5-.3-3.1-.5-4.5-.9a9.7,9.7,0,0,1-3.7-2.1,5.7,5.7,0,0,1-1.6-3.7,29.3,29.3,0,0,0-.7-4.1,13.6,13.6,0,0,0-3.8-6.6,11.4,11.4,0,0,0-6-3,8.5,8.5,0,0,0-5.4.8,9.9,9.9,0,0,0-3.2,2.7,6.7,6.7,0,0,0-1.1,2.4,6.2,6.2,0,0,0-.1.9,9.5,9.5,0,0,1,1.4-3.1,9.1,9.1,0,0,1,3.1-2.6,8.9,8.9,0,0,1,5.2-.7,10.4,10.4,0,0,1,5.7,2.9,13.4,13.4,0,0,1,3.6,6.5,23.8,23.8,0,0,1,.7,4,6.6,6.6,0,0,0,1.7,4,9.5,9.5,0,0,0,4,2.3l4.5.9a12.6,12.6,0,0,1,4.1,1.7,9.4,9.4,0,0,1,2.7,3.3,10.1,10.1,0,0,1,.2,8,16.8,16.8,0,0,0-1.2,3.8,4.5,4.5,0,0,0,.9,3.7c1.5,2,3.7,2.8,5.4,3.9a8,8,0,0,1,3.2,4.2,8.1,8.1,0,0,1,.3,4A9.8,9.8,0,0,1,418.2,200.3Z" transform="translate(-61.6 -46.2)"/><path class="f" d="M417.2,161a3.1,3.1,0,0,0,.2-.7,2.9,2.9,0,0,0-.5-1.8,4.2,4.2,0,0,0-2.3-2,8,8,0,0,0-4.1-.1c-1.5.2-3,.8-4.7,1.2a6.6,6.6,0,0,1-5.1-.8c-1.5-1.2-2.2-3.2-3-5.1a18.8,18.8,0,0,0-3.3-5.8,19.1,19.1,0,0,0-10.6-6.9,12.2,12.2,0,0,0-5.7.1,9.2,9.2,0,0,0-4.1,2.7,5.9,5.9,0,0,0-1.5,3.7,7.3,7.3,0,0,0,.4,3.1,8.5,8.5,0,0,0,1.1,1.6l.5.4a7.2,7.2,0,0,1-1.3-2.1,6.6,6.6,0,0,1-.4-2.9,5.9,5.9,0,0,1,1.6-3.5,8.3,8.3,0,0,1,3.9-2.5,10.9,10.9,0,0,1,5.4-.1,19.5,19.5,0,0,1,10.3,6.8,18.2,18.2,0,0,1,3.1,5.6c.8,2,1.6,4,3.3,5.3a4.9,4.9,0,0,0,2.8,1.1,11.8,11.8,0,0,0,2.7-.2l4.7-1.3a7,7,0,0,1,3.8,0,4.3,4.3,0,0,1,2.3,1.8,2.9,2.9,0,0,1,.6,1.7A2.4,2.4,0,0,1,417.2,161Z" transform="translate(-61.6 -46.2)"/><path class="g" d="M430.2,233.1l-25-6.3H375.4s-15.4.9-24,8.5c-.3.2-2.9,2.6-4.7,7.6l-13.3,30.3-6.8-38-23.7,3.4,3.8,65.4A32.1,32.1,0,0,0,332,332.2L345.6,317c1.5,12.4,2.9,23.1,3,22.9s74.1-4.8,74.1-4.8l-7.4-25.2Z" transform="translate(-61.6 -46.2)"/><path class="g" d="M335.7,148.5a17.1,17.1,0,1,0-24.5,15.2V168h14.9s.1-2.4.2-4.5A17.2,17.2,0,0,0,335.7,148.5Z" transform="translate(-61.6 -46.2)"/><path class="e" d="M320.7,168v-.8c.1-.6.2-1.4.4-2.4a23.2,23.2,0,0,1,.7-3.7,21.8,21.8,0,0,1,1.6-4.7,15.7,15.7,0,0,1,1.4-2.5,3.2,3.2,0,0,1,1.2-1.1,1.8,1.8,0,0,1,1.6.1.9.9,0,0,1,.5.7,1.1,1.1,0,0,1,0,.8,2.4,2.4,0,0,1-1.4,1.2,5.3,5.3,0,0,1-3.5-.3,5,5,0,0,1-2.4-2.9,3.4,3.4,0,0,1-.1-2,1.5,1.5,0,0,1,1.6-1.1.9.9,0,0,1,.8.6,1.2,1.2,0,0,1,.2,1,3.5,3.5,0,0,1-1.2,1.7,4.9,4.9,0,0,1-4,1.1,4.3,4.3,0,0,1-3.3-2.5,2.3,2.3,0,0,1-.1-2,1.1,1.1,0,0,1,.8-.8,1.7,1.7,0,0,1,1,.1,1.8,1.8,0,0,1,.7.8,2.9,2.9,0,0,1,.3,1,6.3,6.3,0,0,1-.3,1.9,5.3,5.3,0,0,1-2.4,2.9,5.6,5.6,0,0,1-3.6.4,3.1,3.1,0,0,1-1.5-.8,1.4,1.4,0,0,1-.1-1.7,1.1,1.1,0,0,1,.8-.3,1.1,1.1,0,0,1,.8.1,2.8,2.8,0,0,1,1,1.2,15.3,15.3,0,0,1,1.1,2.7c1.4,3.5,2.3,6.3,2.9,8.3s.6,1.7.7,2.2a3.9,3.9,0,0,1,.2.6v0c-.1-.1-.1-.3-.2-.6s-.4-1.2-.8-2.2-1.6-4.8-2.9-8.2l-1.1-2.7a1.8,1.8,0,0,0-1-1.1,1,1,0,0,0-1.3,1.6,2.6,2.6,0,0,0,1.5.7,5.1,5.1,0,0,0,3.4-.4,5.5,5.5,0,0,0,2.3-2.7,6.3,6.3,0,0,0,.3-1.9,2,2,0,0,0-.9-1.6,1.4,1.4,0,0,0-.9-.1,1.1,1.1,0,0,0-.6.7,2.5,2.5,0,0,0,.1,1.9,4.1,4.1,0,0,0,3.1,2.3,4.6,4.6,0,0,0,3.8-1,4.5,4.5,0,0,0,1.2-1.6,2.8,2.8,0,0,0-.1-.9c-.2-.3-.4-.5-.7-.5s-.6.1-.9.2a2.2,2.2,0,0,0-.5.8,3.1,3.1,0,0,0,.1,1.9,4.1,4.1,0,0,0,2.3,2.7,4.5,4.5,0,0,0,3.4.3,2.4,2.4,0,0,0,1.2-1,1.1,1.1,0,0,0-.4-1.4,1.7,1.7,0,0,0-1.4,0,2.9,2.9,0,0,0-1.2,1,20.1,20.1,0,0,0-1.4,2.5,19.5,19.5,0,0,0-1.6,4.6c-.4,1.5-.6,2.7-.8,3.7s-.2,1.8-.3,2.4a1.3,1.3,0,0,0-.1.6Z" transform="translate(-61.6 -46.2)"/><path class="e" d="M325,170.9l-12.9-.2a.9.9,0,0,1-.9-.9h0a.9.9,0,0,1,.9-1l12.9.2a.9.9,0,0,1,.9.9h0A.9.9,0,0,1,325,170.9Z" transform="translate(-61.6 -46.2)"/><path class="e" d="M324.9,171.7H312.1a1,1,0,0,0-1,.9,1,1,0,0,0,1,1h1.4l1.8,3.6a1.4,1.4,0,0,0,1.1.7H321a1.1,1.1,0,0,0,1.1-.6l1.9-3.6h.9a.9.9,0,0,0,1-.9A1,1,0,0,0,324.9,171.7Z" transform="translate(-61.6 -46.2)"/><g class="m"><path class="b" d="M307.8,137.3a15.4,15.4,0,0,1,3.5-2.2,7.8,7.8,0,0,1,2.6-.7c.6-.1,1,0,1,.1s-1.2.8-2.9,1.9a14.1,14.1,0,0,0-5.3,5.9,14.5,14.5,0,0,0-1.3,7.8c.2,2.1.7,3.4.4,3.5s-.4-.2-.7-.7a7.4,7.4,0,0,1-1.1-2.5,12.4,12.4,0,0,1-.5-4.1,13.8,13.8,0,0,1,1.3-4.9" transform="translate(-61.6 -46.2)"/></g><g class="m"><path class="b" d="M319,135.3c-1.1,0-2-.3-2.1-.9s.2-.6.5-.8a2.9,2.9,0,0,1,1.7-.4,3.8,3.8,0,0,1,1.6.4,1.1,1.1,0,0,1,.5.9" transform="translate(-61.6 -46.2)"/></g><path class="f" d="M321.9,177.5l-.9-.3a6.5,6.5,0,0,0-2.2-.3,6,6,0,0,0-2.1.4l-.9.3a2.6,2.6,0,0,1,.8-.5,6.2,6.2,0,0,1,2.2-.4,6.5,6.5,0,0,1,2.2.3C321.6,177.2,321.9,177.4,321.9,177.5Z" transform="translate(-61.6 -46.2)"/><path class="f" d="M324,173.7s-2.3.1-5.2,0h0Z" transform="translate(-61.6 -46.2)"/><path class="f" d="M323.2,175.2h-7.4c-.8,0-1.3,0-1.3-.1h8.7Z" transform="translate(-61.6 -46.2)"/><path class="e" d="M348.3,291l-.7-.9a8.4,8.4,0,0,1-1.3-3,18.8,18.8,0,0,1,.6-10.6c1.3-4,3.1-7.3,4.1-9.8s.8-2.3,1.1-3.1.3-1.1.4-1.1-.1.5-.2,1.2-.5,1.8-1,3.1-2.6,5.9-3.9,9.9a18.9,18.9,0,0,0-.8,10.3A20.8,20.8,0,0,0,348.3,291Z" transform="translate(-61.6 -46.2)"/><path class="e" d="M417.4,265.2s.1.1.1.5.2.9.3,1.5.6,3.2,1.1,5.5l3.1,18.2c1.1,7.1,2.1,13.6,2.7,18.3a56.2,56.2,0,0,1,.7,5.6c.1.6.1,1.1.2,1.5v.5a1.2,1.2,0,0,1-.1-.5q-.2-.6-.3-1.5c-.2-1.4-.5-3.3-.8-5.6-.8-4.7-1.8-11.1-3-18.2s-2.1-13.5-2.9-18.3c-.4-2.2-.6-4.1-.9-5.5a6.1,6.1,0,0,0-.2-1.5Z" transform="translate(-61.6 -46.2)"/><path class="e" d="M332.8,292a11.7,11.7,0,0,1,.2-2.8c.1-1.7.3-4.1.3-6.7s.1-5,0-6.7a20.1,20.1,0,0,1,0-2.8,13,13,0,0,1,.4,2.7c.1,1.8.2,4.2.2,6.8a53.5,53.5,0,0,1-.6,6.7A10.8,10.8,0,0,1,332.8,292Z" transform="translate(-61.6 -46.2)"/><path class="e" d="M434.4,323.4c-.1.1-.2-.6-.7-1.6a9.2,9.2,0,0,0-2.6-3.2,9.5,9.5,0,0,0-3.9-1.6l-1.8-.2c0-.1.7-.3,1.8-.2a7.9,7.9,0,0,1,4.2,1.6,7.5,7.5,0,0,1,2.6,3.5C434.4,322.7,434.5,323.4,434.4,323.4Z" transform="translate(-61.6 -46.2)"/><path class="e" d="M428.9,326.4a23.8,23.8,0,0,0-2.6-3.3c-1.7-1.5-3.5-2.1-3.4-2.3a6.9,6.9,0,0,1,3.8,2A6.4,6.4,0,0,1,428.9,326.4Z" transform="translate(-61.6 -46.2)"/><path class="e" d="M410.5,326.4c-.1-.1,2.8-1.3,6.2-2.8s6.3-2.9,6.3-2.7a39.4,39.4,0,0,1-6,3.2A38.5,38.5,0,0,1,410.5,326.4Z" transform="translate(-61.6 -46.2)"/><path class="a" d="M313.3,284.2s14.3,68.4,14.3,67.5,72.5,3.2,85.4,3.7l2.7-.6,20.5-18.9L412.7,334l-8.5-48.1Z" transform="translate(-61.6 -46.2)"/><path class="f" d="M404.2,285.9c.2,0,2.9,15.4,6.1,34.4s5.6,34.4,5.4,34.5-2.8-15.4-6-34.4S404.1,285.9,404.2,285.9Z" transform="translate(-61.6 -46.2)"/><path class="f" d="M404.5,285.9c0,.1-.1.2-.5.6a8.8,8.8,0,0,0-1.5,1.4,1.2,1.2,0,0,0-.4,1.3l.3,1.7c.2,1.3.5,2.7.8,4.3,1.1,6.4,2.6,15.2,4.2,24.9s3,18.5,4.1,25l1.2,7.5q.2,1.3.3,2.1c0,.5.1.7,0,.7a4.2,4.2,0,0,0-.1-.7c-.1-.5-.3-1.2-.4-2s-.8-4.4-1.4-7.6c-1.1-6.4-2.5-15.2-4.2-24.9s-3-18.5-4.1-24.9c-.2-1.6-.5-3.1-.7-4.3a8.4,8.4,0,0,0-.3-1.8,2,2,0,0,1,.5-1.4l1.6-1.4Z" transform="translate(-61.6 -46.2)"/><path class="f" d="M401.9,288.4c0,.1-.3.1-.9.1h-2.6l-9.4-.2-31.1-.5-31-.5-9.4-.2h9.4c7.9,0,18.9.1,31.1.4s23.1.4,31,.7l9.4.3h3.5Z" transform="translate(-61.6 -46.2)"/><path class="f" d="M412.6,336c0-.1.5-.1,1.4,0h3.8l12.7.7h.6l-.5.4-.9.8-10.3,8.6-3.2,2.6-1.2.9a5.9,5.9,0,0,1,1.1-1l3-2.7c2.6-2.3,6.2-5.4,10.3-8.8l.9-.8v.4l-12.6-.8-3.8-.3Z" transform="translate(-61.6 -46.2)"/><path class="h" d="M349.6,353.8h0l-1-11.1a3.5,3.5,0,0,1,4,3.6v-6.9s4.3-.9,5.2,4.6a39.5,39.5,0,0,0,2.2,8.6l2.3,1.2L360.2,341s4.5.4,5.3,4.6a39.7,39.7,0,0,0,2,7.2l7.1,2s-4.1-3.6-3.7-4.8.1-1.1.9-1.3,2.6.4,3.8,1l8.8,5.1v5.5s-17.4,1.3-21.4.6l-7.6-1.8A8,8,0,0,1,349.6,353.8Z" transform="translate(-61.6 -46.2)"/><path class="i" d="M366.2,317.3a4.8,4.8,0,1,1-9.5,1.5,5,5,0,0,1,3.9-6A5,5,0,0,1,366.2,317.3Z" transform="translate(-61.6 -46.2)"/><g class="n"><path d="M425.5,316.5a12.9,12.9,0,0,1,9.1.3,9.2,9.2,0,0,1,5.5,7,5,5,0,0,1-.1,2.1,2.5,2.5,0,0,1-1.5,1.5,2.7,2.7,0,0,1-2.9-1.4,21.5,21.5,0,0,1-1.3-3.2,10,10,0,0,0-9-6.3h.4" transform="translate(-61.6 -46.2)"/></g><path class="g" d="M372.9,230.5c.6-1.8.1-3.9-.3-5.8s-.3-4.2,1-5.6,3.5-1.7,5.4-1.8l24.3-1c1.6-.1,3.5,0,4.6,1.2a3.8,3.8,0,0,1,.8,3c-1.2,4.6-.9,8.5,1,11.8" transform="translate(-61.6 -46.2)"/><path class="e" d="M405.7,228.2c0,.1-.3.4-1,.9a31.5,31.5,0,0,1-3.2,2,30.9,30.9,0,0,1-11.9,3.7,31.3,31.3,0,0,1-6.9-.2,15,15,0,0,1-5.3-1.7,9.4,9.4,0,0,1-2.9-2.4l-.6-.8-.2-.3a12.4,12.4,0,0,0,3.9,3.2,15.2,15.2,0,0,0,5.2,1.5,25.6,25.6,0,0,0,6.8.1,32.5,32.5,0,0,0,11.7-3.4C404.1,229.4,405.7,228.1,405.7,228.2Z" transform="translate(-61.6 -46.2)"/><path class="e" d="M389.2,234.8a11.5,11.5,0,0,1-.6-2.6c-.4-1.7-.8-4-1.2-6.5l-.6-3.6a7.4,7.4,0,0,1,.1-3,3.5,3.5,0,0,1,1.3-1.7l.7-.2c0,.1-.2.1-.6.4a3.4,3.4,0,0,0-1,1.6,6.5,6.5,0,0,0,0,2.8l.6,3.6c.4,2.5.8,4.8,1,6.5A9.1,9.1,0,0,1,389.2,234.8Z" transform="translate(-61.6 -46.2)"/><path class="e" d="M401.8,231a6.3,6.3,0,0,1-.5-2.2c-.2-1.4-.5-3.3-.7-5.3s-.4-4.1-.6-5.4a2.6,2.6,0,0,0-.8-1.3l-.5-.2c0-.1.2-.1.6.1a1.8,1.8,0,0,1,1,1.3c.3,1.4.5,3.3.8,5.4s.5,4,.6,5.4S401.8,231,401.8,231Z" transform="translate(-61.6 -46.2)"/><path class="e" d="M378.7,217.4a5.3,5.3,0,0,0-1.6,1.3,5.8,5.8,0,0,0-.9,2.1,26.2,26.2,0,0,0-.1,2.9c.2,2,.4,3.9.5,5.3a6.5,6.5,0,0,1,0,2.2,10.1,10.1,0,0,1-.4-2.2c-.2-1.4-.4-3.2-.6-5.3a7.5,7.5,0,0,1,.2-3,5.6,5.6,0,0,1,1-2.2C377.8,217.4,378.8,217.3,378.7,217.4Z" transform="translate(-61.6 -46.2)"/><path class="f" d="M280.1,364.8c0,5.1,2.9,103.8,2.9,103.8l-42-.2-7.3-43.9-2,43.9H191.4L195.8,360Z" transform="translate(-61.6 -46.2)"/><path class="e" d="M156.2,323.9l-21.4-32,15.9-13,26.9,25s11.6-65,23-68.9l-.9,100.8h0A34.5,34.5,0,0,1,156.2,323.9Z" transform="translate(-61.6 -46.2)"/><polygon class="g" points="50.7 127 55.2 189.3 130 332.6 173.2 307.6 99.5 167.5 50.7 127"/><g class="o"><path class="b" d="M161.9,214a4.4,4.4,0,0,1-6.4,1.2,11.5,11.5,0,0,1-4.8,12.1,11.6,11.6,0,0,1-13-.8,13,13,0,0,1-7.9,10.4,13.2,13.2,0,0,1-13-1.9l-4.5-61.8Z" transform="translate(-61.6 -46.2)"/></g><path class="g" d="M114.1,198.2s10.2,6.4,18.2-8.4l-20-16.6Z" transform="translate(-61.6 -46.2)"/><path class="b" d="M208.1,367.1c-.1.1-16-31.3-35.5-70s-35.2-70.3-35-70.4,16,31.4,35.5,70.1S208.2,367.1,208.1,367.1Z" transform="translate(-61.6 -46.2)"/><path class="b" d="M226.1,356.4c-.1,0-16-31.3-35.5-70.1s-35.2-70.2-35.1-70.3,16.1,31.3,35.6,70.1S226.2,356.3,226.1,356.4Z" transform="translate(-61.6 -46.2)"/><path class="p" d="M138.2,256.7l-9.7,3.8-2.1,7.8,3.3,13.1,7.9,8.3,5.3-4.4.3-8,.6-4.4s4.8-1.5,4.9-2.3-.6-3.1-1.3-3.3-5.7,1.8-5.7,1.8,5.9-4.7,5.7-5.5-.8-2.7-2-2.9-10.7,4.3-10.7,4.3l-1.6,3.6-1.3-5.7S140.3,260.5,138.2,256.7Z" transform="translate(-61.6 -46.2)"/><path class="q" d="M139.4,275c-.1,0-.2-.4-.3-1a4.3,4.3,0,0,1,.3-2.4,5.1,5.1,0,0,1,1.3-2.1c.5-.4.9-.6.9-.5a9.8,9.8,0,0,0-1.8,2.7A10.5,10.5,0,0,0,139.4,275Z" transform="translate(-61.6 -46.2)"/><path class="q" d="M134.8,273.3c-.1,0,.3-1,.4-2.6a8.3,8.3,0,0,1,.5-2.8,3.7,3.7,0,0,1,.8-1.5l1.6-1,6-2,2.5-.7a8.8,8.8,0,0,1-2.4,1l-5.9,2.2a4.2,4.2,0,0,0-1.4.9,2.9,2.9,0,0,0-.8,1.3,9.4,9.4,0,0,0-.6,2.7A7.5,7.5,0,0,1,134.8,273.3Z" transform="translate(-61.6 -46.2)"/><path class="q" d="M132.6,271.5c-.2,0-.2-.8,0-1.9s.4-1.8.6-1.8a4.2,4.2,0,0,1-.1,1.9C132.9,270.7,132.7,271.6,132.6,271.5Z" transform="translate(-61.6 -46.2)"/><path class="g" d="M263.7,216.4l-8.5-2.9-31.8,7.3-2.8,2.3L203.8,378.8c7.2,7.5,30,9,42.9,6.8Z" transform="translate(-61.6 -46.2)"/><path class="e" d="M264.3,216.7l-4.1-2.1s-9,39.7-9,65.8-5.7,121.2-5.7,121.2l42.9-1.1V295.6Z" transform="translate(-61.6 -46.2)"/><path class="e" d="M203.8,403.1l-16.3-4.7,5.7-76.8L192.1,266l8.5-31,20.2-12.5S204.9,393.9,203.8,403.1Z" transform="translate(-61.6 -46.2)"/><path class="p" d="M237.7,235.5h0a15.7,15.7,0,0,1-14.3-15.6V206s-12.8-2-13-14.9,2.1-42.4,2.1-42.4h0a44.8,44.8,0,0,1,44.9,5.6l1.9,1.5-4.6,65.3A15.7,15.7,0,0,1,237.7,235.5Z" transform="translate(-61.6 -46.2)"/><path class="q" d="M223.4,205.8a30.4,30.4,0,0,0,16.8-4.8s-4,9.3-16.8,8.1Z" transform="translate(-61.6 -46.2)"/><path class="p" d="M257.7,169.1c.3-.1,8.9-2.6,8.6,6.2s-9.1,6.7-9.1,6.5S257.7,169.1,257.7,169.1Z" transform="translate(-61.6 -46.2)"/><path class="q" d="M260,178.5l.4.3a1.6,1.6,0,0,0,1.2,0c.9-.3,1.7-1.7,1.8-3.3a5.1,5.1,0,0,0-.3-2.2c-.3-.7-.7-1.2-1.1-1.3a1.1,1.1,0,0,0-1,.4c-.1.3,0,.5-.1.5a.5.5,0,0,1-.1-.5,2.1,2.1,0,0,1,.4-.6l.8-.2a2.2,2.2,0,0,1,1.6,1.4,6.6,6.6,0,0,1,.5,2.5c-.2,1.8-1.1,3.4-2.4,3.7a1.6,1.6,0,0,1-1.4-.2C260,178.7,260,178.5,260,178.5Z" transform="translate(-61.6 -46.2)"/><path class="e" d="M216.7,168.5a1.8,1.8,0,0,0,1.8,1.8,1.7,1.7,0,0,0,1.9-1.6,1.9,1.9,0,0,0-1.8-1.9A1.8,1.8,0,0,0,216.7,168.5Z" transform="translate(-61.6 -46.2)"/><path class="e" d="M214.9,166.8c.3.2,1.6-.8,3.6-.8s3.5,1,3.7.8-.2-.6-.8-1a5.1,5.1,0,0,0-5.8,0C215,166.3,214.8,166.7,214.9,166.8Z" transform="translate(-61.6 -46.2)"/><path class="e" d="M236.1,169.3a1.9,1.9,0,0,0,1.8,1.9,1.8,1.8,0,1,0-1.8-1.9Z" transform="translate(-61.6 -46.2)"/><path class="e" d="M234.4,167.2c.2.2,1.6-.8,3.6-.8s3.4,1,3.6.7-.1-.5-.8-1a5.2,5.2,0,0,0-2.9-.9,4.5,4.5,0,0,0-2.8,1C234.5,166.6,234.2,167.1,234.4,167.2Z" transform="translate(-61.6 -46.2)"/><path class="e" d="M227.2,181.8a16.2,16.2,0,0,0-3.2-.6c-.5,0-1-.1-1.1-.5a3.3,3.3,0,0,1,.3-1.5l1.5-3.8c2.1-5.5,3.6-10,3.4-10.1s-2.1,4.3-4.2,9.8l-1.4,3.9a3.2,3.2,0,0,0-.3,2,2,2,0,0,0,.9.7h4.1Z" transform="translate(-61.6 -46.2)"/><path class="e" d="M233.8,159.4c.2.6,2.2.3,4.5.6s4.2.9,4.5.4-.1-.7-.9-1.3a7.6,7.6,0,0,0-3.3-1.1,6.8,6.8,0,0,0-3.6.4C234.2,158.7,233.8,159.2,233.8,159.4Z" transform="translate(-61.6 -46.2)"/><path class="e" d="M215.7,161.1c.3.4,1.7,0,3.3-.1s3,.3,3.3-.1,0-.7-.6-1.1a4.4,4.4,0,0,0-2.8-.8,5.3,5.3,0,0,0-2.6.9C215.7,160.4,215.5,160.9,215.7,161.1Z" transform="translate(-61.6 -46.2)"/><path class="e" d="M206.2,140.6a5,5,0,0,1,1.8-4.3,3.3,3.3,0,0,1,4.3.4,4,4,0,0,1,3.4-4.8c2.1-.1,3.9,1.4,5.9,2a9.6,9.6,0,0,0,6-.7c1.9-.8,3.7-1.8,5.7-2.5a16.4,16.4,0,0,1,12.5.5,16.8,16.8,0,0,1,8.5,9.1,7.4,7.4,0,0,1,7.7,3,11.9,11.9,0,0,1,1.9,8.4,29.1,29.1,0,0,1-1.5,5.8v.5c-.1,7-.9,15.4-3.9,15.4-5.3.1-4-9.8-4-9.8-6.5-2.5-4.1-12.2-5.7-13.7s-5-4.8-18.5,2.1c-5.3,2.7-12.2,2.6-16,1.7h-.6a10.4,10.4,0,0,1-3.4-1.5,6.4,6.4,0,0,1-2.9-3.2,3.9,3.9,0,0,1,.7-4A8.4,8.4,0,0,1,206.2,140.6Z" transform="translate(-61.6 -46.2)"/><path class="q" d="M225.5,187.9a5.9,5.9,0,0,0,1.2,2.2,3,3,0,0,0,2.1,1.3,2.6,2.6,0,0,0,2.2-1.3,4.3,4.3,0,0,0,.7-2.5c-.1-.8-.4-1.8-1.2-1.9a1.6,1.6,0,0,0-1,.2l-4.3,1.7" transform="translate(-61.6 -46.2)"/><path class="e" d="M227.2,191.4a6.4,6.4,0,0,0,2.3-.3,3.5,3.5,0,0,0,1.7-1.5,3.4,3.4,0,0,0,0-2.8l-.3-.7h-.4l-.6.3-.7.3-2.5.9a7.2,7.2,0,0,1-2.3.7l2.1-1.2,2.4-1.1.7-.3.8-.3a.6.6,0,0,1,.6,0l.5.4a5.9,5.9,0,0,1,.4.8,4,4,0,0,1-.1,3.4,3.6,3.6,0,0,1-2.2,1.7,2.9,2.9,0,0,1-1.8.1Z" transform="translate(-61.6 -46.2)"/><path class="f" d="M249.2,148.7a2.9,2.9,0,0,0,0-1.5,6,6,0,0,0-2-3.6,7.7,7.7,0,0,0-5.8-1.9,26.6,26.6,0,0,0-7.5,1.6l-3.9,1.2a24.5,24.5,0,0,1-3.8.4,20.1,20.1,0,0,1-6.3-.8,19.9,19.9,0,0,1-4-1.7l-1-.6-.3-.2,1.4.7a26.7,26.7,0,0,0,4,1.5,19.4,19.4,0,0,0,6.2.8,23.5,23.5,0,0,0,3.7-.5l3.9-1.1a24.3,24.3,0,0,1,7.6-1.7,8.7,8.7,0,0,1,6,2.1,5.9,5.9,0,0,1,2,3.8A2.6,2.6,0,0,1,249.2,148.7Z" transform="translate(-61.6 -46.2)"/><path class="f" d="M259.2,170.5v-.3a2,2,0,0,1-.4-.8,11.7,11.7,0,0,1-1.1-3.2,15.8,15.8,0,0,1-.3-5,47.9,47.9,0,0,1,1.1-6,11.8,11.8,0,0,0,.1-5.9,6.1,6.1,0,0,0-1.3-2.2,4.1,4.1,0,0,0-1.8-1.2,3.8,3.8,0,0,0-3.2.1,2.6,2.6,0,0,0-1,.7,2.1,2.1,0,0,1,.9-.9,4.7,4.7,0,0,1,3.4-.2,5.7,5.7,0,0,1,2,1.3,7.3,7.3,0,0,1,1.3,2.3,11.5,11.5,0,0,1,0,6.1c-.4,2.1-1,4.1-1.2,5.9a18.4,18.4,0,0,0,.3,4.9,19,19,0,0,0,.9,3.2C259.1,170.1,259.3,170.5,259.2,170.5Z" transform="translate(-61.6 -46.2)"/><path class="f" d="M250.5,147.7c-.1,0-.1-.2,0-.5v-1.5a15.8,15.8,0,0,0-.6-5.3,9.5,9.5,0,0,0-1.7-3.3,6.9,6.9,0,0,0-3.4-2.3,10.2,10.2,0,0,0-4.6.2,32.3,32.3,0,0,0-4.7,2.1,32.8,32.8,0,0,1-4.5,2.4,13.5,13.5,0,0,1-4.7.9,18.8,18.8,0,0,1-4.3-.5,16,16,0,0,1-3.5-1.5,14.3,14.3,0,0,1-4.2-3.5l-.8-1.2c-.2-.3-.3-.5-.2-.5l.3.4a6.1,6.1,0,0,0,.9,1.2,13.6,13.6,0,0,0,4.1,3.4,23.2,23.2,0,0,0,3.5,1.4,17.9,17.9,0,0,0,4.2.5,14.6,14.6,0,0,0,4.5-1,32.9,32.9,0,0,0,4.6-2.3,17.3,17.3,0,0,1,4.6-2.1,8.8,8.8,0,0,1,4.8-.2,6.8,6.8,0,0,1,3.6,2.4,9.4,9.4,0,0,1,1.8,3.4,18.8,18.8,0,0,1,.5,5.4,13.9,13.9,0,0,1-.2,1.5Z" transform="translate(-61.6 -46.2)"/><path class="e" d="M264.3,216.7s30.7,9.8,32.7,15.1,17.7,52.4,21.1,83.9a23.2,23.2,0,0,1-20.9,25.5c-20.8,1.9-51,4.4-51,2.7V317.7l39.1-5.8-14.5-42.5Z" transform="translate(-61.6 -46.2)"/><path class="p" d="M224.9,338.6c4,1,21.3,1,21.3,1V319.1s-7.5-3.2-9.6-5.1-8-12.9-8-12.9a5.9,5.9,0,0,0-2.7,6.3c1,4.5,2.9,5,3,6.8,0,.1.1.5.2.5.4,2.5-2,4.7-2,4.7a11.3,11.3,0,0,0-2.7-1.3c-3.6-.4-7.9,2.2-7.9,3.6a33.6,33.6,0,0,0,0,4.5c.1.6,1.9,1.4,1.9,1.4s-.5,2.6,0,3.8a5.8,5.8,0,0,0,2.6,2S222.7,338,224.9,338.6Z" transform="translate(-61.6 -46.2)"/><path class="q" d="M229.1,335.3a9.7,9.7,0,0,1-4.1-.2,9.1,9.1,0,0,1-3.9-1.6c0-.1,1.7.6,4,1S229.1,335.1,229.1,335.3Z" transform="translate(-61.6 -46.2)"/><path class="q" d="M228.1,329.1c0,.2-2.1.6-4.7.3a10.3,10.3,0,0,1-4.5-1.5c0-.2,2,.6,4.6,1S228.1,329,228.1,329.1Z" transform="translate(-61.6 -46.2)"/><path class="q" d="M227.5,311.5a8.6,8.6,0,0,1,1.4,2.5,7.4,7.4,0,0,1,.4,1.4,2.8,2.8,0,0,1,0,1.8,4.9,4.9,0,0,1-2.5,3,6.4,6.4,0,0,1-1.9.8l-1.8.2h-3.2c-1.7,0-2.8.3-2.8.2a9.7,9.7,0,0,1,2.8-.5l3.1-.2,1.8-.2a6.7,6.7,0,0,0,1.8-.7,5.4,5.4,0,0,0,2.3-2.7,4.3,4.3,0,0,0,0-1.6l-.3-1.3C228,312.5,227.4,311.5,227.5,311.5Z" transform="translate(-61.6 -46.2)"/><path class="f" d="M285.8,311.9l-1.5.3-4.3.7-13.9,2.2c-5.5.9-10.4,1.6-14,2a39.8,39.8,0,0,1-5.9.6l1.6-.3,4.2-.6,14-2.2,14-2,4.2-.6Z" transform="translate(-61.6 -46.2)"/><path class="f" d="M302.4,308a12.7,12.7,0,0,1-3.1,0l-7.4-.4a13.4,13.4,0,0,0-4,0,4,4,0,0,0-2.6,1.6,2.9,2.9,0,0,0-.4,2.1,4.5,4.5,0,0,0,.3.8,1.6,1.6,0,0,1-.5-.7,2.8,2.8,0,0,1,.3-2.3,4.3,4.3,0,0,1,2.8-2,14,14,0,0,1,4.1-.1l7.4.6A18,18,0,0,1,302.4,308Z" transform="translate(-61.6 -46.2)"/><path class="f" d="M295.9,315.2a38.8,38.8,0,0,1-5.5-1.4c-3.1-.9-5.5-1.7-5.4-1.9a38.8,38.8,0,0,1,5.5,1.4C293.6,314.2,296,315,295.9,315.2Z" transform="translate(-61.6 -46.2)"/><path class="f" d="M271.7,264c.2,0,3.3,9.9,7.1,22.2s6.6,22.3,6.5,22.4-3.3-9.9-7-22.2S271.6,264.1,271.7,264Z" transform="translate(-61.6 -46.2)"/><path class="f" d="M294.6,232.5c0,.1-1.8.4-4.5,1.5a27.4,27.4,0,0,0-9.5,6.1,28.7,28.7,0,0,0-6.1,9.6,38.4,38.4,0,0,0-1.4,4.5s0-.4.1-1.3l.9-3.3a26.9,26.9,0,0,1,6.1-9.8,26,26,0,0,1,9.8-6.2,16.8,16.8,0,0,1,3.3-.9Z" transform="translate(-61.6 -46.2)"/><path class="f" d="M192.5,253.9c.1,0,.1.2.1.7a16.4,16.4,0,0,0,.1,2c0,1.8,0,4.2.1,7.3.1,6.2.2,14.8.3,24.2s.1,17.9.1,24.2v10c-.1,0-.1-.2-.1-.7a15.6,15.6,0,0,0-.1-2c0-1.8-.1-4.3-.1-7.3-.1-6.3-.2-14.8-.3-24.2s-.1-18-.2-24.2c0-3.1.1-5.5.1-7.3v-2.7Z" transform="translate(-61.6 -46.2)"/><path class="e" d="M240.9,467.1l-.2-.8-.5-2.1-1.7-8.1c-1.4-6.7-3.1-16.1-4.8-26.5s-2.9-19.9-3.7-26.8c-.4-3.4-.7-6.2-.9-8.1l-.2-2.3a4.2,4.2,0,0,1-.1-.7c.1,0,.1.2.2.7s.2,1.3.3,2.2.6,4.8,1.1,8.1c.9,6.9,2.2,16.4,3.9,26.8s3.3,19.8,4.6,26.6c.6,3.3,1.1,6.1,1.5,8s.3,1.7.4,2.2A4.5,4.5,0,0,1,240.9,467.1Z" transform="translate(-61.6 -46.2)"/><path class="f" d="M297.2,341.2c0,.1-11.3,1-25.2,1.9s-25.2,1.5-25.2,1.4,11.2-1,25.2-1.9S297.2,341,297.2,341.2Z" transform="translate(-61.6 -46.2)"/><path class="e" d="M93.4,441.2l.2-.5.6-1.3a35,35,0,0,0,1.8-5.3c1.2-4.7,1.6-11.8-.1-20.4A138,138,0,0,0,92.1,400c-1.6-4.8-3.5-10-5-15.6a61,61,0,0,1-2.5-17.9c.3-6.4,2.2-12.7,4.2-19S93,335,93.7,328.8a27.8,27.8,0,0,0-3.5-17.2c-2.7-5.1-6.1-9.4-8.7-13.8a49.8,49.8,0,0,1-5.3-13.3,51.1,51.1,0,0,1-.3-20.6,37.3,37.3,0,0,1,2.1-7.2,1.6,1.6,0,0,1-.1.4l-.4,1.4a52.6,52.6,0,0,0-1.4,5.5,51.1,51.1,0,0,0,.6,20.4,47,47,0,0,0,5.2,13.1c2.6,4.4,6.1,8.7,8.9,13.8a29.8,29.8,0,0,1,3.5,17.6c-.7,6.3-2.8,12.5-4.9,18.8s-3.9,12.6-4.1,18.8a60.8,60.8,0,0,0,2.4,17.8c1.5,5.5,3.3,10.7,4.9,15.6a104.5,104.5,0,0,1,3.7,13.7c1.8,8.6,1.3,15.9,0,20.6a35.6,35.6,0,0,1-2,5.3l-.7,1.3Z" transform="translate(-61.6 -46.2)"/><path class="g" d="M85,302.2s-5.3-16.8,4.1-26.5a.6.6,0,0,1,1,.2C90.6,278.7,91.2,287.1,85,302.2Z" transform="translate(-61.6 -46.2)"/><path class="e" d="M88.1,281.2a22,22,0,0,1-.3,3.1c-.4,2.1-.8,4.6-1.2,7.4s-.9,5.2-1.2,7.3a16.1,16.1,0,0,1-.6,3.1s0-1.2.1-3.1.5-4.5,1-7.4,1-5.5,1.4-7.4A12.7,12.7,0,0,1,88.1,281.2Z" transform="translate(-61.6 -46.2)"/><path class="g" d="M91.1,341.6s3.2-17.2,16.1-21.5a.5.5,0,0,1,.7.7C107.1,323.5,103.7,331.2,91.1,341.6Z" transform="translate(-61.6 -46.2)"/><path class="e" d="M103.7,324.5a14.3,14.3,0,0,1-1.8,2.6l-4.5,6L92.9,339a15.3,15.3,0,0,1-1.9,2.5c-.1-.1.5-1.1,1.6-2.7a73.3,73.3,0,0,1,4.3-6.1c1.8-2.4,3.4-4.4,4.7-5.9A13.1,13.1,0,0,1,103.7,324.5Z" transform="translate(-61.6 -46.2)"/><path class="g" d="M87.6,384.8s-1.9-17.4,9.2-25.3a.6.6,0,0,1,.9.5C97.7,362.8,96.7,371.2,87.6,384.8Z" transform="translate(-61.6 -46.2)"/><path class="e" d="M94.7,364.8a14.6,14.6,0,0,1-.9,3c-.8,2-1.6,4.4-2.6,7s-1.8,5-2.6,7a15,15,0,0,1-1.1,2.9,14.3,14.3,0,0,1,.7-3c.5-1.9,1.4-4.4,2.4-7.1s2-5.2,2.7-7A19.7,19.7,0,0,1,94.7,364.8Z" transform="translate(-61.6 -46.2)"/><path class="g" d="M97.3,428.2s-1.3-17.4,10.1-24.9a.6.6,0,0,1,.9.5C108.1,406.6,106.8,415,97.3,428.2Z" transform="translate(-61.6 -46.2)"/><path class="e" d="M105.1,408.5a12.2,12.2,0,0,1-1,3l-2.9,6.9c-1,2.6-2,4.9-2.8,6.9s-1.1,2.9-1.2,2.8a13.2,13.2,0,0,1,.8-3c.6-1.8,1.5-4.3,2.6-7s2.2-5.1,3-6.8A18.3,18.3,0,0,1,105.1,408.5Z" transform="translate(-61.6 -46.2)"/><path class="g" d="M77.5,287.5s-15.6-8.1-15.9-21.7a.6.6,0,0,1,.9-.5C64.8,266.9,71.2,272.4,77.5,287.5Z" transform="translate(-61.6 -46.2)"/><path class="e" d="M64.9,270.5a18.6,18.6,0,0,1,1.9,2.4c1.3,1.7,2.7,3.8,4.4,6l4.4,6.1a15.9,15.9,0,0,1,1.7,2.5,14.3,14.3,0,0,1-2.1-2.2c-1.2-1.5-2.9-3.6-4.6-6s-3.2-4.5-4.2-6.1A17.8,17.8,0,0,1,64.9,270.5Z" transform="translate(-61.6 -46.2)"/><path class="g" d="M94.1,323.4s-16-7.2-17.1-20.7a.6.6,0,0,1,.9-.5C80.3,303.6,87,308.7,94.1,323.4Z" transform="translate(-61.6 -46.2)"/><path class="e" d="M80.5,307.2c.1-.1.9.8,2.1,2.3l4.7,5.7,4.8,5.8a27.1,27.1,0,0,1,1.9,2.4c-.1.1-.9-.7-2.3-2.1l-4.9-5.6-4.6-6A15.9,15.9,0,0,1,80.5,307.2Z" transform="translate(-61.6 -46.2)"/><path class="g" d="M84.9,363.4S74,349.8,79.1,337.2a.6.6,0,0,1,1-.1C81.6,339.5,85.3,347.1,84.9,363.4Z" transform="translate(-61.6 -46.2)"/><path class="e" d="M80.2,342.8a12.7,12.7,0,0,1,.8,3c.5,2.1,1,4.5,1.6,7.3s1.1,5.2,1.6,7.3a18,18,0,0,1,.6,3,15,15,0,0,1-1.1-2.9c-.5-1.9-1.1-4.4-1.8-7.3s-1.1-5.4-1.4-7.3A11.8,11.8,0,0,1,80.2,342.8Z" transform="translate(-61.6 -46.2)"/><path class="g" d="M95.8,410.5S79.9,403.1,79,389.6a.6.6,0,0,1,.9-.6C82.3,390.5,88.9,395.7,95.8,410.5Z" transform="translate(-61.6 -46.2)"/><path class="e" d="M82.5,394.1a16.3,16.3,0,0,1,2,2.3l4.6,5.9,4.7,5.8a24.5,24.5,0,0,1,1.9,2.5,15.1,15.1,0,0,1-2.3-2.2c-1.2-1.4-3-3.4-4.8-5.7s-3.4-4.4-4.5-6A12.9,12.9,0,0,1,82.5,394.1Z" transform="translate(-61.6 -46.2)"/><path class="e" d="M127.4,341.7v1.5c0,1-.1,2.4-.2,4.2-.2,3.8-.5,9-.8,15.2h0c-1.2,6.4-4.4,13.4-8.7,20.2-3.2,5-6.5,9.6-9.4,13.8a99.7,99.7,0,0,0-7,11.7,36.8,36.8,0,0,0-3.3,8.5q-.4,1.6-.6,2.4l-.3.9a6.2,6.2,0,0,1,.1-.9c.1-.6.3-1.4.5-2.4a46.7,46.7,0,0,1,3.1-8.7,92.7,92.7,0,0,1,7-11.8c2.8-4.3,6.2-8.8,9.3-13.8,4.3-6.8,7.6-13.7,8.7-20h0c.5-6.3.8-11.5,1.1-15.2q.1-2.7.3-4.2a5.3,5.3,0,0,0,.1-1.2A.8.8,0,0,0,127.4,341.7Z" transform="translate(-61.6 -46.2)"/><path class="g" d="M118,381.5s6.7-16.2-1.8-26.8a.6.6,0,0,0-1,.2C114.5,357.6,113.1,365.9,118,381.5Z" transform="translate(-61.6 -46.2)"/><path class="e" d="M116.7,360.4a13.9,13.9,0,0,1,.6,3c.2,1.9.5,4.6.7,7.5s.3,5.5.3,7.5a11.5,11.5,0,0,1-.2,3.1,14.1,14.1,0,0,1-.3-3.1c-.1-2.2-.3-4.7-.5-7.5s-.3-5.3-.5-7.4A18.3,18.3,0,0,1,116.7,360.4Z" transform="translate(-61.6 -46.2)"/><g class="c"><path d="M118,381.5s6.7-16.2-1.8-26.8a.6.6,0,0,0-1,.2C114.5,357.6,113.1,365.9,118,381.5Z" transform="translate(-61.6 -46.2)"/></g><path class="g" d="M97.2,420.5s5.3-16.7-3.9-26.6c-.4-.3-1-.2-1,.3C91.7,397,91,405.4,97.2,420.5Z" transform="translate(-61.6 -46.2)"/><path class="e" d="M94.2,399.5a12.7,12.7,0,0,1,.8,3c.4,1.9.9,4.5,1.3,7.4a66.3,66.3,0,0,1,.9,7.4,10.6,10.6,0,0,1,.1,3.1,11.4,11.4,0,0,1-.5-3c-.4-2.2-.7-4.7-1.1-7.4s-.8-5.3-1.2-7.4A22,22,0,0,1,94.2,399.5Z" transform="translate(-61.6 -46.2)"/><g class="c"><path d="M97.2,420.5s5.3-16.7-3.9-26.6c-.4-.3-1-.2-1,.3C91.7,397,91,405.4,97.2,420.5Z" transform="translate(-61.6 -46.2)"/></g><path class="g" d="M126.5,361.7s14.4-10,12.9-23.5a.5.5,0,0,0-.9-.4C136.4,339.7,130.7,346,126.5,361.7Z" transform="translate(-61.6 -46.2)"/><g class="c"><path d="M126.5,361.7s14.4-10,12.9-23.5a.5.5,0,0,0-.9-.4C136.4,339.7,130.7,346,126.5,361.7Z" transform="translate(-61.6 -46.2)"/></g><path class="e" d="M136.8,343.2a12.2,12.2,0,0,1-1.2,2.9c-.8,1.7-2,4.1-3.4,6.7s-2.7,4.8-3.7,6.5l-1.8,2.5a14.6,14.6,0,0,1,1.4-2.8c1-1.9,2.2-4.1,3.6-6.5l3.5-6.6A14.8,14.8,0,0,1,136.8,343.2Z" transform="translate(-61.6 -46.2)"/><path class="g" d="M102.9,404s17.3-2.7,22-15.5c.1-.4-.3-.9-.7-.7C121.5,388.5,113.7,391.7,102.9,404Z" transform="translate(-61.6 -46.2)"/><g class="c"><path d="M102.9,404s17.3-2.7,22-15.5c.1-.4-.3-.9-.7-.7C121.5,388.5,113.7,391.7,102.9,404Z" transform="translate(-61.6 -46.2)"/></g><path class="e" d="M120.3,391.9c.1.1-.8.8-2.3,2s-3.6,2.8-6,4.5l-6.2,4.2a16,16,0,0,1-2.8,1.5,24.1,24.1,0,0,1,2.5-1.9l6.1-4.3,6.1-4.3Z" transform="translate(-61.6 -46.2)"/><polygon class="f" points="20.8 389.6 25.8 422.1 45.6 422.1 52.3 389.6 20.8 389.6"/><path class="e" d="M111,448.4h-.1c-.2,0-.3.2-.6.3a6.6,6.6,0,0,1-2.2.6,7.7,7.7,0,0,1-3.6-.3,6.8,6.8,0,0,1-3.9-2.9,4.9,4.9,0,0,1-1-2.7,3.2,3.2,0,0,1,1.4-2.8,3.1,3.1,0,0,1,3.3.3,5.1,5.1,0,0,1,1.9,3,11.4,11.4,0,0,1,.2,3.7,9.9,9.9,0,0,1-.8,3.7,6.9,6.9,0,0,1-2.3,3.3,6.3,6.3,0,0,1-3.8,1.6,6,6,0,0,1-3.9-1.2,10.8,10.8,0,0,1-3-2.6,7.1,7.1,0,0,1-1.5-3.6,4.3,4.3,0,0,1,1.4-3.5,3.4,3.4,0,0,1,3.5-.2,3.6,3.6,0,0,1,2,2.7,5,5,0,0,1-2.5,5.1,6.2,6.2,0,0,1-4.7.7,9.5,9.5,0,0,1-3.5-1.3l-1.9-1.3-.6-.5.7.4,1.9,1.2a9.7,9.7,0,0,0,3.4,1.2,6.1,6.1,0,0,0,4.5-.7,4.5,4.5,0,0,0,2.3-4.7,3.3,3.3,0,0,0-1.8-2.3,2.7,2.7,0,0,0-3,.1,4.1,4.1,0,0,0-1.2,3.1,5.8,5.8,0,0,0,1.4,3.2,13.7,13.7,0,0,0,2.8,2.6,7,7,0,0,0,3.7,1.1,6.5,6.5,0,0,0,3.5-1.5,6.6,6.6,0,0,0,2.1-3.1,11.1,11.1,0,0,0,.8-3.6,10.2,10.2,0,0,0-.2-3.5,4.1,4.1,0,0,0-1.7-2.7,2.6,2.6,0,0,0-2.8-.3,2.5,2.5,0,0,0-1.1,2.4,4.4,4.4,0,0,0,.8,2.5,6.6,6.6,0,0,0,3.7,2.8,7.4,7.4,0,0,0,3.5.4A9.4,9.4,0,0,0,111,448.4Z" transform="translate(-61.6 -46.2)"/><path class="g" d="M622.5,441c-7.8-4.6-12-15.1-12.3-23.8s3.3-17.7,10.4-22.6,18.1-5.2,25.8-.3a26.8,26.8,0,0,1,11.8,23.4c-.3,9.1-5.3,17.8-12.6,23.2" transform="translate(-61.6 -46.2)"/><path class="b" d="M635.1,441.8a7.6,7.6,0,0,1-.2-1.9c0-1.5-.1-3.3-.1-5.4-.2-4.6-.3-10.9-.6-17.9s-.7-13.2-1-17.8c-.1-2.1-.2-3.9-.3-5.3s-.1-2-.1-2a6.7,6.7,0,0,1,.4,1.9c.1,1.3.3,3.1.5,5.4.4,4.6.9,10.8,1.2,17.8s.4,13.3.4,17.8c0,2.3-.1,4.2-.1,5.5A14.9,14.9,0,0,1,635.1,441.8Z" transform="translate(-61.6 -46.2)"/><path class="e" d="M612.5,415.2c0,.3-1.3.3-2.8.2s-2.7-.4-2.7-.6,1.2-.3,2.8-.1S612.5,415,612.5,415.2Z" transform="translate(-61.6 -46.2)"/><path class="e" d="M612.9,407.5c0,.2-1.1-.1-2.4-.7s-2.2-1.1-2.1-1.3,1.2.1,2.4.6S613,407.3,612.9,407.5Z" transform="translate(-61.6 -46.2)"/><path class="e" d="M616.9,401.7c-.1.2-1.3-.4-2.5-1.4a6.5,6.5,0,0,1-2-2.3c.2-.1,1.2.7,2.4,1.7S617,401.5,616.9,401.7Z" transform="translate(-61.6 -46.2)"/><path class="e" d="M621,396.3c-.2.1-.8-.9-1.3-2.1s-.9-2.2-.7-2.3.8.8,1.3,2A5,5,0,0,1,621,396.3Z" transform="translate(-61.6 -46.2)"/><path class="e" d="M627.3,392.4c-.2.1-.8-.9-1.3-2.2s-.4-2.5-.2-2.5.5,1,.9,2.3S627.5,392.3,627.3,392.4Z" transform="translate(-61.6 -46.2)"/><path class="e" d="M637.8,388.1c.2,0,.1.9-.3,1.8s-.7,1.7-.9,1.6-.1-.9.2-1.8S637.6,388,637.8,388.1Z" transform="translate(-61.6 -46.2)"/><path class="e" d="M645.6,391.4c.1.2-.4.8-1.1,1.5s-1.5,1.2-1.6,1,.3-.8,1.1-1.5S645.5,391.3,645.6,391.4Z" transform="translate(-61.6 -46.2)"/><path class="e" d="M652.5,395.8c.1.2-.5.8-1.4,1.4a3.6,3.6,0,0,1-1.8.8c-.1-.2.5-.8,1.4-1.4A3.6,3.6,0,0,1,652.5,395.8Z" transform="translate(-61.6 -46.2)"/><path class="e" d="M657.4,402.5c0,.2-.9.7-2.2,1.3s-2.4.8-2.4.6.8-.8,2.1-1.3S657.3,402.3,657.4,402.5Z" transform="translate(-61.6 -46.2)"/><path class="e" d="M659.3,409.7c0,.2-1,.5-2.2.6s-2.3.1-2.3-.1,1-.5,2.2-.6A3.6,3.6,0,0,1,659.3,409.7Z" transform="translate(-61.6 -46.2)"/><path class="e" d="M660.3,418.6c-.1.2-1.2-.1-2.4-.6s-2.1-1.1-2-1.3,1.1.1,2.3.6S660.4,418.4,660.3,418.6Z" transform="translate(-61.6 -46.2)"/><path class="e" d="M659.4,426.2c-.1.2-1.4-.1-2.8-1s-2.2-2-2-2.2a17.7,17.7,0,0,1,2.4,1.5C658.3,425.4,659.5,426,659.4,426.2Z" transform="translate(-61.6 -46.2)"/><path class="e" d="M655.4,433.1c-.1.2-1.1-.4-2.2-1.5s-1.5-2.2-1.3-2.3.9.7,1.9,1.8S655.6,433,655.4,433.1Z" transform="translate(-61.6 -46.2)"/><path class="e" d="M617.7,433.9c.1.2-1,1-2.4,1.7s-2.7,1.3-2.8,1.1,1-1,2.4-1.7A7.8,7.8,0,0,1,617.7,433.9Z" transform="translate(-61.6 -46.2)"/><path class="e" d="M614.3,427.7c.1.2-.8.7-2,1.3s-2.2.8-2.3.6.8-.8,2-1.3S614.2,427.5,614.3,427.7Z" transform="translate(-61.6 -46.2)"/><path class="e" d="M611.8,422.1c0,.2-1.1.5-2.5.7s-2.5.2-2.5,0,1-.5,2.4-.7S611.7,421.9,611.8,422.1Z" transform="translate(-61.6 -46.2)"/><path class="e" d="M620.1,419c0,.2-1,.7-2.5.9s-2.5-.1-2.5-.3,1.1-.3,2.5-.4S620,418.8,620.1,419Z" transform="translate(-61.6 -46.2)"/><path class="e" d="M627,412.2c0,.2-.8.6-2,.7s-2-.1-2-.3.9-.3,2-.4S626.9,412,627,412.2Z" transform="translate(-61.6 -46.2)"/><path class="e" d="M628.3,406.7c-.1.2-1,0-2.1-.3a5.5,5.5,0,0,1-1.8-1c.1-.2,1-.1,2.1.3S628.3,406.5,628.3,406.7Z" transform="translate(-61.6 -46.2)"/><path class="e" d="M630.8,401.1c-.1.2-.8-.2-1.2-1s-.5-1.6-.3-1.6.5.5.9,1.2S630.9,401,630.8,401.1Z" transform="translate(-61.6 -46.2)"/><path class="e" d="M627.8,423.9c0,.2-.8.5-1.8.8l-1.5.2v-.4c.2-.1.4-.1.4,0s-.1.2-.3.4v-.4a3.8,3.8,0,0,1,1.4-.5C626.8,423.7,627.7,423.7,627.8,423.9Z" transform="translate(-61.6 -46.2)"/><path class="e" d="M629.2,433.6a5.4,5.4,0,0,1-2.3,1.3c-1.3.5-2.4.8-2.5.6s.9-.8,2.2-1.3S629.1,433.4,629.2,433.6Z" transform="translate(-61.6 -46.2)"/><path class="e" d="M621.4,429.3c0,.2-.6.6-1.5.9s-1.7.4-1.8.2.6-.6,1.5-.9S621.3,429.1,621.4,429.3Z" transform="translate(-61.6 -46.2)"/><path class="e" d="M622,409.5c-.1.2-1.2,0-2.6-.4a5.8,5.8,0,0,1-2.3-1.3c.1-.2,1.2.1,2.5.6S622,409.3,622,409.5Z" transform="translate(-61.6 -46.2)"/><path class="e" d="M640.8,407.3c.1.2-.5.8-1.4,1.4s-1.8,1-1.9.8.5-.8,1.5-1.4S640.7,407.1,640.8,407.3Z" transform="translate(-61.6 -46.2)"/><path class="e" d="M641.9,417.1c0,.2-.7.5-1.6.7s-1.7.2-1.7,0,.7-.5,1.6-.7S641.8,416.9,641.9,417.1Z" transform="translate(-61.6 -46.2)"/><path class="e" d="M643,428.1c0,.2-1-.1-2.2-.6s-2-1.1-1.9-1.3,1.1.1,2.2.6S643.1,427.9,643,428.1Z" transform="translate(-61.6 -46.2)"/><path class="e" d="M640.5,438.8c-.1.1-.8-.4-1.4-1.2s-1.1-1.5-.9-1.6.8.4,1.4,1.2S640.7,438.7,640.5,438.8Z" transform="translate(-61.6 -46.2)"/><path class="e" d="M640,400.1c.1.2-.3.7-1,1.1s-1.5.4-1.5.2.5-.6,1.1-.9S639.9,399.9,640,400.1Z" transform="translate(-61.6 -46.2)"/><path class="e" d="M649.2,410c.1.2-.7.6-1.9.8s-2.1-.1-2.1-.3.9-.3,2-.4S649.2,409.8,649.2,410Z" transform="translate(-61.6 -46.2)"/><path class="e" d="M647.4,401.1c.1.2-.8.8-2,1.2s-2.2.4-2.2.2.9-.6,2-.9S647.3,400.9,647.4,401.1Z" transform="translate(-61.6 -46.2)"/><path class="e" d="M651.3,423.7c0,.2-1.5.3-3.2,0s-3.1-.9-3-1.1,1.4.1,3.1.4S651.3,423.5,651.3,423.7Z" transform="translate(-61.6 -46.2)"/><path class="e" d="M647.8,436.6a8.7,8.7,0,0,1-3.8-3.8c.2-.2,1.1.7,2.1,1.7S648,436.4,647.8,436.6Z" transform="translate(-61.6 -46.2)"/><path class="b" d="M632.7,390.6c.1.2-2.9,1.4-6.4,5.1a31.8,31.8,0,0,0-8,17.8,38.4,38.4,0,0,0,.4,10.8,88.7,88.7,0,0,0,2.1,8.8c.7,2.4,1.3,4.4,1.8,5.8l.6,2.1a7.5,7.5,0,0,1-.9-2c-.5-1.4-1.2-3.3-2-5.8a64.5,64.5,0,0,1-2.2-8.7,40.3,40.3,0,0,1-.6-11.1,30.7,30.7,0,0,1,8.4-18,21.6,21.6,0,0,1,4.8-3.8l1.5-.8Z" transform="translate(-61.6 -46.2)"/><path class="b" d="M642.8,441.5c-.2-.1,1.6-2.9,3.3-7.9a43.9,43.9,0,0,0,1.9-20.3,36.4,36.4,0,0,0-3.1-10.9,25.6,25.6,0,0,0-5.3-7.4,20.8,20.8,0,0,0-5.3-3.3c-1.3-.6-2.1-.7-2.1-.8h.6l1.6.4a22.2,22.2,0,0,1,5.5,3.2,25.9,25.9,0,0,1,5.6,7.6,39.4,39.4,0,0,1,3.3,11,44.1,44.1,0,0,1-2.2,20.5l-1.4,3.4-1.2,2.4Z" transform="translate(-61.6 -46.2)"/><polygon class="e" points="552.7 393.5 593.2 393.5 593.4 401.6 552.7 401.6 552.7 393.5"/><polygon class="e" points="556.1 397.6 558.4 422.3 588 422.3 590.4 397.8 556.1 397.6"/><path class="f" d="M655.1,447.9c0,.2-9.2.4-20.4.4s-20.4-.2-20.4-.4,9.1-.3,20.4-.3S655.1,447.7,655.1,447.9Z" transform="translate(-61.6 -46.2)"/><path class="f" d="M650.9,455.5c.1,0-.2.6-.8,1.5a22.9,22.9,0,0,1-3.2,3.7l-.2.2v-.2a67.7,67.7,0,0,0-8-6.9h.5c-1.2.9-2.3,2-3.6,3l-4.1,3.7-.2.2-.3-.2-6.7-5.7h.3c-1.3,1.7-2.5,3.2-3.5,4.3a8.4,8.4,0,0,1-1.3,1.5c-.1,0,.3-.6,1.1-1.7l3.3-4.4.2-.2.2.2,6.9,5.5h-.5l4.2-3.6,3.5-3.1.2-.2.2.2a44,44,0,0,1,7.9,7.2h-.3A41.4,41.4,0,0,0,650.9,455.5Z" transform="translate(-61.6 -46.2)"/><path class="r" d="M515.2,110.1,526.7,122a1.9,1.9,0,0,0,2.8.1l45.7-43.9a2,2,0,0,0,.1-2.8l-11.5-12a2,2,0,0,0-2.8-.1l-45.7,43.9A2.1,2.1,0,0,0,515.2,110.1Z" transform="translate(-61.6 -46.2)"/><path class="e" d="M515.2,110.1l-.3-.4a3.1,3.1,0,0,1-.3-1.3,6.3,6.3,0,0,1,.4-.9l.8-.8,2-2,13.3-12.9,19.8-19,5.7-5.5,2.9-2.8L561,63a2.4,2.4,0,0,1,2.2-.2,2,2,0,0,1,.9.7l.7.7,1.5,1.6,3,3.1,6.1,6.3a2.2,2.2,0,0,1,.5,2.3,2.3,2.3,0,0,1-.7,1l-.8.7-3.1,3.1-6.2,5.9L553.4,99.4l-19.8,19-4,3.8a2.1,2.1,0,0,1-2.5.2,3.4,3.4,0,0,1-.9-.8l-.8-.9-5.5-5.7-3.5-3.7-.9-.9-.3-.3.4.3.9.9,3.5,3.6,5.5,5.7.8.9.9.8a1.8,1.8,0,0,0,2.2-.3l4.1-3.8,19.7-19,11.7-11.3L571,82l3.2-3,.8-.8a1.6,1.6,0,0,0,.6-.8,1.9,1.9,0,0,0-.5-1.9c-2-2.2-4.1-4.3-6.1-6.4L566,66l-1.4-1.5-.8-.8a2,2,0,0,0-.7-.6,2.1,2.1,0,0,0-1.9.2l-1.4,1.4-3,2.9L551.1,73,531.3,92l-13.4,12.8-2.1,2-.8.8a1.6,1.6,0,0,0-.3.9,2.1,2.1,0,0,0,.3,1.2Z" transform="translate(-61.6 -46.2)"/><rect class="g" x="557.7" y="66.6" width="11.6" height="16.89" transform="translate(45.7 368) rotate(-44.2)"/><rect class="g" x="530.7" y="92.9" width="11.6" height="16.89" transform="translate(19.7 356.6) rotate(-44.2)"/><rect class="g" x="539.7" y="84.1" width="11.6" height="16.89" transform="translate(28.4 360.4) rotate(-44.2)"/><rect class="g" x="548.7" y="75.3" width="11.6" height="16.89" transform="translate(37 364.2) rotate(-44.2)"/><g class="s"><rect x="557.7" y="66.6" width="11.6" height="16.89" transform="translate(45.7 368) rotate(-44.2)"/></g><g class="t"><rect x="530.7" y="92.9" width="11.6" height="16.89" transform="translate(19.7 356.6) rotate(-44.2)"/></g><g class="u"><rect x="539.7" y="84.1" width="11.6" height="16.89" transform="translate(28.4 360.4) rotate(-44.2)"/></g><g class="o"><rect x="548.7" y="75.3" width="11.6" height="16.89" transform="translate(37 364.2) rotate(-44.2)"/></g><path class="r" d="M516,108l8,14.5a1.9,1.9,0,0,0,2.7.8l54.7-30.2a2,2,0,0,0,.7-2.7l-8-14.5a2,2,0,0,0-2.7-.8l-54.7,30.2A2,2,0,0,0,516,108Z" transform="translate(-61.6 -46.2)"/><path class="e" d="M516,108a1.1,1.1,0,0,1-.2-.4,1.9,1.9,0,0,1,0-1.3,2.1,2.1,0,0,1,.6-.8l.9-.6,2.5-1.4,16-8.9,23.7-13.1,6.9-3.8,3.5-2,.9-.5,1-.5a2.1,2.1,0,0,1,2,.6,2.4,2.4,0,0,1,.6.9l.5.9L576,79l2,3.7,4.3,7.6a2.7,2.7,0,0,1-.1,2.3,3.4,3.4,0,0,1-.9.8l-.9.5L576.6,96l-7.5,4.1-14,7.7-23.7,13.1-4.8,2.6a2,2,0,0,1-2.4-.6,22.5,22.5,0,0,1-1.2-2.1l-3.8-6.9-2.4-4.4c-.2-.5-.5-.8-.6-1.1a1.1,1.1,0,0,0-.2-.4,1.1,1.1,0,0,1,.2.4,7.2,7.2,0,0,1,.7,1.1c.5,1,1.4,2.5,2.4,4.3l3.8,6.9,1.2,2.1a1.8,1.8,0,0,0,2.2.5l4.8-2.6L555,107.5l14-7.7,7.4-4.1,3.8-2.1.9-.6a1.2,1.2,0,0,0,.8-.6,1.7,1.7,0,0,0,0-1.9l-4.2-7.6c-.7-1.3-1.4-2.5-2-3.8l-1.1-1.8-.5-.9a2.6,2.6,0,0,0-.5-.9,1.9,1.9,0,0,0-1.8-.4l-.8.4-.9.5-3.6,2-6.8,3.7L535.9,94.8l-16,8.8-2.5,1.4-1,.6-.5.7a1.9,1.9,0,0,0,0,1.3A.6.6,0,0,0,516,108Z" transform="translate(-61.6 -46.2)"/><rect class="g" x="564.3" y="79.5" width="11.6" height="16.89" transform="translate(-31.8 243.8) rotate(-29.3)"/><rect class="g" x="531.4" y="97.9" width="11.6" height="16.89" transform="translate(-45 230.1) rotate(-29.3)"/><rect class="g" x="542.4" y="91.8" width="11.6" height="16.89" transform="translate(-40.6 234.7) rotate(-29.3)"/><rect class="g" x="553.4" y="85.6" width="11.6" height="16.89" transform="translate(-36.2 239.3) rotate(-29.3)"/><g class="t"><rect x="564.3" y="79.5" width="11.6" height="16.89" transform="translate(-31.8 243.8) rotate(-29.3)"/></g><g class="m"><rect x="531.4" y="97.9" width="11.6" height="16.89" transform="translate(-45 230.1) rotate(-29.3)"/></g><g class="c"><rect x="542.4" y="91.8" width="11.6" height="16.89" transform="translate(-40.6 234.7) rotate(-29.3)"/></g><g class="n"><rect x="553.4" y="85.6" width="11.6" height="16.89" transform="translate(-36.2 239.3) rotate(-29.3)"/></g><path class="r" d="M514,107.9l3.5,16.2a2.1,2.1,0,0,0,2.5,1.5l64.1-14a1.9,1.9,0,0,0,1.5-2.4L582.1,93a1.9,1.9,0,0,0-2.4-1.5l-64.1,14A2.1,2.1,0,0,0,514,107.9Z" transform="translate(-61.6 -46.2)"/><path class="e" d="M514,107.9a1.2,1.2,0,0,1-.1-.5,1.7,1.7,0,0,1,.5-1.2,1.2,1.2,0,0,1,.8-.6l1.1-.4,2.9-.6,18.6-4.1,27.5-6.1,7.9-1.7,4.1-.9,2.1-.5h1.1a2.2,2.2,0,0,1,1.1.5,1.7,1.7,0,0,1,.6,1l.3,1c.1.7.3,1.5.4,2.2s.7,2.8,1,4.3,1.3,5.9,1.9,8.8a2.2,2.2,0,0,1-.8,2.3,2.1,2.1,0,0,1-1.1.4l-1.1.3-4.4.9-8.6,1.9-16.3,3.5-27.5,6-5.6,1.2-.6.2h-.7a1.9,1.9,0,0,1-1.2-.7,1.6,1.6,0,0,1-.5-1.1l-.3-1.2c-.6-3.1-1.2-5.8-1.7-8s-.8-3.9-1.1-5.1a8.3,8.3,0,0,1-.2-1.3v0a13,13,0,0,1,.3,1.3c.3,1.2.7,2.9,1.1,5.1l1.8,7.9.3,1.2a2.2,2.2,0,0,0,.5,1.1,1.7,1.7,0,0,0,1,.6,3,3,0,0,0,1.3-.1l5.6-1.2,27.5-6.1,16.2-3.5,8.6-1.9,4.4-1,1.1-.2,1-.4a2.2,2.2,0,0,0,.7-1.9c-.7-3-1.3-5.9-2-8.8l-.9-4.4c-.2-.7-.3-1.4-.5-2.1s-.1-.7-.2-1a1.8,1.8,0,0,0-.6-.9,1.9,1.9,0,0,0-1.8-.3l-2.1.4-4.1.9-8,1.8-27.5,5.9-18.5,4-3,.6-1.1.3-.8.6a2.4,2.4,0,0,0-.4,1.2Z" transform="translate(-61.6 -46.2)"/><path class="e" d="M513.9,107.9l-2.3.3a11.6,11.6,0,0,0-5.3,2.6,11.1,11.1,0,0,0-4,7.6,11.3,11.3,0,0,0,4,9.6,10.6,10.6,0,0,0,5,2.4,11,11,0,0,0,5.1-.2,11.9,11.9,0,0,0,4.2-2.1,10.8,10.8,0,0,0,2.6-3.1,11.6,11.6,0,0,0,1.6-5.8v-.9c0-.3-.1-.5-.1-.7V117a1.5,1.5,0,0,1,.1.6,1.1,1.1,0,0,1,.2.6,3.4,3.4,0,0,0,.1,1,11.7,11.7,0,0,1-1.4,6,10.3,10.3,0,0,1-2.7,3.3,10.9,10.9,0,0,1-4.4,2.3,11.3,11.3,0,0,1-5.5.3,12,12,0,0,1-5.3-2.6,10.5,10.5,0,0,1-2-2.2,8.9,8.9,0,0,1-1.4-2.5,11.4,11.4,0,0,1-.7-5.4,10,10,0,0,1,1.5-4.7,9.1,9.1,0,0,1,2.8-3.3,12.1,12.1,0,0,1,5.6-2.5h2.3Z" transform="translate(-61.6 -46.2)"/><path class="e" d="M526.6,114.4a2.7,2.7,0,0,1-2,3.1,2.6,2.6,0,0,1-1.1-5A2.6,2.6,0,0,1,526.6,114.4Z" transform="translate(-61.6 -46.2)"/><rect class="g" x="570.5" y="94.7" width="11.6" height="16.89" transform="translate(-70.4 79.2) rotate(-12.3)"/><rect class="g" x="558.2" y="97.3" width="11.6" height="16.89" transform="translate(-71.2 76.6) rotate(-12.3)"/><rect class="g" x="545.9" y="100" width="11.6" height="16.89" transform="translate(-72.1 74.1) rotate(-12.3)"/><rect class="g" x="533.6" y="102.7" width="11.6" height="16.89" transform="translate(-72.9 71.5) rotate(-12.3)"/><g class="s"><rect class="b" x="533.6" y="102.7" width="11.6" height="16.89" transform="translate(-72.9 71.5) rotate(-12.3)"/></g><g class="u"><rect class="b" x="545.9" y="100" width="11.6" height="16.89" transform="translate(-72.1 74.1) rotate(-12.3)"/></g><g class="n"><rect class="b" x="558.2" y="97.3" width="11.6" height="16.89" transform="translate(-71.2 76.6) rotate(-12.3)"/></g><polygon class="e" points="168.6 29.3 171.7 45.9 174.3 41.3 179.8 49.6 182.6 47.7 177.1 39.4 182.1 38.6 168.6 29.3"/></svg>